ISO-10303-21;
HEADER;
FILE_DESCRIPTION(('Open CASCADE Model'),'2;1');
FILE_NAME('Open CASCADE Shape Model','2026-09-26T11:40:17',('Author'),(
    'Open CASCADE'),'Open CASCADE STEP processor 7.9','Open CASCADE 7.9'
  ,'Unknown');
FILE_SCHEMA(('AUTOMOTIVE_DESIGN { 1 0 10303 214 1 1 1 1 }'));
ENDSEC;
DATA;
#1 = APPLICATION_PROTOCOL_DEFINITION('international standard',
  'automotive_design',2000,#2);
#2 = APPLICATION_CONTEXT(
  'core data for automotive mechanical design processes');
#3 = SHAPE_DEFINITION_REPRESENTATION(#4,#10);
#4 = PRODUCT_DEFINITION_SHAPE('','',#5);
#5 = PRODUCT_DEFINITION('design','',#6,#9);
#6 = PRODUCT_DEFINITION_FORMATION('','',#7);
#7 = PRODUCT('conical_50ml','conical_50ml','',(#8));
#8 = PRODUCT_CONTEXT('',#2,'mechanical');
#9 = PRODUCT_DEFINITION_CONTEXT('part definition',#2,'design');
#10 = SHAPE_REPRESENTATION('',(#11,#15,#19),#23);
#11 = AXIS2_PLACEMENT_3D('',#12,#13,#14);
#12 = CARTESIAN_POINT('',(0.,0.,0.));
#13 = DIRECTION('',(0.,0.,1.));
#14 = DIRECTION('',(1.,0.,-0.));
#15 = AXIS2_PLACEMENT_3D('',#16,#17,#18);
#16 = CARTESIAN_POINT('',(0.,0.,0.));
#17 = DIRECTION('',(0.,0.,1.));
#18 = DIRECTION('',(1.,0.,-0.));
#19 = AXIS2_PLACEMENT_3D('',#20,#21,#22);
#20 = CARTESIAN_POINT('',(0.,0.,0.));
#21 = DIRECTION('',(0.,0.,1.));
#22 = DIRECTION('',(1.,0.,-0.));
#23 = ( GEOMETRIC_REPRESENTATION_CONTEXT(3) 
GLOBAL_UNCERTAINTY_ASSIGNED_CONTEXT((#27)) GLOBAL_UNIT_ASSIGNED_CONTEXT(
(#24,#25,#26)) REPRESENTATION_CONTEXT('Context #1',
  '3D Context with UNIT and UNCERTAINTY') );
#24 = ( LENGTH_UNIT() NAMED_UNIT(*) SI_UNIT(.MILLI.,.METRE.) );
#25 = ( NAMED_UNIT(*) PLANE_ANGLE_UNIT() SI_UNIT($,.RADIAN.) );
#26 = ( NAMED_UNIT(*) SI_UNIT($,.STERADIAN.) SOLID_ANGLE_UNIT() );
#27 = UNCERTAINTY_MEASURE_WITH_UNIT(LENGTH_MEASURE(1.E-07),#24,
  'distance_accuracy_value','confusion accuracy');
#28 = PRODUCT_RELATED_PRODUCT_CATEGORY('part',$,(#7));
#29 = SHAPE_DEFINITION_REPRESENTATION(#30,#36);
#30 = PRODUCT_DEFINITION_SHAPE('','',#31);
#31 = PRODUCT_DEFINITION('design','',#32,#35);
#32 = PRODUCT_DEFINITION_FORMATION('','',#33);
#33 = PRODUCT('tube','tube','',(#34));
#34 = PRODUCT_CONTEXT('',#2,'mechanical');
#35 = PRODUCT_DEFINITION_CONTEXT('part definition',#2,'design');
#36 = ADVANCED_BREP_SHAPE_REPRESENTATION('',(#11,#37),#1172);
#37 = MANIFOLD_SOLID_BREP('',#38);
#38 = CLOSED_SHELL('',(#39,#76,#568,#623,#658,#713,#748,#803,#858,#913,
    #968,#1023,#1058,#1113,#1168));
#39 = ADVANCED_FACE('',(#40),#53,.F.);
#40 = FACE_BOUND('',#41,.T.);
#41 = EDGE_LOOP('',(#42));
#42 = ORIENTED_EDGE('',*,*,#43,.F.);
#43 = EDGE_CURVE('',#44,#44,#46,.T.);
#44 = VERTEX_POINT('',#45);
#45 = CARTESIAN_POINT('',(3.5,0.,0.));
#46 = SURFACE_CURVE('',#47,(#52,#64),.PCURVE_S1.);
#47 = CIRCLE('',#48,3.5);
#48 = AXIS2_PLACEMENT_3D('',#49,#50,#51);
#49 = CARTESIAN_POINT('',(0.,0.,0.));
#50 = DIRECTION('',(0.,0.,1.));
#51 = DIRECTION('',(1.,0.,-0.));
#52 = PCURVE('',#53,#58);
#53 = PLANE('',#54);
#54 = AXIS2_PLACEMENT_3D('',#55,#56,#57);
#55 = CARTESIAN_POINT('',(0.,0.,0.));
#56 = DIRECTION('',(0.,0.,1.));
#57 = DIRECTION('',(1.,0.,-0.));
#58 = DEFINITIONAL_REPRESENTATION('',(#59),#63);
#59 = CIRCLE('',#60,3.5);
#60 = AXIS2_PLACEMENT_2D('',#61,#62);
#61 = CARTESIAN_POINT('',(0.,0.));
#62 = DIRECTION('',(1.,-0.));
#63 = ( GEOMETRIC_REPRESENTATION_CONTEXT(2) 
PARAMETRIC_REPRESENTATION_CONTEXT() REPRESENTATION_CONTEXT('2D SPACE',''
  ) );
#64 = PCURVE('',#65,#70);
#65 = CONICAL_SURFACE('',#66,3.5,0.583373006994);
#66 = AXIS2_PLACEMENT_3D('',#67,#68,#69);
#67 = CARTESIAN_POINT('',(0.,0.,0.));
#68 = DIRECTION('',(0.,0.,1.));
#69 = DIRECTION('',(1.,0.,-0.));
#70 = DEFINITIONAL_REPRESENTATION('',(#71),#75);
#71 = LINE('',#72,#73);
#72 = CARTESIAN_POINT('',(0.,0.));
#73 = VECTOR('',#74,1.);
#74 = DIRECTION('',(1.,0.));
#75 = ( GEOMETRIC_REPRESENTATION_CONTEXT(2) 
PARAMETRIC_REPRESENTATION_CONTEXT() REPRESENTATION_CONTEXT('2D SPACE',''
  ) );
#76 = ADVANCED_FACE('',(#77),#65,.T.);
#77 = FACE_BOUND('',#78,.T.);
#78 = EDGE_LOOP('',(#79,#102,#103,#104));
#79 = ORIENTED_EDGE('',*,*,#80,.F.);
#80 = EDGE_CURVE('',#44,#81,#83,.T.);
#81 = VERTEX_POINT('',#82);
#82 = CARTESIAN_POINT('',(13.36,2.474034595265E-16,14.939393939394));
#83 = SEAM_CURVE('',#84,(#88,#95),.PCURVE_S1.);
#84 = LINE('',#85,#86);
#85 = CARTESIAN_POINT('',(3.5,0.,0.));
#86 = VECTOR('',#87,1.);
#87 = DIRECTION('',(0.550842208331,0.,0.834609406562));
#88 = PCURVE('',#65,#89);
#89 = DEFINITIONAL_REPRESENTATION('',(#90),#94);
#90 = LINE('',#91,#92);
#91 = CARTESIAN_POINT('',(0.,0.));
#92 = VECTOR('',#93,1.);
#93 = DIRECTION('',(0.,1.));
#94 = ( GEOMETRIC_REPRESENTATION_CONTEXT(2) 
PARAMETRIC_REPRESENTATION_CONTEXT() REPRESENTATION_CONTEXT('2D SPACE',''
  ) );
#95 = PCURVE('',#65,#96);
#96 = DEFINITIONAL_REPRESENTATION('',(#97),#101);
#97 = LINE('',#98,#99);
#98 = CARTESIAN_POINT('',(6.28318530718,0.));
#99 = VECTOR('',#100,1.);
#100 = DIRECTION('',(0.,1.));
#101 = ( GEOMETRIC_REPRESENTATION_CONTEXT(2) 
PARAMETRIC_REPRESENTATION_CONTEXT() REPRESENTATION_CONTEXT('2D SPACE',''
  ) );
#102 = ORIENTED_EDGE('',*,*,#43,.T.);
#103 = ORIENTED_EDGE('',*,*,#80,.T.);
#104 = ORIENTED_EDGE('',*,*,#105,.F.);
#105 = EDGE_CURVE('',#81,#81,#106,.T.);
#106 = SURFACE_CURVE('',#107,(#257,#410),.PCURVE_S1.);
#107 = B_SPLINE_CURVE_WITH_KNOTS('',8,(#108,#109,#110,#111,#112,#113,
    #114,#115,#116,#117,#118,#119,#120,#121,#122,#123,#124,#125,#126,
    #127,#128,#129,#130,#131,#132,#133,#134,#135,#136,#137,#138,#139,
    #140,#141,#142,#143,#144,#145,#146,#147,#148,#149,#150,#151,#152,
    #153,#154,#155,#156,#157,#158,#159,#160,#161,#162,#163,#164,#165,
    #166,#167,#168,#169,#170,#171,#172,#173,#174,#175,#176,#177,#178,
    #179,#180,#181,#182,#183,#184,#185,#186,#187,#188,#189,#190,#191,
    #192,#193,#194,#195,#196,#197,#198,#199,#200,#201,#202,#203,#204,
    #205,#206,#207,#208,#209,#210,#211,#212,#213,#214,#215,#216,#217,
    #218,#219,#220,#221,#222,#223,#224,#225,#226,#227,#228,#229,#230,
    #231,#232,#233,#234,#235,#236,#237,#238,#239,#240,#241,#242,#243,
    #244,#245,#246,#247,#248,#249,#250,#251,#252,#253,#254,#255,#256),
  .UNSPECIFIED.,.T.,.F.,(9,7,7,7,7,7,7,7,7,7,7,7,7,7,7,7,7,7,7,7,7,9),(
    0.,1.708870065068E-02,4.624046547113E-02,5.729803981688E-02,
    8.846026379625E-02,0.105046624237,0.116104198583,0.134198409362,
    0.213608651918,0.244268261335,0.279451395188,0.294529905066,
    0.311618882314,0.340770647135,0.350320370501,0.36087532786,
    0.368917200204,0.508091047508,0.646763173617,0.785435299726,
    0.924107425834,1.),.UNSPECIFIED.);
#108 = CARTESIAN_POINT('',(13.36,-3.552713678801E-15,14.939393939394));
#109 = CARTESIAN_POINT('',(13.36,0.179288722549,14.939393939394));
#110 = CARTESIAN_POINT('',(13.357250260848,0.358567079913,
    14.939393939394));
#111 = CARTESIAN_POINT('',(13.351751339873,0.53779120457,14.939393939394
    ));
#112 = CARTESIAN_POINT('',(13.343504391848,0.716915670459,
    14.939393939394));
#113 = CARTESIAN_POINT('',(13.332511379664,0.895893512808,
    14.939393939394));
#114 = CARTESIAN_POINT('',(13.31877528502,1.074676247969,14.939393939394
    ));
#115 = CARTESIAN_POINT('',(13.302300319102,1.253213893255,
    14.939393939394));
#116 = CARTESIAN_POINT('',(13.250324720018,1.735518036722,
    14.939393939394));
#117 = CARTESIAN_POINT('',(13.209602581518,2.038724460012,
    14.939393939394));
#118 = CARTESIAN_POINT('',(13.160952011325,2.340830593016,
    14.939393939394));
#119 = CARTESIAN_POINT('',(13.10440807622,2.641594540623,14.939393939394
    ));
#120 = CARTESIAN_POINT('',(13.040014616208,2.94077617623,14.939393939394
    ));
#121 = CARTESIAN_POINT('',(12.967824244519,3.238137141749,
    14.939393939394));
#122 = CARTESIAN_POINT('',(12.887898347606,3.533440847602,
    14.939393939394));
#123 = CARTESIAN_POINT('',(12.767082787998,3.937594897511,
    14.939393939394));
#124 = CARTESIAN_POINT('',(12.732755601695,4.048407635774,
    14.939393939394));
#125 = CARTESIAN_POINT('',(12.697329345181,4.158877912679,
    14.939393939394));
#126 = CARTESIAN_POINT('',(12.660808012851,4.268993012552,
    14.939393939394));
#127 = CARTESIAN_POINT('',(12.623195774554,4.378740278874,
    14.939393939394));
#128 = CARTESIAN_POINT('',(12.584496975587,4.488107114289,
    14.939393939394));
#129 = CARTESIAN_POINT('',(12.544716136698,4.597080980597,
    14.939393939394));
#130 = CARTESIAN_POINT('',(12.388712281253,5.011614636524,
    14.939393939394));
#131 = CARTESIAN_POINT('',(12.265009847704,5.31436057212,14.939393939394
    ));
#132 = CARTESIAN_POINT('',(12.132856197383,5.613606901868,
    14.939393939394));
#133 = CARTESIAN_POINT('',(11.992367357731,5.909078487692,
    14.939393939394));
#134 = CARTESIAN_POINT('',(11.843669839684,6.200505357117,
    14.939393939394));
#135 = CARTESIAN_POINT('',(11.686900637671,6.487622703269,
    14.939393939394));
#136 = CARTESIAN_POINT('',(11.522207229618,6.770170884877,
    14.939393939394));
#137 = CARTESIAN_POINT('',(11.25795445067,7.195716690563,14.939393939394
    ));
#138 = CARTESIAN_POINT('',(11.163961016128,7.342171664113,
    14.939393939394));
#139 = CARTESIAN_POINT('',(11.067791029177,7.487222093348,
    14.939393939394));
#140 = CARTESIAN_POINT('',(10.969469015247,7.630830260042,
    14.939393939394));
#141 = CARTESIAN_POINT('',(10.869020269345,7.772958981316,
    14.939393939394));
#142 = CARTESIAN_POINT('',(10.766470856045,7.913571609638,
    14.939393939394));
#143 = CARTESIAN_POINT('',(10.661847609498,8.052632032823,
    14.939393939394));
#144 = CARTESIAN_POINT('',(10.484065144754,8.281753107468,
    14.939393939394));
#145 = CARTESIAN_POINT('',(10.412042708003,8.372695876754,
    14.939393939394));
#146 = CARTESIAN_POINT('',(10.33911899708,8.462922447759,14.939393939394
    ));
#147 = CARTESIAN_POINT('',(10.265302328145,8.552422404867,
    14.939393939394));
#148 = CARTESIAN_POINT('',(10.190601159614,8.64118545098,14.939393939394
    ));
#149 = CARTESIAN_POINT('',(10.115024092158,8.729201407515,
    14.939393939394));
#150 = CARTESIAN_POINT('',(10.038579868699,8.816460214409,
    14.939393939394));
#151 = CARTESIAN_POINT('',(9.834782396259,9.044483814572,14.939393939394
    ));
#152 = CARTESIAN_POINT('',(9.705989191634,9.183961720841,14.939393939394
    ));
#153 = CARTESIAN_POINT('',(9.574936728356,9.321342051859,14.939393939394
    ));
#154 = CARTESIAN_POINT('',(9.441664912383,9.456582150189,14.939393939394
    ));
#155 = CARTESIAN_POINT('',(9.306214587814,9.589640298016,14.939393939394
    ));
#156 = CARTESIAN_POINT('',(9.168627536892,9.720475717152,14.939393939394
    ));
#157 = CARTESIAN_POINT('',(9.02894648,9.84904856903,14.939393939394));
#158 = CARTESIAN_POINT('',(8.265197053811,10.529488439157,
    14.939393939394));
#159 = CARTESIAN_POINT('',(7.603620411148,11.039388705722,
    14.939393939394));
#160 = CARTESIAN_POINT('',(6.906255590262,11.501633301082,
    14.939393939394));
#161 = CARTESIAN_POINT('',(6.177136957049,11.913324738007,
    14.939393939394));
#162 = CARTESIAN_POINT('',(5.420525914158,12.271993875672,
    14.939393939394));
#163 = CARTESIAN_POINT('',(4.640896011874,12.575580724556,
    14.939393939394));
#164 = CARTESIAN_POINT('',(3.842940056427,12.822457675944,
    14.939393939394));
#165 = CARTESIAN_POINT('',(2.718347518225,13.084480895869,
    14.939393939394));
#166 = CARTESIAN_POINT('',(2.403086894394,13.148847881608,
    14.939393939394));
#167 = CARTESIAN_POINT('',(2.086095132702,13.204531438711,
    14.939393939394));
#168 = CARTESIAN_POINT('',(1.767651469553,13.251477747327,
    14.939393939394));
#169 = CARTESIAN_POINT('',(1.448036589285,13.289643842281,
    14.939393939394));
#170 = CARTESIAN_POINT('',(1.127532624173,13.318997613075,
    14.939393939394));
#171 = CARTESIAN_POINT('',(0.806423154427,13.339517803887,
    14.939393939394));
#172 = CARTESIAN_POINT('',(0.116139428323,13.364592933388,
    14.939393939394));
#173 = CARTESIAN_POINT('',(-0.253138976078,13.366345727476,
    14.939393939394));
#174 = CARTESIAN_POINT('',(-0.622410735841,13.356436837551,
    14.939393939394));
#175 = CARTESIAN_POINT('',(-0.991245989847,13.334869647311,
    14.939393939394));
#176 = CARTESIAN_POINT('',(-1.359216285027,13.301666482441,
    14.939393939394));
#177 = CARTESIAN_POINT('',(-1.725894576364,13.256868610607,
    14.939393939394));
#178 = CARTESIAN_POINT('',(-2.090855226887,13.200536241463,
    14.939393939394));
#179 = CARTESIAN_POINT('',(-2.60916801777,13.103696602734,
    14.939393939394));
#180 = CARTESIAN_POINT('',(-2.764268930268,13.072540587354,
    14.939393939394));
#181 = CARTESIAN_POINT('',(-2.918943496034,13.039286693328,
    14.939393939394));
#182 = CARTESIAN_POINT('',(-3.073158613184,13.003941756595,
    14.939393939394));
#183 = CARTESIAN_POINT('',(-3.226881327094,12.966513236206,
    14.939393939394));
#184 = CARTESIAN_POINT('',(-3.380078830395,12.927009214322,
    14.939393939394));
#185 = CARTESIAN_POINT('',(-3.532718462976,12.885438396221,
    14.939393939394));
#186 = CARTESIAN_POINT('',(-3.857090187994,12.792364721345,
    14.939393939394));
#187 = CARTESIAN_POINT('',(-4.028654417734,12.740276609316,
    14.939393939394));
#188 = CARTESIAN_POINT('',(-4.199413059719,12.685559359616,
    14.939393939394));
#189 = CARTESIAN_POINT('',(-4.369319117881,12.62822755597,
    14.939393939394));
#190 = CARTESIAN_POINT('',(-4.538325941563,12.568296780416,
    14.939393939394));
#191 = CARTESIAN_POINT('',(-4.706387225521,12.505783613307,
    14.939393939394));
#192 = CARTESIAN_POINT('',(-4.873457009923,12.440705633309,
    14.939393939394));
#193 = CARTESIAN_POINT('',(-5.322721689534,12.257722539586,
    14.939393939394));
#194 = CARTESIAN_POINT('',(-5.602936337064,12.134953736554,
    14.939393939394));
#195 = CARTESIAN_POINT('',(-5.879906662137,12.004867485905,
    14.939393939394));
#196 = CARTESIAN_POINT('',(-6.153409823574,11.867564210413,
    14.939393939394));
#197 = CARTESIAN_POINT('',(-6.423227099819,11.723152278024,
    14.939393939394));
#198 = CARTESIAN_POINT('',(-6.689143888943,11.571748001859,
    14.939393939394));
#199 = CARTESIAN_POINT('',(-6.950949708639,11.413475640211,
    14.939393939394));
#200 = CARTESIAN_POINT('',(-7.292787937711,11.194412930554,
    14.939393939394));
#201 = CARTESIAN_POINT('',(-7.37667443272,11.139635583458,
    14.939393939394));
#202 = CARTESIAN_POINT('',(-7.46009045084,11.08413998883,14.939393939394
    ));
#203 = CARTESIAN_POINT('',(-7.543028819812,11.027930865255,
    14.939393939394));
#204 = CARTESIAN_POINT('',(-7.625482425527,10.971013016338,
    14.939393939394));
#205 = CARTESIAN_POINT('',(-7.707444212029,10.913391330702,
    14.939393939394));
#206 = CARTESIAN_POINT('',(-7.788907181514,10.855070781987,
    14.939393939394));
#207 = CARTESIAN_POINT('',(-7.959343418623,10.730830038826,
    14.939393939394));
#208 = CARTESIAN_POINT('',(-8.048204612557,10.664756088793,
    14.939393939394));
#209 = CARTESIAN_POINT('',(-8.136438605503,10.597841409636,
    14.939393939394));
#210 = CARTESIAN_POINT('',(-8.224036121451,10.530092953383,
    14.939393939394));
#211 = CARTESIAN_POINT('',(-8.310987979007,10.461517793213,
    14.939393939394));
#212 = CARTESIAN_POINT('',(-8.397285091393,10.392123123448,
    14.939393939394));
#213 = CARTESIAN_POINT('',(-8.482918466447,10.32191625956,
    14.939393939394));
#214 = CARTESIAN_POINT('',(-8.632611199708,10.196800545195,
    14.939393939394));
#215 = CARTESIAN_POINT('',(-8.696952731464,10.142229289372,
    14.939393939394));
#216 = CARTESIAN_POINT('',(-8.760899867459,10.087194159179,
    14.939393939394));
#217 = CARTESIAN_POINT('',(-8.824448707471,10.031698481993,
    14.939393939394));
#218 = CARTESIAN_POINT('',(-8.887595385491,9.975745624083,
    14.939393939394));
#219 = CARTESIAN_POINT('',(-8.950336069718,9.919338990608,
    14.939393939394));
#220 = CARTESIAN_POINT('',(-9.012666962566,9.86248202562,14.939393939394
    ));
#221 = CARTESIAN_POINT('',(-10.14613502768,8.813469831599,
    14.939393939394));
#222 = CARTESIAN_POINT('',(-11.09488459457,7.686947597146,
    14.939393939394));
#223 = CARTESIAN_POINT('',(-11.89922522078,6.444756603798,
    14.939393939394));
#224 = CARTESIAN_POINT('',(-12.5435757711,5.108931115817,14.939393939394
    ));
#225 = CARTESIAN_POINT('',(-13.01590994135,3.703044279472,
    14.939393939394));
#226 = CARTESIAN_POINT('',(-13.30836149506,2.252363612907,
    14.939393939394));
#227 = CARTESIAN_POINT('',(-13.41668261934,0.783539382727,
    14.939393939394));
#228 = CARTESIAN_POINT('',(-13.26949468522,-2.127551500533,
    14.939393939394));
#229 = CARTESIAN_POINT('',(-13.01515183031,-3.572743048857,
    14.939393939394));
#230 = CARTESIAN_POINT('',(-12.58075637086,-4.981680837415,
    14.939393939394));
#231 = CARTESIAN_POINT('',(-11.97312102497,-6.32855498472,
    14.939393939394));
#232 = CARTESIAN_POINT('',(-11.20247978142,-7.589270160928,
    14.939393939394));
#233 = CARTESIAN_POINT('',(-10.28297778058,-8.741798328904,
    14.939393939394));
#234 = CARTESIAN_POINT('',(-9.232103922877,-9.765972647198,
    14.939393939394));
#235 = CARTESIAN_POINT('',(-6.913823076146,-11.52410582476,
    14.939393939394));
#236 = CARTESIAN_POINT('',(-5.644156038679,-12.25977865503,
    14.939393939394));
#237 = CARTESIAN_POINT('',(-4.286327503907,-12.83432784988,
    14.939393939394));
#238 = CARTESIAN_POINT('',(-2.864474137975,-13.23635233687,
    14.939393939394));
#239 = CARTESIAN_POINT('',(-1.403622905514,-13.45817289115,
    14.939393939394));
#240 = CARTESIAN_POINT('',(7.026351764565E-02,-13.4964340882,
    14.939393939394));
#241 = CARTESIAN_POINT('',(1.530494272989,-13.35153743465,
    14.939393939394));
#242 = CARTESIAN_POINT('',(4.368255447441,-12.70922141338,
    14.939393939394));
#243 = CARTESIAN_POINT('',(5.748552346576,-12.21117586385,
    14.939393939394));
#244 = CARTESIAN_POINT('',(7.062300641896,-11.54194457066,
    14.939393939394));
#245 = CARTESIAN_POINT('',(8.285238168857,-10.71265904239,
    14.939393939394));
#246 = CARTESIAN_POINT('',(9.395377814267,-9.73752794892,14.939393939394
    ));
#247 = CARTESIAN_POINT('',(10.373438929698,-8.634259367841,
    14.939393939394));
#248 = CARTESIAN_POINT('',(11.202547124258,-7.423537062438,
    14.939393939394));
#249 = CARTESIAN_POINT('',(12.235519636502,-5.423609919699,
    14.939393939394));
#250 = CARTESIAN_POINT('',(12.552741820739,-4.691278792766,
    14.939393939394));
#251 = CARTESIAN_POINT('',(12.819778690054,-3.937915031121,
    14.939393939394));
#252 = CARTESIAN_POINT('',(13.035035368854,-3.167548128821,
    14.939393939394));
#253 = CARTESIAN_POINT('',(13.197309708838,-2.38430637782,
    14.939393939394));
#254 = CARTESIAN_POINT('',(13.305775299138,-1.592409375266,
    14.939393939394));
#255 = CARTESIAN_POINT('',(13.36,-0.796169163105,14.939393939394));
#256 = CARTESIAN_POINT('',(13.36,-3.552713678801E-15,14.939393939394));
#257 = PCURVE('',#65,#258);
#258 = DEFINITIONAL_REPRESENTATION('',(#259),#409);
#259 = B_SPLINE_CURVE_WITH_KNOTS('',8,(#260,#261,#262,#263,#264,#265,
    #266,#267,#268,#269,#270,#271,#272,#273,#274,#275,#276,#277,#278,
    #279,#280,#281,#282,#283,#284,#285,#286,#287,#288,#289,#290,#291,
    #292,#293,#294,#295,#296,#297,#298,#299,#300,#301,#302,#303,#304,
    #305,#306,#307,#308,#309,#310,#311,#312,#313,#314,#315,#316,#317,
    #318,#319,#320,#321,#322,#323,#324,#325,#326,#327,#328,#329,#330,
    #331,#332,#333,#334,#335,#336,#337,#338,#339,#340,#341,#342,#343,
    #344,#345,#346,#347,#348,#349,#350,#351,#352,#353,#354,#355,#356,
    #357,#358,#359,#360,#361,#362,#363,#364,#365,#366,#367,#368,#369,
    #370,#371,#372,#373,#374,#375,#376,#377,#378,#379,#380,#381,#382,
    #383,#384,#385,#386,#387,#388,#389,#390,#391,#392,#393,#394,#395,
    #396,#397,#398,#399,#400,#401,#402,#403,#404,#405,#406,#407,#408),
  .UNSPECIFIED.,.F.,.F.,(9,7,7,7,7,7,7,7,7,7,7,7,7,7,7,7,7,7,7,7,7,9),(
    0.,1.708870065068E-02,4.624046547113E-02,5.729803981688E-02,
    8.846026379625E-02,0.105046624237,0.116104198583,0.134198409362,
    0.213608651918,0.244268261335,0.279451395188,0.294529905066,
    0.311618882314,0.340770647135,0.350320370501,0.36087532786,
    0.368917200204,0.508091047508,0.646763173617,0.785435299726,
    0.924107425834,1.),.UNSPECIFIED.);
#260 = CARTESIAN_POINT('',(3.70364460369E-17,14.939393939394));
#261 = CARTESIAN_POINT('',(1.341981456209E-02,14.939393939394));
#262 = CARTESIAN_POINT('',(2.683885375436E-02,14.939393939394));
#263 = CARTESIAN_POINT('',(4.025751542566E-02,14.939393939394));
#264 = CARTESIAN_POINT('',(5.367608131538E-02,14.939393939394));
#265 = CARTESIAN_POINT('',(6.709471610224E-02,14.939393939394));
#266 = CARTESIAN_POINT('',(8.051346645298E-02,14.939393939394));
#267 = CARTESIAN_POINT('',(9.393226007115E-02,14.939393939394));
#268 = CARTESIAN_POINT('',(0.13024188878,14.939393939394));
#269 = CARTESIAN_POINT('',(0.153132887997,14.939393939394));
#270 = CARTESIAN_POINT('',(0.176023897336,14.939393939394));
#271 = CARTESIAN_POINT('',(0.198914911735,14.939393939394));
#272 = CARTESIAN_POINT('',(0.221805926134,14.939393939394));
#273 = CARTESIAN_POINT('',(0.244696935473,14.939393939394));
#274 = CARTESIAN_POINT('',(0.267587934689,14.939393939394));
#275 = CARTESIAN_POINT('',(0.299161712351,14.939393939394));
#276 = CARTESIAN_POINT('',(0.307844506098,14.939393939394));
#277 = CARTESIAN_POINT('',(0.316527299923,14.939393939394));
#278 = CARTESIAN_POINT('',(0.325210093789,14.939393939394));
#279 = CARTESIAN_POINT('',(0.333892887654,14.939393939394));
#280 = CARTESIAN_POINT('',(0.34257568148,14.939393939394));
#281 = CARTESIAN_POINT('',(0.351258475226,14.939393939394));
#282 = CARTESIAN_POINT('',(0.384410935647,14.939393939394));
#283 = CARTESIAN_POINT('',(0.408880623637,14.939393939394));
#284 = CARTESIAN_POINT('',(0.433350325758,14.939393939394));
#285 = CARTESIAN_POINT('',(0.457820034945,14.939393939394));
#286 = CARTESIAN_POINT('',(0.482289744132,14.939393939394));
#287 = CARTESIAN_POINT('',(0.506759446254,14.939393939394));
#288 = CARTESIAN_POINT('',(0.531229134244,14.939393939394));
#289 = CARTESIAN_POINT('',(0.568722990631,14.939393939394));
#290 = CARTESIAN_POINT('',(0.58174718113,14.939393939394));
#291 = CARTESIAN_POINT('',(0.594771372231,14.939393939394));
#292 = CARTESIAN_POINT('',(0.607795563634,14.939393939394));
#293 = CARTESIAN_POINT('',(0.620819755037,14.939393939394));
#294 = CARTESIAN_POINT('',(0.633843946138,14.939393939394));
#295 = CARTESIAN_POINT('',(0.646868136637,14.939393939394));
#296 = CARTESIAN_POINT('',(0.668575119859,14.939393939394));
#297 = CARTESIAN_POINT('',(0.677257913605,14.939393939394));
#298 = CARTESIAN_POINT('',(0.685940707431,14.939393939394));
#299 = CARTESIAN_POINT('',(0.694623501296,14.939393939394));
#300 = CARTESIAN_POINT('',(0.703306295162,14.939393939394));
#301 = CARTESIAN_POINT('',(0.711989088987,14.939393939394));
#302 = CARTESIAN_POINT('',(0.720671882734,14.939393939394));
#303 = CARTESIAN_POINT('',(0.743562882712,14.939393939394));
#304 = CARTESIAN_POINT('',(0.75777109046,14.939393939394));
#305 = CARTESIAN_POINT('',(0.77197929914,14.939393939394));
#306 = CARTESIAN_POINT('',(0.786187508285,14.939393939394));
#307 = CARTESIAN_POINT('',(0.800395717431,14.939393939394));
#308 = CARTESIAN_POINT('',(0.81460392611,14.939393939394));
#309 = CARTESIAN_POINT('',(0.828812133858,14.939393939394));
#310 = CARTESIAN_POINT('',(0.905376036536,14.939393939394));
#311 = CARTESIAN_POINT('',(0.967738294559,14.939393939394));
#312 = CARTESIAN_POINT('',(1.030097633475,14.939393939394));
#313 = CARTESIAN_POINT('',(1.092453324766,14.939393939394));
#314 = CARTESIAN_POINT('',(1.154809016057,14.939393939394));
#315 = CARTESIAN_POINT('',(1.217168354973,14.939393939394));
#316 = CARTESIAN_POINT('',(1.279530612996,14.939393939394));
#317 = CARTESIAN_POINT('',(1.365961305604,14.939393939394));
#318 = CARTESIAN_POINT('',(1.390036321426,14.939393939394));
#319 = CARTESIAN_POINT('',(1.414111350276,14.939393939394));
#320 = CARTESIAN_POINT('',(1.438186385638,14.939393939394));
#321 = CARTESIAN_POINT('',(1.462261421001,14.939393939394));
#322 = CARTESIAN_POINT('',(1.48633644985,14.939393939394));
#323 = CARTESIAN_POINT('',(1.510411465673,14.939393939394));
#324 = CARTESIAN_POINT('',(1.562113487634,14.939393939394));
#325 = CARTESIAN_POINT('',(1.589740552224,14.939393939394));
#326 = CARTESIAN_POINT('',(1.617367642753,14.939393939394));
#327 = CARTESIAN_POINT('',(1.644994746252,14.939393939394));
#328 = CARTESIAN_POINT('',(1.67262184975,14.939393939394));
#329 = CARTESIAN_POINT('',(1.700248940279,14.939393939394));
#330 = CARTESIAN_POINT('',(1.727876004869,14.939393939394));
#331 = CARTESIAN_POINT('',(1.767343203211,14.939393939394));
#332 = CARTESIAN_POINT('',(1.779183376435,14.939393939394));
#333 = CARTESIAN_POINT('',(1.791023550033,14.939393939394));
#334 = CARTESIAN_POINT('',(1.802863723819,14.939393939394));
#335 = CARTESIAN_POINT('',(1.814703897604,14.939393939394));
#336 = CARTESIAN_POINT('',(1.826544071202,14.939393939394));
#337 = CARTESIAN_POINT('',(1.838384244426,14.939393939394));
#338 = CARTESIAN_POINT('',(1.863643278958,14.939393939394));
#339 = CARTESIAN_POINT('',(1.877062141876,14.939393939394));
#340 = CARTESIAN_POINT('',(1.890481005494,14.939393939394));
#341 = CARTESIAN_POINT('',(1.903899869462,14.939393939394));
#342 = CARTESIAN_POINT('',(1.91731873343,14.939393939394));
#343 = CARTESIAN_POINT('',(1.930737597048,14.939393939394));
#344 = CARTESIAN_POINT('',(1.944156459966,14.939393939394));
#345 = CARTESIAN_POINT('',(1.980466305869,14.939393939394));
#346 = CARTESIAN_POINT('',(2.003357305086,14.939393939394));
#347 = CARTESIAN_POINT('',(2.026248314425,14.939393939394));
#348 = CARTESIAN_POINT('',(2.049139328824,14.939393939394));
#349 = CARTESIAN_POINT('',(2.072030343223,14.939393939394));
#350 = CARTESIAN_POINT('',(2.094921352562,14.939393939394));
#351 = CARTESIAN_POINT('',(2.117812351778,14.939393939394));
#352 = CARTESIAN_POINT('',(2.148202112181,14.939393939394));
#353 = CARTESIAN_POINT('',(2.155700888606,14.939393939394));
#354 = CARTESIAN_POINT('',(2.163199665069,14.939393939394));
#355 = CARTESIAN_POINT('',(2.170698441551,14.939393939394));
#356 = CARTESIAN_POINT('',(2.178197218033,14.939393939394));
#357 = CARTESIAN_POINT('',(2.185695994496,14.939393939394));
#358 = CARTESIAN_POINT('',(2.193194770921,14.939393939394));
#359 = CARTESIAN_POINT('',(2.208981668501,14.939393939394));
#360 = CARTESIAN_POINT('',(2.217269789807,14.939393939394));
#361 = CARTESIAN_POINT('',(2.225557911177,14.939393939394));
#362 = CARTESIAN_POINT('',(2.233846032578,14.939393939394));
#363 = CARTESIAN_POINT('',(2.242134153979,14.939393939394));
#364 = CARTESIAN_POINT('',(2.250422275348,14.939393939394));
#365 = CARTESIAN_POINT('',(2.258710396655,14.939393939394));
#366 = CARTESIAN_POINT('',(2.273313276941,14.939393939394));
#367 = CARTESIAN_POINT('',(2.27962803604,14.939393939394));
#368 = CARTESIAN_POINT('',(2.285942795155,14.939393939394));
#369 = CARTESIAN_POINT('',(2.292257554278,14.939393939394));
#370 = CARTESIAN_POINT('',(2.2985723134,14.939393939394));
#371 = CARTESIAN_POINT('',(2.304887072515,14.939393939394));
#372 = CARTESIAN_POINT('',(2.311201831614,14.939393939394));
#373 = CARTESIAN_POINT('',(2.426800757059,14.939393939394));
#374 = CARTESIAN_POINT('',(2.536192807938,14.939393939394));
#375 = CARTESIAN_POINT('',(2.64552285331,14.939393939394));
#376 = CARTESIAN_POINT('',(2.754813658556,14.939393939394));
#377 = CARTESIAN_POINT('',(2.86410446378,14.939393939394));
#378 = CARTESIAN_POINT('',(2.973434509167,14.939393939394));
#379 = CARTESIAN_POINT('',(3.082826560039,14.939393939394));
#380 = CARTESIAN_POINT('',(3.301000923776,14.939393939394));
#381 = CARTESIAN_POINT('',(3.409997079828,14.939393939394));
#382 = CARTESIAN_POINT('',(3.518932427423,14.939393939394));
#383 = CARTESIAN_POINT('',(3.627829104498,14.939393939394));
#384 = CARTESIAN_POINT('',(3.736725781571,14.939393939394));
#385 = CARTESIAN_POINT('',(3.845661129167,14.939393939394));
#386 = CARTESIAN_POINT('',(3.954657285218,14.939393939394));
#387 = CARTESIAN_POINT('',(4.172437679948,14.939393939394));
#388 = CARTESIAN_POINT('',(4.281433836001,14.939393939394));
#389 = CARTESIAN_POINT('',(4.390369183593,14.939393939394));
#390 = CARTESIAN_POINT('',(4.49926586067,14.939393939394));
#391 = CARTESIAN_POINT('',(4.608162537742,14.939393939394));
#392 = CARTESIAN_POINT('',(4.717097885339,14.939393939394));
#393 = CARTESIAN_POINT('',(4.826094041389,14.939393939394));
#394 = CARTESIAN_POINT('',(5.04387443612,14.939393939394));
#395 = CARTESIAN_POINT('',(5.15287059217,14.939393939394));
#396 = CARTESIAN_POINT('',(5.261805939771,14.939393939394));
#397 = CARTESIAN_POINT('',(5.370702616835,14.939393939394));
#398 = CARTESIAN_POINT('',(5.479599293919,14.939393939394));
#399 = CARTESIAN_POINT('',(5.588534641509,14.939393939394));
#400 = CARTESIAN_POINT('',(5.697530797561,14.939393939394));
#401 = CARTESIAN_POINT('',(5.866014495159,14.939393939394));
#402 = CARTESIAN_POINT('',(5.925613241621,14.939393939394));
#403 = CARTESIAN_POINT('',(5.985209654423,14.939393939394));
#404 = CARTESIAN_POINT('',(6.044803151053,14.939393939394));
#405 = CARTESIAN_POINT('',(6.104396647683,14.939393939394));
#406 = CARTESIAN_POINT('',(6.163993060485,14.939393939394));
#407 = CARTESIAN_POINT('',(6.223591806947,14.939393939394));
#408 = CARTESIAN_POINT('',(6.28318530718,14.939393939394));
#409 = ( GEOMETRIC_REPRESENTATION_CONTEXT(2) 
PARAMETRIC_REPRESENTATION_CONTEXT() REPRESENTATION_CONTEXT('2D SPACE',''
  ) );
#410 = PCURVE('',#411,#416);
#411 = CYLINDRICAL_SURFACE('',#412,13.36);
#412 = AXIS2_PLACEMENT_3D('',#413,#414,#415);
#413 = CARTESIAN_POINT('',(6.803595136979E-14,4.94806919053E-16,0.));
#414 = DIRECTION('',(-0.,-0.,-1.));
#415 = DIRECTION('',(1.,0.,0.));
#416 = DEFINITIONAL_REPRESENTATION('',(#417),#567);
#417 = B_SPLINE_CURVE_WITH_KNOTS('',8,(#418,#419,#420,#421,#422,#423,
    #424,#425,#426,#427,#428,#429,#430,#431,#432,#433,#434,#435,#436,
    #437,#438,#439,#440,#441,#442,#443,#444,#445,#446,#447,#448,#449,
    #450,#451,#452,#453,#454,#455,#456,#457,#458,#459,#460,#461,#462,
    #463,#464,#465,#466,#467,#468,#469,#470,#471,#472,#473,#474,#475,
    #476,#477,#478,#479,#480,#481,#482,#483,#484,#485,#486,#487,#488,
    #489,#490,#491,#492,#493,#494,#495,#496,#497,#498,#499,#500,#501,
    #502,#503,#504,#505,#506,#507,#508,#509,#510,#511,#512,#513,#514,
    #515,#516,#517,#518,#519,#520,#521,#522,#523,#524,#525,#526,#527,
    #528,#529,#530,#531,#532,#533,#534,#535,#536,#537,#538,#539,#540,
    #541,#542,#543,#544,#545,#546,#547,#548,#549,#550,#551,#552,#553,
    #554,#555,#556,#557,#558,#559,#560,#561,#562,#563,#564,#565,#566),
  .UNSPECIFIED.,.F.,.F.,(9,7,7,7,7,7,7,7,7,7,7,7,7,7,7,7,7,7,7,7,7,9),(
    0.,1.708870065068E-02,4.624046547113E-02,5.729803981688E-02,
    8.846026379625E-02,0.105046624237,0.116104198583,0.134198409362,
    0.213608651918,0.244268261335,0.279451395188,0.294529905066,
    0.311618882314,0.340770647135,0.350320370501,0.36087532786,
    0.368917200204,0.508091047508,0.646763173617,0.785435299726,
    0.924107425834,1.),.UNSPECIFIED.);
#418 = CARTESIAN_POINT('',(0.,-14.93939393939));
#419 = CARTESIAN_POINT('',(-1.341981456209E-02,-14.93939393939));
#420 = CARTESIAN_POINT('',(-2.683885375436E-02,-14.93939393939));
#421 = CARTESIAN_POINT('',(-4.025751542566E-02,-14.93939393939));
#422 = CARTESIAN_POINT('',(-5.367608131538E-02,-14.93939393939));
#423 = CARTESIAN_POINT('',(-6.709471610224E-02,-14.93939393939));
#424 = CARTESIAN_POINT('',(-8.051346645298E-02,-14.93939393939));
#425 = CARTESIAN_POINT('',(-9.393226007115E-02,-14.93939393939));
#426 = CARTESIAN_POINT('',(-0.13024188878,-14.93939393939));
#427 = CARTESIAN_POINT('',(-0.153132887997,-14.93939393939));
#428 = CARTESIAN_POINT('',(-0.176023897336,-14.93939393939));
#429 = CARTESIAN_POINT('',(-0.198914911735,-14.93939393939));
#430 = CARTESIAN_POINT('',(-0.221805926134,-14.93939393939));
#431 = CARTESIAN_POINT('',(-0.244696935473,-14.93939393939));
#432 = CARTESIAN_POINT('',(-0.267587934689,-14.93939393939));
#433 = CARTESIAN_POINT('',(-0.299161712351,-14.93939393939));
#434 = CARTESIAN_POINT('',(-0.307844506098,-14.93939393939));
#435 = CARTESIAN_POINT('',(-0.316527299923,-14.93939393939));
#436 = CARTESIAN_POINT('',(-0.325210093789,-14.93939393939));
#437 = CARTESIAN_POINT('',(-0.333892887654,-14.93939393939));
#438 = CARTESIAN_POINT('',(-0.34257568148,-14.93939393939));
#439 = CARTESIAN_POINT('',(-0.351258475226,-14.93939393939));
#440 = CARTESIAN_POINT('',(-0.384410935647,-14.93939393939));
#441 = CARTESIAN_POINT('',(-0.408880623637,-14.93939393939));
#442 = CARTESIAN_POINT('',(-0.433350325758,-14.93939393939));
#443 = CARTESIAN_POINT('',(-0.457820034945,-14.93939393939));
#444 = CARTESIAN_POINT('',(-0.482289744132,-14.93939393939));
#445 = CARTESIAN_POINT('',(-0.506759446254,-14.93939393939));
#446 = CARTESIAN_POINT('',(-0.531229134244,-14.93939393939));
#447 = CARTESIAN_POINT('',(-0.568722990631,-14.93939393939));
#448 = CARTESIAN_POINT('',(-0.58174718113,-14.93939393939));
#449 = CARTESIAN_POINT('',(-0.594771372231,-14.93939393939));
#450 = CARTESIAN_POINT('',(-0.607795563634,-14.93939393939));
#451 = CARTESIAN_POINT('',(-0.620819755037,-14.93939393939));
#452 = CARTESIAN_POINT('',(-0.633843946138,-14.93939393939));
#453 = CARTESIAN_POINT('',(-0.646868136637,-14.93939393939));
#454 = CARTESIAN_POINT('',(-0.668575119859,-14.93939393939));
#455 = CARTESIAN_POINT('',(-0.677257913605,-14.93939393939));
#456 = CARTESIAN_POINT('',(-0.685940707431,-14.93939393939));
#457 = CARTESIAN_POINT('',(-0.694623501296,-14.93939393939));
#458 = CARTESIAN_POINT('',(-0.703306295162,-14.93939393939));
#459 = CARTESIAN_POINT('',(-0.711989088987,-14.93939393939));
#460 = CARTESIAN_POINT('',(-0.720671882734,-14.93939393939));
#461 = CARTESIAN_POINT('',(-0.743562882712,-14.93939393939));
#462 = CARTESIAN_POINT('',(-0.75777109046,-14.93939393939));
#463 = CARTESIAN_POINT('',(-0.77197929914,-14.93939393939));
#464 = CARTESIAN_POINT('',(-0.786187508285,-14.93939393939));
#465 = CARTESIAN_POINT('',(-0.800395717431,-14.93939393939));
#466 = CARTESIAN_POINT('',(-0.81460392611,-14.93939393939));
#467 = CARTESIAN_POINT('',(-0.828812133858,-14.93939393939));
#468 = CARTESIAN_POINT('',(-0.905376036536,-14.93939393939));
#469 = CARTESIAN_POINT('',(-0.967738294559,-14.93939393939));
#470 = CARTESIAN_POINT('',(-1.030097633475,-14.93939393939));
#471 = CARTESIAN_POINT('',(-1.092453324766,-14.93939393939));
#472 = CARTESIAN_POINT('',(-1.154809016057,-14.93939393939));
#473 = CARTESIAN_POINT('',(-1.217168354973,-14.93939393939));
#474 = CARTESIAN_POINT('',(-1.279530612996,-14.93939393939));
#475 = CARTESIAN_POINT('',(-1.365961305604,-14.93939393939));
#476 = CARTESIAN_POINT('',(-1.390036321426,-14.93939393939));
#477 = CARTESIAN_POINT('',(-1.414111350276,-14.93939393939));
#478 = CARTESIAN_POINT('',(-1.438186385638,-14.93939393939));
#479 = CARTESIAN_POINT('',(-1.462261421001,-14.93939393939));
#480 = CARTESIAN_POINT('',(-1.48633644985,-14.93939393939));
#481 = CARTESIAN_POINT('',(-1.510411465673,-14.93939393939));
#482 = CARTESIAN_POINT('',(-1.562113487634,-14.93939393939));
#483 = CARTESIAN_POINT('',(-1.589740552224,-14.93939393939));
#484 = CARTESIAN_POINT('',(-1.617367642753,-14.93939393939));
#485 = CARTESIAN_POINT('',(-1.644994746252,-14.93939393939));
#486 = CARTESIAN_POINT('',(-1.67262184975,-14.93939393939));
#487 = CARTESIAN_POINT('',(-1.700248940279,-14.93939393939));
#488 = CARTESIAN_POINT('',(-1.727876004869,-14.93939393939));
#489 = CARTESIAN_POINT('',(-1.767343203211,-14.93939393939));
#490 = CARTESIAN_POINT('',(-1.779183376435,-14.93939393939));
#491 = CARTESIAN_POINT('',(-1.791023550033,-14.93939393939));
#492 = CARTESIAN_POINT('',(-1.802863723819,-14.93939393939));
#493 = CARTESIAN_POINT('',(-1.814703897604,-14.93939393939));
#494 = CARTESIAN_POINT('',(-1.826544071202,-14.93939393939));
#495 = CARTESIAN_POINT('',(-1.838384244426,-14.93939393939));
#496 = CARTESIAN_POINT('',(-1.863643278958,-14.93939393939));
#497 = CARTESIAN_POINT('',(-1.877062141876,-14.93939393939));
#498 = CARTESIAN_POINT('',(-1.890481005494,-14.93939393939));
#499 = CARTESIAN_POINT('',(-1.903899869462,-14.93939393939));
#500 = CARTESIAN_POINT('',(-1.91731873343,-14.93939393939));
#501 = CARTESIAN_POINT('',(-1.930737597048,-14.93939393939));
#502 = CARTESIAN_POINT('',(-1.944156459966,-14.93939393939));
#503 = CARTESIAN_POINT('',(-1.980466305869,-14.93939393939));
#504 = CARTESIAN_POINT('',(-2.003357305086,-14.93939393939));
#505 = CARTESIAN_POINT('',(-2.026248314425,-14.93939393939));
#506 = CARTESIAN_POINT('',(-2.049139328824,-14.93939393939));
#507 = CARTESIAN_POINT('',(-2.072030343223,-14.93939393939));
#508 = CARTESIAN_POINT('',(-2.094921352562,-14.93939393939));
#509 = CARTESIAN_POINT('',(-2.117812351778,-14.93939393939));
#510 = CARTESIAN_POINT('',(-2.148202112181,-14.93939393939));
#511 = CARTESIAN_POINT('',(-2.155700888606,-14.93939393939));
#512 = CARTESIAN_POINT('',(-2.163199665069,-14.93939393939));
#513 = CARTESIAN_POINT('',(-2.170698441551,-14.93939393939));
#514 = CARTESIAN_POINT('',(-2.178197218033,-14.93939393939));
#515 = CARTESIAN_POINT('',(-2.185695994496,-14.93939393939));
#516 = CARTESIAN_POINT('',(-2.193194770921,-14.93939393939));
#517 = CARTESIAN_POINT('',(-2.208981668501,-14.93939393939));
#518 = CARTESIAN_POINT('',(-2.217269789807,-14.93939393939));
#519 = CARTESIAN_POINT('',(-2.225557911177,-14.93939393939));
#520 = CARTESIAN_POINT('',(-2.233846032578,-14.93939393939));
#521 = CARTESIAN_POINT('',(-2.242134153979,-14.93939393939));
#522 = CARTESIAN_POINT('',(-2.250422275348,-14.93939393939));
#523 = CARTESIAN_POINT('',(-2.258710396655,-14.93939393939));
#524 = CARTESIAN_POINT('',(-2.273313276941,-14.93939393939));
#525 = CARTESIAN_POINT('',(-2.27962803604,-14.93939393939));
#526 = CARTESIAN_POINT('',(-2.285942795155,-14.93939393939));
#527 = CARTESIAN_POINT('',(-2.292257554278,-14.93939393939));
#528 = CARTESIAN_POINT('',(-2.2985723134,-14.93939393939));
#529 = CARTESIAN_POINT('',(-2.304887072515,-14.93939393939));
#530 = CARTESIAN_POINT('',(-2.311201831614,-14.93939393939));
#531 = CARTESIAN_POINT('',(-2.426800757059,-14.93939393939));
#532 = CARTESIAN_POINT('',(-2.536192807938,-14.93939393939));
#533 = CARTESIAN_POINT('',(-2.64552285331,-14.93939393939));
#534 = CARTESIAN_POINT('',(-2.754813658556,-14.93939393939));
#535 = CARTESIAN_POINT('',(-2.86410446378,-14.93939393939));
#536 = CARTESIAN_POINT('',(-2.973434509167,-14.93939393939));
#537 = CARTESIAN_POINT('',(-3.082826560039,-14.93939393939));
#538 = CARTESIAN_POINT('',(-3.301000923776,-14.93939393939));
#539 = CARTESIAN_POINT('',(-3.409997079828,-14.93939393939));
#540 = CARTESIAN_POINT('',(-3.518932427424,-14.93939393939));
#541 = CARTESIAN_POINT('',(-3.627829104496,-14.93939393939));
#542 = CARTESIAN_POINT('',(-3.736725781572,-14.93939393939));
#543 = CARTESIAN_POINT('',(-3.845661129167,-14.93939393939));
#544 = CARTESIAN_POINT('',(-3.954657285218,-14.93939393939));
#545 = CARTESIAN_POINT('',(-4.172437679948,-14.93939393939));
#546 = CARTESIAN_POINT('',(-4.281433836,-14.93939393939));
#547 = CARTESIAN_POINT('',(-4.390369183595,-14.93939393939));
#548 = CARTESIAN_POINT('',(-4.499265860667,-14.93939393939));
#549 = CARTESIAN_POINT('',(-4.608162537744,-14.93939393939));
#550 = CARTESIAN_POINT('',(-4.717097885338,-14.93939393939));
#551 = CARTESIAN_POINT('',(-4.826094041389,-14.93939393939));
#552 = CARTESIAN_POINT('',(-5.04387443612,-14.93939393939));
#553 = CARTESIAN_POINT('',(-5.15287059217,-14.93939393939));
#554 = CARTESIAN_POINT('',(-5.26180593977,-14.93939393939));
#555 = CARTESIAN_POINT('',(-5.370702616835,-14.93939393939));
#556 = CARTESIAN_POINT('',(-5.479599293919,-14.93939393939));
#557 = CARTESIAN_POINT('',(-5.588534641509,-14.93939393939));
#558 = CARTESIAN_POINT('',(-5.697530797561,-14.93939393939));
#559 = CARTESIAN_POINT('',(-5.866014495159,-14.93939393939));
#560 = CARTESIAN_POINT('',(-5.925613241621,-14.93939393939));
#561 = CARTESIAN_POINT('',(-5.985209654423,-14.93939393939));
#562 = CARTESIAN_POINT('',(-6.044803151053,-14.93939393939));
#563 = CARTESIAN_POINT('',(-6.104396647683,-14.93939393939));
#564 = CARTESIAN_POINT('',(-6.163993060485,-14.93939393939));
#565 = CARTESIAN_POINT('',(-6.223591806947,-14.93939393939));
#566 = CARTESIAN_POINT('',(-6.28318530718,-14.93939393939));
#567 = ( GEOMETRIC_REPRESENTATION_CONTEXT(2) 
PARAMETRIC_REPRESENTATION_CONTEXT() REPRESENTATION_CONTEXT('2D SPACE',''
  ) );
#568 = ADVANCED_FACE('',(#569),#411,.F.);
#569 = FACE_BOUND('',#570,.T.);
#570 = EDGE_LOOP('',(#571,#600,#621,#622));
#571 = ORIENTED_EDGE('',*,*,#572,.F.);
#572 = EDGE_CURVE('',#573,#573,#575,.T.);
#573 = VERTEX_POINT('',#574);
#574 = CARTESIAN_POINT('',(13.36,4.94806919053E-16,0.));
#575 = SURFACE_CURVE('',#576,(#581,#588),.PCURVE_S1.);
#576 = CIRCLE('',#577,13.36);
#577 = AXIS2_PLACEMENT_3D('',#578,#579,#580);
#578 = CARTESIAN_POINT('',(6.803595136979E-14,4.94806919053E-16,0.));
#579 = DIRECTION('',(0.,0.,1.));
#580 = DIRECTION('',(1.,0.,0.));
#581 = PCURVE('',#411,#582);
#582 = DEFINITIONAL_REPRESENTATION('',(#583),#587);
#583 = LINE('',#584,#585);
#584 = CARTESIAN_POINT('',(-0.,0.));
#585 = VECTOR('',#586,1.);
#586 = DIRECTION('',(-1.,0.));
#587 = ( GEOMETRIC_REPRESENTATION_CONTEXT(2) 
PARAMETRIC_REPRESENTATION_CONTEXT() REPRESENTATION_CONTEXT('2D SPACE',''
  ) );
#588 = PCURVE('',#589,#594);
#589 = PLANE('',#590);
#590 = AXIS2_PLACEMENT_3D('',#591,#592,#593);
#591 = CARTESIAN_POINT('',(-3.809025438828E-16,9.374125743395E-16,0.));
#592 = DIRECTION('',(0.,0.,1.));
#593 = DIRECTION('',(1.,0.,-0.));
#594 = DEFINITIONAL_REPRESENTATION('',(#595),#599);
#595 = CIRCLE('',#596,13.36);
#596 = AXIS2_PLACEMENT_2D('',#597,#598);
#597 = CARTESIAN_POINT('',(6.841685391367E-14,-4.426056552865E-16));
#598 = DIRECTION('',(1.,0.));
#599 = ( GEOMETRIC_REPRESENTATION_CONTEXT(2) 
PARAMETRIC_REPRESENTATION_CONTEXT() REPRESENTATION_CONTEXT('2D SPACE',''
  ) );
#600 = ORIENTED_EDGE('',*,*,#601,.T.);
#601 = EDGE_CURVE('',#573,#81,#602,.T.);
#602 = SEAM_CURVE('',#603,(#607,#614),.PCURVE_S1.);
#603 = LINE('',#604,#605);
#604 = CARTESIAN_POINT('',(13.36,4.94806919053E-16,0.));
#605 = VECTOR('',#606,1.);
#606 = DIRECTION('',(0.,0.,1.));
#607 = PCURVE('',#411,#608);
#608 = DEFINITIONAL_REPRESENTATION('',(#609),#613);
#609 = LINE('',#610,#611);
#610 = CARTESIAN_POINT('',(-6.28318530718,0.));
#611 = VECTOR('',#612,1.);
#612 = DIRECTION('',(-0.,-1.));
#613 = ( GEOMETRIC_REPRESENTATION_CONTEXT(2) 
PARAMETRIC_REPRESENTATION_CONTEXT() REPRESENTATION_CONTEXT('2D SPACE',''
  ) );
#614 = PCURVE('',#411,#615);
#615 = DEFINITIONAL_REPRESENTATION('',(#616),#620);
#616 = LINE('',#617,#618);
#617 = CARTESIAN_POINT('',(-0.,0.));
#618 = VECTOR('',#619,1.);
#619 = DIRECTION('',(-0.,-1.));
#620 = ( GEOMETRIC_REPRESENTATION_CONTEXT(2) 
PARAMETRIC_REPRESENTATION_CONTEXT() REPRESENTATION_CONTEXT('2D SPACE',''
  ) );
#621 = ORIENTED_EDGE('',*,*,#105,.T.);
#622 = ORIENTED_EDGE('',*,*,#601,.F.);
#623 = ADVANCED_FACE('',(#624,#655),#589,.F.);
#624 = FACE_BOUND('',#625,.F.);
#625 = EDGE_LOOP('',(#626));
#626 = ORIENTED_EDGE('',*,*,#627,.T.);
#627 = EDGE_CURVE('',#628,#628,#630,.T.);
#628 = VERTEX_POINT('',#629);
#629 = CARTESIAN_POINT('',(14.36,0.,0.));
#630 = SURFACE_CURVE('',#631,(#636,#643),.PCURVE_S1.);
#631 = CIRCLE('',#632,14.36);
#632 = AXIS2_PLACEMENT_3D('',#633,#634,#635);
#633 = CARTESIAN_POINT('',(0.,0.,0.));
#634 = DIRECTION('',(0.,0.,1.));
#635 = DIRECTION('',(1.,0.,0.));
#636 = PCURVE('',#589,#637);
#637 = DEFINITIONAL_REPRESENTATION('',(#638),#642);
#638 = CIRCLE('',#639,14.36);
#639 = AXIS2_PLACEMENT_2D('',#640,#641);
#640 = CARTESIAN_POINT('',(3.809025438828E-16,-9.374125743395E-16));
#641 = DIRECTION('',(1.,0.));
#642 = ( GEOMETRIC_REPRESENTATION_CONTEXT(2) 
PARAMETRIC_REPRESENTATION_CONTEXT() REPRESENTATION_CONTEXT('2D SPACE',''
  ) );
#643 = PCURVE('',#644,#649);
#644 = CYLINDRICAL_SURFACE('',#645,14.36);
#645 = AXIS2_PLACEMENT_3D('',#646,#647,#648);
#646 = CARTESIAN_POINT('',(0.,0.,0.));
#647 = DIRECTION('',(-0.,-0.,-1.));
#648 = DIRECTION('',(1.,0.,0.));
#649 = DEFINITIONAL_REPRESENTATION('',(#650),#654);
#650 = LINE('',#651,#652);
#651 = CARTESIAN_POINT('',(-0.,0.));
#652 = VECTOR('',#653,1.);
#653 = DIRECTION('',(-1.,0.));
#654 = ( GEOMETRIC_REPRESENTATION_CONTEXT(2) 
PARAMETRIC_REPRESENTATION_CONTEXT() REPRESENTATION_CONTEXT('2D SPACE',''
  ) );
#655 = FACE_BOUND('',#656,.F.);
#656 = EDGE_LOOP('',(#657));
#657 = ORIENTED_EDGE('',*,*,#572,.F.);
#658 = ADVANCED_FACE('',(#659),#644,.T.);
#659 = FACE_BOUND('',#660,.F.);
#660 = EDGE_LOOP('',(#661,#684,#711,#712));
#661 = ORIENTED_EDGE('',*,*,#662,.T.);
#662 = EDGE_CURVE('',#628,#663,#665,.T.);
#663 = VERTEX_POINT('',#664);
#664 = CARTESIAN_POINT('',(14.36,0.,15.));
#665 = SEAM_CURVE('',#666,(#670,#677),.PCURVE_S1.);
#666 = LINE('',#667,#668);
#667 = CARTESIAN_POINT('',(14.36,0.,0.));
#668 = VECTOR('',#669,1.);
#669 = DIRECTION('',(0.,0.,1.));
#670 = PCURVE('',#644,#671);
#671 = DEFINITIONAL_REPRESENTATION('',(#672),#676);
#672 = LINE('',#673,#674);
#673 = CARTESIAN_POINT('',(-0.,0.));
#674 = VECTOR('',#675,1.);
#675 = DIRECTION('',(-0.,-1.));
#676 = ( GEOMETRIC_REPRESENTATION_CONTEXT(2) 
PARAMETRIC_REPRESENTATION_CONTEXT() REPRESENTATION_CONTEXT('2D SPACE',''
  ) );
#677 = PCURVE('',#644,#678);
#678 = DEFINITIONAL_REPRESENTATION('',(#679),#683);
#679 = LINE('',#680,#681);
#680 = CARTESIAN_POINT('',(-6.28318530718,0.));
#681 = VECTOR('',#682,1.);
#682 = DIRECTION('',(-0.,-1.));
#683 = ( GEOMETRIC_REPRESENTATION_CONTEXT(2) 
PARAMETRIC_REPRESENTATION_CONTEXT() REPRESENTATION_CONTEXT('2D SPACE',''
  ) );
#684 = ORIENTED_EDGE('',*,*,#685,.T.);
#685 = EDGE_CURVE('',#663,#663,#686,.T.);
#686 = SURFACE_CURVE('',#687,(#692,#699),.PCURVE_S1.);
#687 = CIRCLE('',#688,14.36);
#688 = AXIS2_PLACEMENT_3D('',#689,#690,#691);
#689 = CARTESIAN_POINT('',(0.,0.,15.));
#690 = DIRECTION('',(0.,0.,1.));
#691 = DIRECTION('',(1.,0.,0.));
#692 = PCURVE('',#644,#693);
#693 = DEFINITIONAL_REPRESENTATION('',(#694),#698);
#694 = LINE('',#695,#696);
#695 = CARTESIAN_POINT('',(-0.,-15.));
#696 = VECTOR('',#697,1.);
#697 = DIRECTION('',(-1.,0.));
#698 = ( GEOMETRIC_REPRESENTATION_CONTEXT(2) 
PARAMETRIC_REPRESENTATION_CONTEXT() REPRESENTATION_CONTEXT('2D SPACE',''
  ) );
#699 = PCURVE('',#700,#705);
#700 = PLANE('',#701);
#701 = AXIS2_PLACEMENT_3D('',#702,#703,#704);
#702 = CARTESIAN_POINT('',(-3.809025438828E-16,9.374125743395E-16,15.));
#703 = DIRECTION('',(0.,0.,1.));
#704 = DIRECTION('',(1.,0.,-0.));
#705 = DEFINITIONAL_REPRESENTATION('',(#706),#710);
#706 = CIRCLE('',#707,14.36);
#707 = AXIS2_PLACEMENT_2D('',#708,#709);
#708 = CARTESIAN_POINT('',(3.809025438828E-16,-9.374125743395E-16));
#709 = DIRECTION('',(1.,0.));
#710 = ( GEOMETRIC_REPRESENTATION_CONTEXT(2) 
PARAMETRIC_REPRESENTATION_CONTEXT() REPRESENTATION_CONTEXT('2D SPACE',''
  ) );
#711 = ORIENTED_EDGE('',*,*,#662,.F.);
#712 = ORIENTED_EDGE('',*,*,#627,.F.);
#713 = ADVANCED_FACE('',(#714,#717),#700,.T.);
#714 = FACE_BOUND('',#715,.T.);
#715 = EDGE_LOOP('',(#716));
#716 = ORIENTED_EDGE('',*,*,#685,.T.);
#717 = FACE_BOUND('',#718,.T.);
#718 = EDGE_LOOP('',(#719));
#719 = ORIENTED_EDGE('',*,*,#720,.F.);
#720 = EDGE_CURVE('',#721,#721,#723,.T.);
#721 = VERTEX_POINT('',#722);
#722 = CARTESIAN_POINT('',(13.4,0.,15.));
#723 = SURFACE_CURVE('',#724,(#729,#736),.PCURVE_S1.);
#724 = CIRCLE('',#725,13.4);
#725 = AXIS2_PLACEMENT_3D('',#726,#727,#728);
#726 = CARTESIAN_POINT('',(0.,0.,15.));
#727 = DIRECTION('',(0.,0.,1.));
#728 = DIRECTION('',(1.,0.,-0.));
#729 = PCURVE('',#700,#730);
#730 = DEFINITIONAL_REPRESENTATION('',(#731),#735);
#731 = CIRCLE('',#732,13.4);
#732 = AXIS2_PLACEMENT_2D('',#733,#734);
#733 = CARTESIAN_POINT('',(3.809025438828E-16,-9.374125743395E-16));
#734 = DIRECTION('',(1.,0.));
#735 = ( GEOMETRIC_REPRESENTATION_CONTEXT(2) 
PARAMETRIC_REPRESENTATION_CONTEXT() REPRESENTATION_CONTEXT('2D SPACE',''
  ) );
#736 = PCURVE('',#737,#742);
#737 = CONICAL_SURFACE('',#738,3.5,0.583373006994);
#738 = AXIS2_PLACEMENT_3D('',#739,#740,#741);
#739 = CARTESIAN_POINT('',(0.,0.,0.));
#740 = DIRECTION('',(0.,0.,1.));
#741 = DIRECTION('',(1.,0.,-0.));
#742 = DEFINITIONAL_REPRESENTATION('',(#743),#747);
#743 = LINE('',#744,#745);
#744 = CARTESIAN_POINT('',(0.,15.));
#745 = VECTOR('',#746,1.);
#746 = DIRECTION('',(1.,0.));
#747 = ( GEOMETRIC_REPRESENTATION_CONTEXT(2) 
PARAMETRIC_REPRESENTATION_CONTEXT() REPRESENTATION_CONTEXT('2D SPACE',''
  ) );
#748 = ADVANCED_FACE('',(#749),#737,.T.);
#749 = FACE_BOUND('',#750,.T.);
#750 = EDGE_LOOP('',(#751,#752,#775,#802));
#751 = ORIENTED_EDGE('',*,*,#720,.T.);
#752 = ORIENTED_EDGE('',*,*,#753,.T.);
#753 = EDGE_CURVE('',#721,#754,#756,.T.);
#754 = VERTEX_POINT('',#755);
#755 = CARTESIAN_POINT('',(14.06,0.,16.));
#756 = SEAM_CURVE('',#757,(#761,#768),.PCURVE_S1.);
#757 = LINE('',#758,#759);
#758 = CARTESIAN_POINT('',(3.5,0.,0.));
#759 = VECTOR('',#760,1.);
#760 = DIRECTION('',(0.550842208331,0.,0.834609406562));
#761 = PCURVE('',#737,#762);
#762 = DEFINITIONAL_REPRESENTATION('',(#763),#767);
#763 = LINE('',#764,#765);
#764 = CARTESIAN_POINT('',(0.,0.));
#765 = VECTOR('',#766,1.);
#766 = DIRECTION('',(0.,1.));
#767 = ( GEOMETRIC_REPRESENTATION_CONTEXT(2) 
PARAMETRIC_REPRESENTATION_CONTEXT() REPRESENTATION_CONTEXT('2D SPACE',''
  ) );
#768 = PCURVE('',#737,#769);
#769 = DEFINITIONAL_REPRESENTATION('',(#770),#774);
#770 = LINE('',#771,#772);
#771 = CARTESIAN_POINT('',(6.28318530718,0.));
#772 = VECTOR('',#773,1.);
#773 = DIRECTION('',(0.,1.));
#774 = ( GEOMETRIC_REPRESENTATION_CONTEXT(2) 
PARAMETRIC_REPRESENTATION_CONTEXT() REPRESENTATION_CONTEXT('2D SPACE',''
  ) );
#775 = ORIENTED_EDGE('',*,*,#776,.F.);
#776 = EDGE_CURVE('',#754,#754,#777,.T.);
#777 = SURFACE_CURVE('',#778,(#783,#790),.PCURVE_S1.);
#778 = CIRCLE('',#779,14.06);
#779 = AXIS2_PLACEMENT_3D('',#780,#781,#782);
#780 = CARTESIAN_POINT('',(0.,0.,16.));
#781 = DIRECTION('',(0.,0.,1.));
#782 = DIRECTION('',(1.,0.,-0.));
#783 = PCURVE('',#737,#784);
#784 = DEFINITIONAL_REPRESENTATION('',(#785),#789);
#785 = LINE('',#786,#787);
#786 = CARTESIAN_POINT('',(0.,16.));
#787 = VECTOR('',#788,1.);
#788 = DIRECTION('',(1.,0.));
#789 = ( GEOMETRIC_REPRESENTATION_CONTEXT(2) 
PARAMETRIC_REPRESENTATION_CONTEXT() REPRESENTATION_CONTEXT('2D SPACE',''
  ) );
#790 = PCURVE('',#791,#796);
#791 = CONICAL_SURFACE('',#792,14.06,0.674740942224);
#792 = AXIS2_PLACEMENT_3D('',#793,#794,#795);
#793 = CARTESIAN_POINT('',(0.,0.,16.));
#794 = DIRECTION('',(0.,0.,1.));
#795 = DIRECTION('',(1.,0.,-0.));
#796 = DEFINITIONAL_REPRESENTATION('',(#797),#801);
#797 = LINE('',#798,#799);
#798 = CARTESIAN_POINT('',(0.,0.));
#799 = VECTOR('',#800,1.);
#800 = DIRECTION('',(1.,0.));
#801 = ( GEOMETRIC_REPRESENTATION_CONTEXT(2) 
PARAMETRIC_REPRESENTATION_CONTEXT() REPRESENTATION_CONTEXT('2D SPACE',''
  ) );
#802 = ORIENTED_EDGE('',*,*,#753,.F.);
#803 = ADVANCED_FACE('',(#804),#791,.T.);
#804 = FACE_BOUND('',#805,.T.);
#805 = EDGE_LOOP('',(#806,#807,#830,#857));
#806 = ORIENTED_EDGE('',*,*,#776,.T.);
#807 = ORIENTED_EDGE('',*,*,#808,.T.);
#808 = EDGE_CURVE('',#754,#809,#811,.T.);
#809 = VERTEX_POINT('',#810);
#810 = CARTESIAN_POINT('',(14.86,0.,17.));
#811 = SEAM_CURVE('',#812,(#816,#823),.PCURVE_S1.);
#812 = LINE('',#813,#814);
#813 = CARTESIAN_POINT('',(14.06,0.,16.));
#814 = VECTOR('',#815,1.);
#815 = DIRECTION('',(0.624695047554,0.,0.780868809443));
#816 = PCURVE('',#791,#817);
#817 = DEFINITIONAL_REPRESENTATION('',(#818),#822);
#818 = LINE('',#819,#820);
#819 = CARTESIAN_POINT('',(0.,0.));
#820 = VECTOR('',#821,1.);
#821 = DIRECTION('',(0.,1.));
#822 = ( GEOMETRIC_REPRESENTATION_CONTEXT(2) 
PARAMETRIC_REPRESENTATION_CONTEXT() REPRESENTATION_CONTEXT('2D SPACE',''
  ) );
#823 = PCURVE('',#791,#824);
#824 = DEFINITIONAL_REPRESENTATION('',(#825),#829);
#825 = LINE('',#826,#827);
#826 = CARTESIAN_POINT('',(6.28318530718,0.));
#827 = VECTOR('',#828,1.);
#828 = DIRECTION('',(0.,1.));
#829 = ( GEOMETRIC_REPRESENTATION_CONTEXT(2) 
PARAMETRIC_REPRESENTATION_CONTEXT() REPRESENTATION_CONTEXT('2D SPACE',''
  ) );
#830 = ORIENTED_EDGE('',*,*,#831,.F.);
#831 = EDGE_CURVE('',#809,#809,#832,.T.);
#832 = SURFACE_CURVE('',#833,(#838,#845),.PCURVE_S1.);
#833 = CIRCLE('',#834,14.86);
#834 = AXIS2_PLACEMENT_3D('',#835,#836,#837);
#835 = CARTESIAN_POINT('',(0.,0.,17.));
#836 = DIRECTION('',(0.,0.,1.));
#837 = DIRECTION('',(1.,0.,-0.));
#838 = PCURVE('',#791,#839);
#839 = DEFINITIONAL_REPRESENTATION('',(#840),#844);
#840 = LINE('',#841,#842);
#841 = CARTESIAN_POINT('',(0.,1.));
#842 = VECTOR('',#843,1.);
#843 = DIRECTION('',(1.,0.));
#844 = ( GEOMETRIC_REPRESENTATION_CONTEXT(2) 
PARAMETRIC_REPRESENTATION_CONTEXT() REPRESENTATION_CONTEXT('2D SPACE',''
  ) );
#845 = PCURVE('',#846,#851);
#846 = CYLINDRICAL_SURFACE('',#847,14.86);
#847 = AXIS2_PLACEMENT_3D('',#848,#849,#850);
#848 = CARTESIAN_POINT('',(0.,0.,17.));
#849 = DIRECTION('',(0.,0.,1.));
#850 = DIRECTION('',(1.,0.,-0.));
#851 = DEFINITIONAL_REPRESENTATION('',(#852),#856);
#852 = LINE('',#853,#854);
#853 = CARTESIAN_POINT('',(0.,0.));
#854 = VECTOR('',#855,1.);
#855 = DIRECTION('',(1.,0.));
#856 = ( GEOMETRIC_REPRESENTATION_CONTEXT(2) 
PARAMETRIC_REPRESENTATION_CONTEXT() REPRESENTATION_CONTEXT('2D SPACE',''
  ) );
#857 = ORIENTED_EDGE('',*,*,#808,.F.);
#858 = ADVANCED_FACE('',(#859),#846,.T.);
#859 = FACE_BOUND('',#860,.T.);
#860 = EDGE_LOOP('',(#861,#862,#885,#912));
#861 = ORIENTED_EDGE('',*,*,#831,.T.);
#862 = ORIENTED_EDGE('',*,*,#863,.T.);
#863 = EDGE_CURVE('',#809,#864,#866,.T.);
#864 = VERTEX_POINT('',#865);
#865 = CARTESIAN_POINT('',(14.86,0.,104.55));
#866 = SEAM_CURVE('',#867,(#871,#878),.PCURVE_S1.);
#867 = LINE('',#868,#869);
#868 = CARTESIAN_POINT('',(14.86,0.,17.));
#869 = VECTOR('',#870,1.);
#870 = DIRECTION('',(0.,0.,1.));
#871 = PCURVE('',#846,#872);
#872 = DEFINITIONAL_REPRESENTATION('',(#873),#877);
#873 = LINE('',#874,#875);
#874 = CARTESIAN_POINT('',(0.,0.));
#875 = VECTOR('',#876,1.);
#876 = DIRECTION('',(0.,1.));
#877 = ( GEOMETRIC_REPRESENTATION_CONTEXT(2) 
PARAMETRIC_REPRESENTATION_CONTEXT() REPRESENTATION_CONTEXT('2D SPACE',''
  ) );
#878 = PCURVE('',#846,#879);
#879 = DEFINITIONAL_REPRESENTATION('',(#880),#884);
#880 = LINE('',#881,#882);
#881 = CARTESIAN_POINT('',(6.28318530718,0.));
#882 = VECTOR('',#883,1.);
#883 = DIRECTION('',(0.,1.));
#884 = ( GEOMETRIC_REPRESENTATION_CONTEXT(2) 
PARAMETRIC_REPRESENTATION_CONTEXT() REPRESENTATION_CONTEXT('2D SPACE',''
  ) );
#885 = ORIENTED_EDGE('',*,*,#886,.F.);
#886 = EDGE_CURVE('',#864,#864,#887,.T.);
#887 = SURFACE_CURVE('',#888,(#893,#900),.PCURVE_S1.);
#888 = CIRCLE('',#889,14.86);
#889 = AXIS2_PLACEMENT_3D('',#890,#891,#892);
#890 = CARTESIAN_POINT('',(0.,0.,104.55));
#891 = DIRECTION('',(0.,0.,1.));
#892 = DIRECTION('',(1.,0.,-0.));
#893 = PCURVE('',#846,#894);
#894 = DEFINITIONAL_REPRESENTATION('',(#895),#899);
#895 = LINE('',#896,#897);
#896 = CARTESIAN_POINT('',(0.,87.55));
#897 = VECTOR('',#898,1.);
#898 = DIRECTION('',(1.,0.));
#899 = ( GEOMETRIC_REPRESENTATION_CONTEXT(2) 
PARAMETRIC_REPRESENTATION_CONTEXT() REPRESENTATION_CONTEXT('2D SPACE',''
  ) );
#900 = PCURVE('',#901,#906);
#901 = CONICAL_SURFACE('',#902,14.86,0.727262687997);
#902 = AXIS2_PLACEMENT_3D('',#903,#904,#905);
#903 = CARTESIAN_POINT('',(0.,0.,104.55));
#904 = DIRECTION('',(0.,0.,1.));
#905 = DIRECTION('',(1.,0.,-0.));
#906 = DEFINITIONAL_REPRESENTATION('',(#907),#911);
#907 = LINE('',#908,#909);
#908 = CARTESIAN_POINT('',(0.,0.));
#909 = VECTOR('',#910,1.);
#910 = DIRECTION('',(1.,0.));
#911 = ( GEOMETRIC_REPRESENTATION_CONTEXT(2) 
PARAMETRIC_REPRESENTATION_CONTEXT() REPRESENTATION_CONTEXT('2D SPACE',''
  ) );
#912 = ORIENTED_EDGE('',*,*,#863,.F.);
#913 = ADVANCED_FACE('',(#914),#901,.T.);
#914 = FACE_BOUND('',#915,.T.);
#915 = EDGE_LOOP('',(#916,#917,#940,#967));
#916 = ORIENTED_EDGE('',*,*,#886,.T.);
#917 = ORIENTED_EDGE('',*,*,#918,.T.);
#918 = EDGE_CURVE('',#864,#919,#921,.T.);
#919 = VERTEX_POINT('',#920);
#920 = CARTESIAN_POINT('',(15.75,0.,105.55));
#921 = SEAM_CURVE('',#922,(#926,#933),.PCURVE_S1.);
#922 = LINE('',#923,#924);
#923 = CARTESIAN_POINT('',(14.86,0.,104.55));
#924 = VECTOR('',#925,1.);
#925 = DIRECTION('',(0.66482736433,0.,0.746997038573));
#926 = PCURVE('',#901,#927);
#927 = DEFINITIONAL_REPRESENTATION('',(#928),#932);
#928 = LINE('',#929,#930);
#929 = CARTESIAN_POINT('',(0.,0.));
#930 = VECTOR('',#931,1.);
#931 = DIRECTION('',(0.,1.));
#932 = ( GEOMETRIC_REPRESENTATION_CONTEXT(2) 
PARAMETRIC_REPRESENTATION_CONTEXT() REPRESENTATION_CONTEXT('2D SPACE',''
  ) );
#933 = PCURVE('',#901,#934);
#934 = DEFINITIONAL_REPRESENTATION('',(#935),#939);
#935 = LINE('',#936,#937);
#936 = CARTESIAN_POINT('',(6.28318530718,0.));
#937 = VECTOR('',#938,1.);
#938 = DIRECTION('',(0.,1.));
#939 = ( GEOMETRIC_REPRESENTATION_CONTEXT(2) 
PARAMETRIC_REPRESENTATION_CONTEXT() REPRESENTATION_CONTEXT('2D SPACE',''
  ) );
#940 = ORIENTED_EDGE('',*,*,#941,.F.);
#941 = EDGE_CURVE('',#919,#919,#942,.T.);
#942 = SURFACE_CURVE('',#943,(#948,#955),.PCURVE_S1.);
#943 = CIRCLE('',#944,15.75);
#944 = AXIS2_PLACEMENT_3D('',#945,#946,#947);
#945 = CARTESIAN_POINT('',(0.,0.,105.55));
#946 = DIRECTION('',(0.,0.,1.));
#947 = DIRECTION('',(1.,0.,-0.));
#948 = PCURVE('',#901,#949);
#949 = DEFINITIONAL_REPRESENTATION('',(#950),#954);
#950 = LINE('',#951,#952);
#951 = CARTESIAN_POINT('',(0.,1.));
#952 = VECTOR('',#953,1.);
#953 = DIRECTION('',(1.,0.));
#954 = ( GEOMETRIC_REPRESENTATION_CONTEXT(2) 
PARAMETRIC_REPRESENTATION_CONTEXT() REPRESENTATION_CONTEXT('2D SPACE',''
  ) );
#955 = PCURVE('',#956,#961);
#956 = CYLINDRICAL_SURFACE('',#957,15.75);
#957 = AXIS2_PLACEMENT_3D('',#958,#959,#960);
#958 = CARTESIAN_POINT('',(0.,0.,105.55));
#959 = DIRECTION('',(0.,0.,1.));
#960 = DIRECTION('',(1.,0.,-0.));
#961 = DEFINITIONAL_REPRESENTATION('',(#962),#966);
#962 = LINE('',#963,#964);
#963 = CARTESIAN_POINT('',(0.,0.));
#964 = VECTOR('',#965,1.);
#965 = DIRECTION('',(1.,0.));
#966 = ( GEOMETRIC_REPRESENTATION_CONTEXT(2) 
PARAMETRIC_REPRESENTATION_CONTEXT() REPRESENTATION_CONTEXT('2D SPACE',''
  ) );
#967 = ORIENTED_EDGE('',*,*,#918,.F.);
#968 = ADVANCED_FACE('',(#969),#956,.T.);
#969 = FACE_BOUND('',#970,.T.);
#970 = EDGE_LOOP('',(#971,#972,#995,#1022));
#971 = ORIENTED_EDGE('',*,*,#941,.T.);
#972 = ORIENTED_EDGE('',*,*,#973,.T.);
#973 = EDGE_CURVE('',#919,#974,#976,.T.);
#974 = VERTEX_POINT('',#975);
#975 = CARTESIAN_POINT('',(15.75,0.,114.55));
#976 = SEAM_CURVE('',#977,(#981,#988),.PCURVE_S1.);
#977 = LINE('',#978,#979);
#978 = CARTESIAN_POINT('',(15.75,0.,105.55));
#979 = VECTOR('',#980,1.);
#980 = DIRECTION('',(0.,0.,1.));
#981 = PCURVE('',#956,#982);
#982 = DEFINITIONAL_REPRESENTATION('',(#983),#987);
#983 = LINE('',#984,#985);
#984 = CARTESIAN_POINT('',(0.,0.));
#985 = VECTOR('',#986,1.);
#986 = DIRECTION('',(0.,1.));
#987 = ( GEOMETRIC_REPRESENTATION_CONTEXT(2) 
PARAMETRIC_REPRESENTATION_CONTEXT() REPRESENTATION_CONTEXT('2D SPACE',''
  ) );
#988 = PCURVE('',#956,#989);
#989 = DEFINITIONAL_REPRESENTATION('',(#990),#994);
#990 = LINE('',#991,#992);
#991 = CARTESIAN_POINT('',(6.28318530718,0.));
#992 = VECTOR('',#993,1.);
#993 = DIRECTION('',(0.,1.));
#994 = ( GEOMETRIC_REPRESENTATION_CONTEXT(2) 
PARAMETRIC_REPRESENTATION_CONTEXT() REPRESENTATION_CONTEXT('2D SPACE',''
  ) );
#995 = ORIENTED_EDGE('',*,*,#996,.F.);
#996 = EDGE_CURVE('',#974,#974,#997,.T.);
#997 = SURFACE_CURVE('',#998,(#1003,#1010),.PCURVE_S1.);
#998 = CIRCLE('',#999,15.75);
#999 = AXIS2_PLACEMENT_3D('',#1000,#1001,#1002);
#1000 = CARTESIAN_POINT('',(0.,0.,114.55));
#1001 = DIRECTION('',(0.,0.,1.));
#1002 = DIRECTION('',(1.,0.,-0.));
#1003 = PCURVE('',#956,#1004);
#1004 = DEFINITIONAL_REPRESENTATION('',(#1005),#1009);
#1005 = LINE('',#1006,#1007);
#1006 = CARTESIAN_POINT('',(0.,9.));
#1007 = VECTOR('',#1008,1.);
#1008 = DIRECTION('',(1.,0.));
#1009 = ( GEOMETRIC_REPRESENTATION_CONTEXT(2) 
PARAMETRIC_REPRESENTATION_CONTEXT() REPRESENTATION_CONTEXT('2D SPACE',''
  ) );
#1010 = PCURVE('',#1011,#1016);
#1011 = PLANE('',#1012);
#1012 = AXIS2_PLACEMENT_3D('',#1013,#1014,#1015);
#1013 = CARTESIAN_POINT('',(0.,0.,114.55));
#1014 = DIRECTION('',(0.,0.,1.));
#1015 = DIRECTION('',(1.,0.,-0.));
#1016 = DEFINITIONAL_REPRESENTATION('',(#1017),#1021);
#1017 = CIRCLE('',#1018,15.75);
#1018 = AXIS2_PLACEMENT_2D('',#1019,#1020);
#1019 = CARTESIAN_POINT('',(0.,0.));
#1020 = DIRECTION('',(1.,0.));
#1021 = ( GEOMETRIC_REPRESENTATION_CONTEXT(2) 
PARAMETRIC_REPRESENTATION_CONTEXT() REPRESENTATION_CONTEXT('2D SPACE',''
  ) );
#1022 = ORIENTED_EDGE('',*,*,#973,.F.);
#1023 = ADVANCED_FACE('',(#1024,#1027),#1011,.T.);
#1024 = FACE_BOUND('',#1025,.T.);
#1025 = EDGE_LOOP('',(#1026));
#1026 = ORIENTED_EDGE('',*,*,#996,.T.);
#1027 = FACE_BOUND('',#1028,.T.);
#1028 = EDGE_LOOP('',(#1029));
#1029 = ORIENTED_EDGE('',*,*,#1030,.F.);
#1030 = EDGE_CURVE('',#1031,#1031,#1033,.T.);
#1031 = VERTEX_POINT('',#1032);
#1032 = CARTESIAN_POINT('',(13.655961635538,0.,114.55));
#1033 = SURFACE_CURVE('',#1034,(#1039,#1046),.PCURVE_S1.);
#1034 = CIRCLE('',#1035,13.655961635538);
#1035 = AXIS2_PLACEMENT_3D('',#1036,#1037,#1038);
#1036 = CARTESIAN_POINT('',(0.,0.,114.55));
#1037 = DIRECTION('',(0.,0.,1.));
#1038 = DIRECTION('',(1.,0.,-0.));
#1039 = PCURVE('',#1011,#1040);
#1040 = DEFINITIONAL_REPRESENTATION('',(#1041),#1045);
#1041 = CIRCLE('',#1042,13.655961635538);
#1042 = AXIS2_PLACEMENT_2D('',#1043,#1044);
#1043 = CARTESIAN_POINT('',(0.,0.));
#1044 = DIRECTION('',(1.,0.));
#1045 = ( GEOMETRIC_REPRESENTATION_CONTEXT(2) 
PARAMETRIC_REPRESENTATION_CONTEXT() REPRESENTATION_CONTEXT('2D SPACE',''
  ) );
#1046 = PCURVE('',#1047,#1052);
#1047 = CONICAL_SURFACE('',#1048,13.26,4.038342509537E-03);
#1048 = AXIS2_PLACEMENT_3D('',#1049,#1050,#1051);
#1049 = CARTESIAN_POINT('',(0.,0.,16.5));
#1050 = DIRECTION('',(0.,0.,1.));
#1051 = DIRECTION('',(1.,0.,-0.));
#1052 = DEFINITIONAL_REPRESENTATION('',(#1053),#1057);
#1053 = LINE('',#1054,#1055);
#1054 = CARTESIAN_POINT('',(0.,98.05));
#1055 = VECTOR('',#1056,1.);
#1056 = DIRECTION('',(1.,0.));
#1057 = ( GEOMETRIC_REPRESENTATION_CONTEXT(2) 
PARAMETRIC_REPRESENTATION_CONTEXT() REPRESENTATION_CONTEXT('2D SPACE',''
  ) );
#1058 = ADVANCED_FACE('',(#1059),#1047,.F.);
#1059 = FACE_BOUND('',#1060,.F.);
#1060 = EDGE_LOOP('',(#1061,#1084,#1111,#1112));
#1061 = ORIENTED_EDGE('',*,*,#1062,.F.);
#1062 = EDGE_CURVE('',#1063,#1031,#1065,.T.);
#1063 = VERTEX_POINT('',#1064);
#1064 = CARTESIAN_POINT('',(13.26,0.,16.5));
#1065 = SEAM_CURVE('',#1066,(#1070,#1077),.PCURVE_S1.);
#1066 = LINE('',#1067,#1068);
#1067 = CARTESIAN_POINT('',(13.26,0.,16.5));
#1068 = VECTOR('',#1069,1.);
#1069 = DIRECTION('',(4.038331533189E-03,0.,0.999991845906));
#1070 = PCURVE('',#1047,#1071);
#1071 = DEFINITIONAL_REPRESENTATION('',(#1072),#1076);
#1072 = LINE('',#1073,#1074);
#1073 = CARTESIAN_POINT('',(0.,0.));
#1074 = VECTOR('',#1075,1.);
#1075 = DIRECTION('',(0.,1.));
#1076 = ( GEOMETRIC_REPRESENTATION_CONTEXT(2) 
PARAMETRIC_REPRESENTATION_CONTEXT() REPRESENTATION_CONTEXT('2D SPACE',''
  ) );
#1077 = PCURVE('',#1047,#1078);
#1078 = DEFINITIONAL_REPRESENTATION('',(#1079),#1083);
#1079 = LINE('',#1080,#1081);
#1080 = CARTESIAN_POINT('',(6.28318530718,0.));
#1081 = VECTOR('',#1082,1.);
#1082 = DIRECTION('',(0.,1.));
#1083 = ( GEOMETRIC_REPRESENTATION_CONTEXT(2) 
PARAMETRIC_REPRESENTATION_CONTEXT() REPRESENTATION_CONTEXT('2D SPACE',''
  ) );
#1084 = ORIENTED_EDGE('',*,*,#1085,.T.);
#1085 = EDGE_CURVE('',#1063,#1063,#1086,.T.);
#1086 = SURFACE_CURVE('',#1087,(#1092,#1099),.PCURVE_S1.);
#1087 = CIRCLE('',#1088,13.26);
#1088 = AXIS2_PLACEMENT_3D('',#1089,#1090,#1091);
#1089 = CARTESIAN_POINT('',(0.,0.,16.5));
#1090 = DIRECTION('',(0.,0.,1.));
#1091 = DIRECTION('',(1.,0.,-0.));
#1092 = PCURVE('',#1047,#1093);
#1093 = DEFINITIONAL_REPRESENTATION('',(#1094),#1098);
#1094 = LINE('',#1095,#1096);
#1095 = CARTESIAN_POINT('',(0.,0.));
#1096 = VECTOR('',#1097,1.);
#1097 = DIRECTION('',(1.,0.));
#1098 = ( GEOMETRIC_REPRESENTATION_CONTEXT(2) 
PARAMETRIC_REPRESENTATION_CONTEXT() REPRESENTATION_CONTEXT('2D SPACE',''
  ) );
#1099 = PCURVE('',#1100,#1105);
#1100 = CONICAL_SURFACE('',#1101,2.7,0.598058460975);
#1101 = AXIS2_PLACEMENT_3D('',#1102,#1103,#1104);
#1102 = CARTESIAN_POINT('',(0.,0.,1.));
#1103 = DIRECTION('',(0.,0.,1.));
#1104 = DIRECTION('',(1.,0.,-0.));
#1105 = DEFINITIONAL_REPRESENTATION('',(#1106),#1110);
#1106 = LINE('',#1107,#1108);
#1107 = CARTESIAN_POINT('',(0.,15.5));
#1108 = VECTOR('',#1109,1.);
#1109 = DIRECTION('',(1.,0.));
#1110 = ( GEOMETRIC_REPRESENTATION_CONTEXT(2) 
PARAMETRIC_REPRESENTATION_CONTEXT() REPRESENTATION_CONTEXT('2D SPACE',''
  ) );
#1111 = ORIENTED_EDGE('',*,*,#1062,.T.);
#1112 = ORIENTED_EDGE('',*,*,#1030,.F.);
#1113 = ADVANCED_FACE('',(#1114),#1100,.F.);
#1114 = FACE_BOUND('',#1115,.F.);
#1115 = EDGE_LOOP('',(#1116,#1145,#1166,#1167));
#1116 = ORIENTED_EDGE('',*,*,#1117,.T.);
#1117 = EDGE_CURVE('',#1118,#1118,#1120,.T.);
#1118 = VERTEX_POINT('',#1119);
#1119 = CARTESIAN_POINT('',(2.7,0.,1.));
#1120 = SURFACE_CURVE('',#1121,(#1126,#1133),.PCURVE_S1.);
#1121 = CIRCLE('',#1122,2.7);
#1122 = AXIS2_PLACEMENT_3D('',#1123,#1124,#1125);
#1123 = CARTESIAN_POINT('',(0.,0.,1.));
#1124 = DIRECTION('',(0.,0.,1.));
#1125 = DIRECTION('',(1.,0.,-0.));
#1126 = PCURVE('',#1100,#1127);
#1127 = DEFINITIONAL_REPRESENTATION('',(#1128),#1132);
#1128 = LINE('',#1129,#1130);
#1129 = CARTESIAN_POINT('',(0.,0.));
#1130 = VECTOR('',#1131,1.);
#1131 = DIRECTION('',(1.,0.));
#1132 = ( GEOMETRIC_REPRESENTATION_CONTEXT(2) 
PARAMETRIC_REPRESENTATION_CONTEXT() REPRESENTATION_CONTEXT('2D SPACE',''
  ) );
#1133 = PCURVE('',#1134,#1139);
#1134 = PLANE('',#1135);
#1135 = AXIS2_PLACEMENT_3D('',#1136,#1137,#1138);
#1136 = CARTESIAN_POINT('',(0.,0.,1.));
#1137 = DIRECTION('',(0.,0.,1.));
#1138 = DIRECTION('',(1.,0.,-0.));
#1139 = DEFINITIONAL_REPRESENTATION('',(#1140),#1144);
#1140 = CIRCLE('',#1141,2.7);
#1141 = AXIS2_PLACEMENT_2D('',#1142,#1143);
#1142 = CARTESIAN_POINT('',(0.,0.));
#1143 = DIRECTION('',(1.,-0.));
#1144 = ( GEOMETRIC_REPRESENTATION_CONTEXT(2) 
PARAMETRIC_REPRESENTATION_CONTEXT() REPRESENTATION_CONTEXT('2D SPACE',''
  ) );
#1145 = ORIENTED_EDGE('',*,*,#1146,.T.);
#1146 = EDGE_CURVE('',#1118,#1063,#1147,.T.);
#1147 = SEAM_CURVE('',#1148,(#1152,#1159),.PCURVE_S1.);
#1148 = LINE('',#1149,#1150);
#1149 = CARTESIAN_POINT('',(2.7,0.,1.));
#1150 = VECTOR('',#1151,1.);
#1151 = DIRECTION('',(0.563038988866,0.,0.826430334037));
#1152 = PCURVE('',#1100,#1153);
#1153 = DEFINITIONAL_REPRESENTATION('',(#1154),#1158);
#1154 = LINE('',#1155,#1156);
#1155 = CARTESIAN_POINT('',(0.,0.));
#1156 = VECTOR('',#1157,1.);
#1157 = DIRECTION('',(0.,1.));
#1158 = ( GEOMETRIC_REPRESENTATION_CONTEXT(2) 
PARAMETRIC_REPRESENTATION_CONTEXT() REPRESENTATION_CONTEXT('2D SPACE',''
  ) );
#1159 = PCURVE('',#1100,#1160);
#1160 = DEFINITIONAL_REPRESENTATION('',(#1161),#1165);
#1161 = LINE('',#1162,#1163);
#1162 = CARTESIAN_POINT('',(6.28318530718,0.));
#1163 = VECTOR('',#1164,1.);
#1164 = DIRECTION('',(0.,1.));
#1165 = ( GEOMETRIC_REPRESENTATION_CONTEXT(2) 
PARAMETRIC_REPRESENTATION_CONTEXT() REPRESENTATION_CONTEXT('2D SPACE',''
  ) );
#1166 = ORIENTED_EDGE('',*,*,#1085,.F.);
#1167 = ORIENTED_EDGE('',*,*,#1146,.F.);
#1168 = ADVANCED_FACE('',(#1169),#1134,.T.);
#1169 = FACE_BOUND('',#1170,.F.);
#1170 = EDGE_LOOP('',(#1171));
#1171 = ORIENTED_EDGE('',*,*,#1117,.F.);
#1172 = ( GEOMETRIC_REPRESENTATION_CONTEXT(3) 
GLOBAL_UNCERTAINTY_ASSIGNED_CONTEXT((#1176)) 
GLOBAL_UNIT_ASSIGNED_CONTEXT((#1173,#1174,#1175)) REPRESENTATION_CONTEXT
('Context #1','3D Context with UNIT and UNCERTAINTY') );
#1173 = ( LENGTH_UNIT() NAMED_UNIT(*) SI_UNIT(.MILLI.,.METRE.) );
#1174 = ( NAMED_UNIT(*) PLANE_ANGLE_UNIT() SI_UNIT($,.RADIAN.) );
#1175 = ( NAMED_UNIT(*) SI_UNIT($,.STERADIAN.) SOLID_ANGLE_UNIT() );
#1176 = UNCERTAINTY_MEASURE_WITH_UNIT(LENGTH_MEASURE(1.E-07),#1173,
  'distance_accuracy_value','confusion accuracy');
#1177 = CONTEXT_DEPENDENT_SHAPE_REPRESENTATION(#1178,#1180);
#1178 = ( REPRESENTATION_RELATIONSHIP('','',#36,#10) 
REPRESENTATION_RELATIONSHIP_WITH_TRANSFORMATION(#1179) 
SHAPE_REPRESENTATION_RELATIONSHIP() );
#1179 = ITEM_DEFINED_TRANSFORMATION('','',#11,#15);
#1180 = PRODUCT_DEFINITION_SHAPE('Placement','Placement of an item',
  #1181);
#1181 = NEXT_ASSEMBLY_USAGE_OCCURRENCE('86','tube','',#5,#31,$);
#1182 = PRODUCT_RELATED_PRODUCT_CATEGORY('part',$,(#33));
#1183 = SHAPE_DEFINITION_REPRESENTATION(#1184,#1190);
#1184 = PRODUCT_DEFINITION_SHAPE('','',#1185);
#1185 = PRODUCT_DEFINITION('design','',#1186,#1189);
#1186 = PRODUCT_DEFINITION_FORMATION('','',#1187);
#1187 = PRODUCT('cap','cap','',(#1188));
#1188 = PRODUCT_CONTEXT('',#2,'mechanical');
#1189 = PRODUCT_DEFINITION_CONTEXT('part definition',#2,'design');
#1190 = ADVANCED_BREP_SHAPE_REPRESENTATION('',(#11,#1191),#1343);
#1191 = MANIFOLD_SOLID_BREP('',#1192);
#1192 = CLOSED_SHELL('',(#1193,#1281,#1335,#1339));
#1193 = ADVANCED_FACE('',(#1194),#1208,.T.);
#1194 = FACE_BOUND('',#1195,.F.);
#1195 = EDGE_LOOP('',(#1196,#1226,#1253,#1254));
#1196 = ORIENTED_EDGE('',*,*,#1197,.T.);
#1197 = EDGE_CURVE('',#1198,#1200,#1202,.T.);
#1198 = VERTEX_POINT('',#1199);
#1199 = CARTESIAN_POINT('',(17.375,0.,102.59));
#1200 = VERTEX_POINT('',#1201);
#1201 = CARTESIAN_POINT('',(17.375,0.,114.8));
#1202 = SEAM_CURVE('',#1203,(#1207,#1219),.PCURVE_S1.);
#1203 = LINE('',#1204,#1205);
#1204 = CARTESIAN_POINT('',(17.375,0.,102.59));
#1205 = VECTOR('',#1206,1.);
#1206 = DIRECTION('',(0.,0.,1.));
#1207 = PCURVE('',#1208,#1213);
#1208 = CYLINDRICAL_SURFACE('',#1209,17.375);
#1209 = AXIS2_PLACEMENT_3D('',#1210,#1211,#1212);
#1210 = CARTESIAN_POINT('',(0.,0.,102.59));
#1211 = DIRECTION('',(-0.,-0.,-1.));
#1212 = DIRECTION('',(1.,0.,0.));
#1213 = DEFINITIONAL_REPRESENTATION('',(#1214),#1218);
#1214 = LINE('',#1215,#1216);
#1215 = CARTESIAN_POINT('',(-0.,0.));
#1216 = VECTOR('',#1217,1.);
#1217 = DIRECTION('',(-0.,-1.));
#1218 = ( GEOMETRIC_REPRESENTATION_CONTEXT(2) 
PARAMETRIC_REPRESENTATION_CONTEXT() REPRESENTATION_CONTEXT('2D SPACE',''
  ) );
#1219 = PCURVE('',#1208,#1220);
#1220 = DEFINITIONAL_REPRESENTATION('',(#1221),#1225);
#1221 = LINE('',#1222,#1223);
#1222 = CARTESIAN_POINT('',(-6.28318530718,0.));
#1223 = VECTOR('',#1224,1.);
#1224 = DIRECTION('',(-0.,-1.));
#1225 = ( GEOMETRIC_REPRESENTATION_CONTEXT(2) 
PARAMETRIC_REPRESENTATION_CONTEXT() REPRESENTATION_CONTEXT('2D SPACE',''
  ) );
#1226 = ORIENTED_EDGE('',*,*,#1227,.T.);
#1227 = EDGE_CURVE('',#1200,#1200,#1228,.T.);
#1228 = SURFACE_CURVE('',#1229,(#1234,#1241),.PCURVE_S1.);
#1229 = CIRCLE('',#1230,17.375);
#1230 = AXIS2_PLACEMENT_3D('',#1231,#1232,#1233);
#1231 = CARTESIAN_POINT('',(0.,0.,114.8));
#1232 = DIRECTION('',(0.,0.,1.));
#1233 = DIRECTION('',(1.,0.,-0.));
#1234 = PCURVE('',#1208,#1235);
#1235 = DEFINITIONAL_REPRESENTATION('',(#1236),#1240);
#1236 = LINE('',#1237,#1238);
#1237 = CARTESIAN_POINT('',(-0.,-12.21));
#1238 = VECTOR('',#1239,1.);
#1239 = DIRECTION('',(-1.,0.));
#1240 = ( GEOMETRIC_REPRESENTATION_CONTEXT(2) 
PARAMETRIC_REPRESENTATION_CONTEXT() REPRESENTATION_CONTEXT('2D SPACE',''
  ) );
#1241 = PCURVE('',#1242,#1247);
#1242 = TOROIDAL_SURFACE('',#1243,16.375,1.);
#1243 = AXIS2_PLACEMENT_3D('',#1244,#1245,#1246);
#1244 = CARTESIAN_POINT('',(0.,0.,114.8));
#1245 = DIRECTION('',(0.,0.,1.));
#1246 = DIRECTION('',(1.,0.,-0.));
#1247 = DEFINITIONAL_REPRESENTATION('',(#1248),#1252);
#1248 = LINE('',#1249,#1250);
#1249 = CARTESIAN_POINT('',(0.,0.));
#1250 = VECTOR('',#1251,1.);
#1251 = DIRECTION('',(1.,0.));
#1252 = ( GEOMETRIC_REPRESENTATION_CONTEXT(2) 
PARAMETRIC_REPRESENTATION_CONTEXT() REPRESENTATION_CONTEXT('2D SPACE',''
  ) );
#1253 = ORIENTED_EDGE('',*,*,#1197,.F.);
#1254 = ORIENTED_EDGE('',*,*,#1255,.F.);
#1255 = EDGE_CURVE('',#1198,#1198,#1256,.T.);
#1256 = SURFACE_CURVE('',#1257,(#1262,#1269),.PCURVE_S1.);
#1257 = CIRCLE('',#1258,17.375);
#1258 = AXIS2_PLACEMENT_3D('',#1259,#1260,#1261);
#1259 = CARTESIAN_POINT('',(0.,0.,102.59));
#1260 = DIRECTION('',(0.,0.,1.));
#1261 = DIRECTION('',(1.,0.,0.));
#1262 = PCURVE('',#1208,#1263);
#1263 = DEFINITIONAL_REPRESENTATION('',(#1264),#1268);
#1264 = LINE('',#1265,#1266);
#1265 = CARTESIAN_POINT('',(-0.,0.));
#1266 = VECTOR('',#1267,1.);
#1267 = DIRECTION('',(-1.,0.));
#1268 = ( GEOMETRIC_REPRESENTATION_CONTEXT(2) 
PARAMETRIC_REPRESENTATION_CONTEXT() REPRESENTATION_CONTEXT('2D SPACE',''
  ) );
#1269 = PCURVE('',#1270,#1275);
#1270 = PLANE('',#1271);
#1271 = AXIS2_PLACEMENT_3D('',#1272,#1273,#1274);
#1272 = CARTESIAN_POINT('',(-1.259225445792E-15,1.809176287077E-15,
    102.59));
#1273 = DIRECTION('',(0.,0.,1.));
#1274 = DIRECTION('',(1.,0.,-0.));
#1275 = DEFINITIONAL_REPRESENTATION('',(#1276),#1280);
#1276 = CIRCLE('',#1277,17.375);
#1277 = AXIS2_PLACEMENT_2D('',#1278,#1279);
#1278 = CARTESIAN_POINT('',(1.259225445792E-15,-1.809176287077E-15));
#1279 = DIRECTION('',(1.,0.));
#1280 = ( GEOMETRIC_REPRESENTATION_CONTEXT(2) 
PARAMETRIC_REPRESENTATION_CONTEXT() REPRESENTATION_CONTEXT('2D SPACE',''
  ) );
#1281 = ADVANCED_FACE('',(#1282),#1242,.T.);
#1282 = FACE_BOUND('',#1283,.T.);
#1283 = EDGE_LOOP('',(#1284,#1306,#1307,#1308));
#1284 = ORIENTED_EDGE('',*,*,#1285,.F.);
#1285 = EDGE_CURVE('',#1200,#1286,#1288,.T.);
#1286 = VERTEX_POINT('',#1287);
#1287 = CARTESIAN_POINT('',(16.375,0.,115.8));
#1288 = SEAM_CURVE('',#1289,(#1294,#1300),.PCURVE_S1.);
#1289 = CIRCLE('',#1290,1.);
#1290 = AXIS2_PLACEMENT_3D('',#1291,#1292,#1293);
#1291 = CARTESIAN_POINT('',(16.375,0.,114.8));
#1292 = DIRECTION('',(0.,-1.,0.));
#1293 = DIRECTION('',(1.,0.,0.));
#1294 = PCURVE('',#1242,#1295);
#1295 = DEFINITIONAL_REPRESENTATION('',(#1296),#1299);
#1296 = B_SPLINE_CURVE_WITH_KNOTS('',1,(#1297,#1298),.UNSPECIFIED.,.F.,
  .F.,(2,2),(0.,1.570796326795),.PIECEWISE_BEZIER_KNOTS.);
#1297 = CARTESIAN_POINT('',(0.,0.));
#1298 = CARTESIAN_POINT('',(0.,1.570796326795));
#1299 = ( GEOMETRIC_REPRESENTATION_CONTEXT(2) 
PARAMETRIC_REPRESENTATION_CONTEXT() REPRESENTATION_CONTEXT('2D SPACE',''
  ) );
#1300 = PCURVE('',#1242,#1301);
#1301 = DEFINITIONAL_REPRESENTATION('',(#1302),#1305);
#1302 = B_SPLINE_CURVE_WITH_KNOTS('',1,(#1303,#1304),.UNSPECIFIED.,.F.,
  .F.,(2,2),(0.,1.570796326795),.PIECEWISE_BEZIER_KNOTS.);
#1303 = CARTESIAN_POINT('',(6.28318530718,0.));
#1304 = CARTESIAN_POINT('',(6.28318530718,1.570796326795));
#1305 = ( GEOMETRIC_REPRESENTATION_CONTEXT(2) 
PARAMETRIC_REPRESENTATION_CONTEXT() REPRESENTATION_CONTEXT('2D SPACE',''
  ) );
#1306 = ORIENTED_EDGE('',*,*,#1227,.T.);
#1307 = ORIENTED_EDGE('',*,*,#1285,.T.);
#1308 = ORIENTED_EDGE('',*,*,#1309,.F.);
#1309 = EDGE_CURVE('',#1286,#1286,#1310,.T.);
#1310 = SURFACE_CURVE('',#1311,(#1316,#1323),.PCURVE_S1.);
#1311 = CIRCLE('',#1312,16.375);
#1312 = AXIS2_PLACEMENT_3D('',#1313,#1314,#1315);
#1313 = CARTESIAN_POINT('',(0.,0.,115.8));
#1314 = DIRECTION('',(0.,0.,1.));
#1315 = DIRECTION('',(1.,0.,-0.));
#1316 = PCURVE('',#1242,#1317);
#1317 = DEFINITIONAL_REPRESENTATION('',(#1318),#1322);
#1318 = LINE('',#1319,#1320);
#1319 = CARTESIAN_POINT('',(0.,1.570796326795));
#1320 = VECTOR('',#1321,1.);
#1321 = DIRECTION('',(1.,0.));
#1322 = ( GEOMETRIC_REPRESENTATION_CONTEXT(2) 
PARAMETRIC_REPRESENTATION_CONTEXT() REPRESENTATION_CONTEXT('2D SPACE',''
  ) );
#1323 = PCURVE('',#1324,#1329);
#1324 = PLANE('',#1325);
#1325 = AXIS2_PLACEMENT_3D('',#1326,#1327,#1328);
#1326 = CARTESIAN_POINT('',(-1.259225445792E-15,1.809176287077E-15,115.8
    ));
#1327 = DIRECTION('',(0.,0.,1.));
#1328 = DIRECTION('',(1.,0.,-0.));
#1329 = DEFINITIONAL_REPRESENTATION('',(#1330),#1334);
#1330 = CIRCLE('',#1331,16.375);
#1331 = AXIS2_PLACEMENT_2D('',#1332,#1333);
#1332 = CARTESIAN_POINT('',(1.259225445792E-15,-1.809176287077E-15));
#1333 = DIRECTION('',(1.,0.));
#1334 = ( GEOMETRIC_REPRESENTATION_CONTEXT(2) 
PARAMETRIC_REPRESENTATION_CONTEXT() REPRESENTATION_CONTEXT('2D SPACE',''
  ) );
#1335 = ADVANCED_FACE('',(#1336),#1270,.F.);
#1336 = FACE_BOUND('',#1337,.F.);
#1337 = EDGE_LOOP('',(#1338));
#1338 = ORIENTED_EDGE('',*,*,#1255,.T.);
#1339 = ADVANCED_FACE('',(#1340),#1324,.T.);
#1340 = FACE_BOUND('',#1341,.T.);
#1341 = EDGE_LOOP('',(#1342));
#1342 = ORIENTED_EDGE('',*,*,#1309,.T.);
#1343 = ( GEOMETRIC_REPRESENTATION_CONTEXT(3) 
GLOBAL_UNCERTAINTY_ASSIGNED_CONTEXT((#1347)) 
GLOBAL_UNIT_ASSIGNED_CONTEXT((#1344,#1345,#1346)) REPRESENTATION_CONTEXT
('Context #1','3D Context with UNIT and UNCERTAINTY') );
#1344 = ( LENGTH_UNIT() NAMED_UNIT(*) SI_UNIT(.MILLI.,.METRE.) );
#1345 = ( NAMED_UNIT(*) PLANE_ANGLE_UNIT() SI_UNIT($,.RADIAN.) );
#1346 = ( NAMED_UNIT(*) SI_UNIT($,.STERADIAN.) SOLID_ANGLE_UNIT() );
#1347 = UNCERTAINTY_MEASURE_WITH_UNIT(LENGTH_MEASURE(1.E-07),#1344,
  'distance_accuracy_value','confusion accuracy');
#1348 = CONTEXT_DEPENDENT_SHAPE_REPRESENTATION(#1349,#1351);
#1349 = ( REPRESENTATION_RELATIONSHIP('','',#1190,#10) 
REPRESENTATION_RELATIONSHIP_WITH_TRANSFORMATION(#1350) 
SHAPE_REPRESENTATION_RELATIONSHIP() );
#1350 = ITEM_DEFINED_TRANSFORMATION('','',#11,#19);
#1351 = PRODUCT_DEFINITION_SHAPE('Placement','Placement of an item',
  #1352);
#1352 = NEXT_ASSEMBLY_USAGE_OCCURRENCE('87','cap','',#5,#1185,$);
#1353 = PRODUCT_RELATED_PRODUCT_CATEGORY('part',$,(#1187));
#1354 = MECHANICAL_DESIGN_GEOMETRIC_PRESENTATION_REPRESENTATION('',(
    #1355),#1172);
#1355 = STYLED_ITEM('color',(#1356),#37);
#1356 = PRESENTATION_STYLE_ASSIGNMENT((#1357));
#1357 = SURFACE_STYLE_USAGE(.BOTH.,#1358);
#1358 = SURFACE_SIDE_STYLE('',(#1359));
#1359 = SURFACE_STYLE_FILL_AREA(#1360);
#1360 = FILL_AREA_STYLE('',(#1361));
#1361 = FILL_AREA_STYLE_COLOUR('',#1362);
#1362 = COLOUR_RGB('',0.930000003373,0.930000003373,0.899999998185);
#1363 = MECHANICAL_DESIGN_GEOMETRIC_PRESENTATION_REPRESENTATION('',(
    #1364),#1343);
#1364 = STYLED_ITEM('color',(#1365),#1191);
#1365 = PRESENTATION_STYLE_ASSIGNMENT((#1366));
#1366 = SURFACE_STYLE_USAGE(.BOTH.,#1367);
#1367 = SURFACE_SIDE_STYLE('',(#1368));
#1368 = SURFACE_STYLE_FILL_AREA(#1369);
#1369 = FILL_AREA_STYLE('',(#1370));
#1370 = FILL_AREA_STYLE_COLOUR('',#1371);
#1371 = COLOUR_RGB('',0.1599999992,0.420000006308,0.800000010877);
ENDSEC;
END-ISO-10303-21;
