ISO-10303-21;
HEADER;
FILE_DESCRIPTION(('Open CASCADE Model'),'2;1');
FILE_NAME('Open CASCADE Shape Model','2026-09-26T11:40:18',('Author'),(
    'Open CASCADE'),'Open CASCADE STEP processor 7.9','Open CASCADE 7.9'
  ,'Unknown');
FILE_SCHEMA(('AUTOMOTIVE_DESIGN { 1 0 10303 214 1 1 1 1 }'));
ENDSEC;
DATA;
#1 = APPLICATION_PROTOCOL_DEFINITION('international standard',
  'automotive_design',2000,#2);
#2 = APPLICATION_CONTEXT(
  'core data for automotive mechanical design processes');
#3 = SHAPE_DEFINITION_REPRESENTATION(#4,#10);
#4 = PRODUCT_DEFINITION_SHAPE('','',#5);
#5 = PRODUCT_DEFINITION('design','',#6,#9);
#6 = PRODUCT_DEFINITION_FORMATION('','',#7);
#7 = PRODUCT('crucible_replica','crucible_replica','',(#8));
#8 = PRODUCT_CONTEXT('',#2,'mechanical');
#9 = PRODUCT_DEFINITION_CONTEXT('part definition',#2,'design');
#10 = SHAPE_REPRESENTATION('',(#11,#15,#19,#23,#27),#31);
#11 = AXIS2_PLACEMENT_3D('',#12,#13,#14);
#12 = CARTESIAN_POINT('',(0.,0.,0.));
#13 = DIRECTION('',(0.,0.,1.));
#14 = DIRECTION('',(1.,0.,-0.));
#15 = AXIS2_PLACEMENT_3D('',#16,#17,#18);
#16 = CARTESIAN_POINT('',(0.,0.,0.));
#17 = DIRECTION('',(0.,0.,1.));
#18 = DIRECTION('',(1.,0.,-0.));
#19 = AXIS2_PLACEMENT_3D('',#20,#21,#22);
#20 = CARTESIAN_POINT('',(0.,0.,0.));
#21 = DIRECTION('',(0.,0.,1.));
#22 = DIRECTION('',(1.,0.,-0.));
#23 = AXIS2_PLACEMENT_3D('',#24,#25,#26);
#24 = CARTESIAN_POINT('',(0.,0.,0.));
#25 = DIRECTION('',(0.,0.,1.));
#26 = DIRECTION('',(1.,0.,-0.));
#27 = AXIS2_PLACEMENT_3D('',#28,#29,#30);
#28 = CARTESIAN_POINT('',(0.,0.,0.));
#29 = DIRECTION('',(0.,0.,1.));
#30 = DIRECTION('',(1.,0.,-0.));
#31 = ( GEOMETRIC_REPRESENTATION_CONTEXT(3) 
GLOBAL_UNCERTAINTY_ASSIGNED_CONTEXT((#35)) GLOBAL_UNIT_ASSIGNED_CONTEXT(
(#32,#33,#34)) REPRESENTATION_CONTEXT('Context #1',
  '3D Context with UNIT and UNCERTAINTY') );
#32 = ( LENGTH_UNIT() NAMED_UNIT(*) SI_UNIT(.MILLI.,.METRE.) );
#33 = ( NAMED_UNIT(*) PLANE_ANGLE_UNIT() SI_UNIT($,.RADIAN.) );
#34 = ( NAMED_UNIT(*) SI_UNIT($,.STERADIAN.) SOLID_ANGLE_UNIT() );
#35 = UNCERTAINTY_MEASURE_WITH_UNIT(LENGTH_MEASURE(1.E-07),#32,
  'distance_accuracy_value','confusion accuracy');
#36 = PRODUCT_RELATED_PRODUCT_CATEGORY('part',$,(#7));
#37 = SHAPE_DEFINITION_REPRESENTATION(#38,#44);
#38 = PRODUCT_DEFINITION_SHAPE('','',#39);
#39 = PRODUCT_DEFINITION('design','',#40,#43);
#40 = PRODUCT_DEFINITION_FORMATION('','',#41);
#41 = PRODUCT('crucible','crucible','',(#42));
#42 = PRODUCT_CONTEXT('',#2,'mechanical');
#43 = PRODUCT_DEFINITION_CONTEXT('part definition',#2,'design');
#44 = ADVANCED_BREP_SHAPE_REPRESENTATION('',(#11,#45),#502);
#45 = MANIFOLD_SOLID_BREP('',#46);
#46 = CLOSED_SHELL('',(#47,#135,#170,#225,#280,#335,#370,#425,#475));
#47 = ADVANCED_FACE('',(#48),#62,.F.);
#48 = FACE_BOUND('',#49,.F.);
#49 = EDGE_LOOP('',(#50,#80,#107,#108));
#50 = ORIENTED_EDGE('',*,*,#51,.T.);
#51 = EDGE_CURVE('',#52,#54,#56,.T.);
#52 = VERTEX_POINT('',#53);
#53 = CARTESIAN_POINT('',(3.45,0.,16.1772329247));
#54 = VERTEX_POINT('',#55);
#55 = CARTESIAN_POINT('',(3.45,0.,0.));
#56 = SEAM_CURVE('',#57,(#61,#73),.PCURVE_S1.);
#57 = LINE('',#58,#59);
#58 = CARTESIAN_POINT('',(3.45,0.,16.1772329247));
#59 = VECTOR('',#60,1.);
#60 = DIRECTION('',(5.490298766388E-17,0.,-1.));
#61 = PCURVE('',#62,#67);
#62 = CYLINDRICAL_SURFACE('',#63,3.45);
#63 = AXIS2_PLACEMENT_3D('',#64,#65,#66);
#64 = CARTESIAN_POINT('',(0.,0.,16.1772329247));
#65 = DIRECTION('',(-0.,-0.,-1.));
#66 = DIRECTION('',(1.,0.,0.));
#67 = DEFINITIONAL_REPRESENTATION('',(#68),#72);
#68 = LINE('',#69,#70);
#69 = CARTESIAN_POINT('',(6.28318530718,0.));
#70 = VECTOR('',#71,1.);
#71 = DIRECTION('',(-0.,1.));
#72 = ( GEOMETRIC_REPRESENTATION_CONTEXT(2) 
PARAMETRIC_REPRESENTATION_CONTEXT() REPRESENTATION_CONTEXT('2D SPACE',''
  ) );
#73 = PCURVE('',#62,#74);
#74 = DEFINITIONAL_REPRESENTATION('',(#75),#79);
#75 = LINE('',#76,#77);
#76 = CARTESIAN_POINT('',(-4.138911435803E-13,0.));
#77 = VECTOR('',#78,1.);
#78 = DIRECTION('',(-0.,1.));
#79 = ( GEOMETRIC_REPRESENTATION_CONTEXT(2) 
PARAMETRIC_REPRESENTATION_CONTEXT() REPRESENTATION_CONTEXT('2D SPACE',''
  ) );
#80 = ORIENTED_EDGE('',*,*,#81,.T.);
#81 = EDGE_CURVE('',#54,#54,#82,.T.);
#82 = SURFACE_CURVE('',#83,(#88,#95),.PCURVE_S1.);
#83 = CIRCLE('',#84,3.45);
#84 = AXIS2_PLACEMENT_3D('',#85,#86,#87);
#85 = CARTESIAN_POINT('',(0.,0.,0.));
#86 = DIRECTION('',(0.,0.,1.));
#87 = DIRECTION('',(1.,0.,0.));
#88 = PCURVE('',#62,#89);
#89 = DEFINITIONAL_REPRESENTATION('',(#90),#94);
#90 = LINE('',#91,#92);
#91 = CARTESIAN_POINT('',(6.28318530718,16.1772329247));
#92 = VECTOR('',#93,1.);
#93 = DIRECTION('',(-1.,0.));
#94 = ( GEOMETRIC_REPRESENTATION_CONTEXT(2) 
PARAMETRIC_REPRESENTATION_CONTEXT() REPRESENTATION_CONTEXT('2D SPACE',''
  ) );
#95 = PCURVE('',#96,#101);
#96 = PLANE('',#97);
#97 = AXIS2_PLACEMENT_3D('',#98,#99,#100);
#98 = CARTESIAN_POINT('',(0.,0.,0.));
#99 = DIRECTION('',(0.,0.,1.));
#100 = DIRECTION('',(1.,0.,0.));
#101 = DEFINITIONAL_REPRESENTATION('',(#102),#106);
#102 = CIRCLE('',#103,3.45);
#103 = AXIS2_PLACEMENT_2D('',#104,#105);
#104 = CARTESIAN_POINT('',(0.,0.));
#105 = DIRECTION('',(1.,0.));
#106 = ( GEOMETRIC_REPRESENTATION_CONTEXT(2) 
PARAMETRIC_REPRESENTATION_CONTEXT() REPRESENTATION_CONTEXT('2D SPACE',''
  ) );
#107 = ORIENTED_EDGE('',*,*,#51,.F.);
#108 = ORIENTED_EDGE('',*,*,#109,.F.);
#109 = EDGE_CURVE('',#52,#52,#110,.T.);
#110 = SURFACE_CURVE('',#111,(#116,#123),.PCURVE_S1.);
#111 = CIRCLE('',#112,3.45);
#112 = AXIS2_PLACEMENT_3D('',#113,#114,#115);
#113 = CARTESIAN_POINT('',(0.,0.,16.1772329247));
#114 = DIRECTION('',(0.,0.,1.));
#115 = DIRECTION('',(1.,0.,0.));
#116 = PCURVE('',#62,#117);
#117 = DEFINITIONAL_REPRESENTATION('',(#118),#122);
#118 = LINE('',#119,#120);
#119 = CARTESIAN_POINT('',(6.28318530718,0.));
#120 = VECTOR('',#121,1.);
#121 = DIRECTION('',(-1.,0.));
#122 = ( GEOMETRIC_REPRESENTATION_CONTEXT(2) 
PARAMETRIC_REPRESENTATION_CONTEXT() REPRESENTATION_CONTEXT('2D SPACE',''
  ) );
#123 = PCURVE('',#124,#129);
#124 = CONICAL_SURFACE('',#125,28.55,0.948066277023);
#125 = AXIS2_PLACEMENT_3D('',#126,#127,#128);
#126 = CARTESIAN_POINT('',(0.,0.,34.2));
#127 = DIRECTION('',(0.,0.,1.));
#128 = DIRECTION('',(1.,0.,0.));
#129 = DEFINITIONAL_REPRESENTATION('',(#130),#134);
#130 = LINE('',#131,#132);
#131 = CARTESIAN_POINT('',(0.,-18.0227670753));
#132 = VECTOR('',#133,1.);
#133 = DIRECTION('',(1.,-0.));
#134 = ( GEOMETRIC_REPRESENTATION_CONTEXT(2) 
PARAMETRIC_REPRESENTATION_CONTEXT() REPRESENTATION_CONTEXT('2D SPACE',''
  ) );
#135 = ADVANCED_FACE('',(#136,#139),#96,.F.);
#136 = FACE_BOUND('',#137,.T.);
#137 = EDGE_LOOP('',(#138));
#138 = ORIENTED_EDGE('',*,*,#81,.T.);
#139 = FACE_BOUND('',#140,.T.);
#140 = EDGE_LOOP('',(#141));
#141 = ORIENTED_EDGE('',*,*,#142,.F.);
#142 = EDGE_CURVE('',#143,#143,#145,.T.);
#143 = VERTEX_POINT('',#144);
#144 = CARTESIAN_POINT('',(35.65,0.,0.));
#145 = SURFACE_CURVE('',#146,(#151,#158),.PCURVE_S1.);
#146 = CIRCLE('',#147,35.65);
#147 = AXIS2_PLACEMENT_3D('',#148,#149,#150);
#148 = CARTESIAN_POINT('',(0.,0.,0.));
#149 = DIRECTION('',(0.,0.,1.));
#150 = DIRECTION('',(1.,0.,0.));
#151 = PCURVE('',#96,#152);
#152 = DEFINITIONAL_REPRESENTATION('',(#153),#157);
#153 = CIRCLE('',#154,35.65);
#154 = AXIS2_PLACEMENT_2D('',#155,#156);
#155 = CARTESIAN_POINT('',(0.,0.));
#156 = DIRECTION('',(1.,0.));
#157 = ( GEOMETRIC_REPRESENTATION_CONTEXT(2) 
PARAMETRIC_REPRESENTATION_CONTEXT() REPRESENTATION_CONTEXT('2D SPACE',''
  ) );
#158 = PCURVE('',#159,#164);
#159 = CONICAL_SURFACE('',#160,35.65,0.785398163397);
#160 = AXIS2_PLACEMENT_3D('',#161,#162,#163);
#161 = CARTESIAN_POINT('',(0.,0.,0.));
#162 = DIRECTION('',(0.,0.,1.));
#163 = DIRECTION('',(1.,0.,0.));
#164 = DEFINITIONAL_REPRESENTATION('',(#165),#169);
#165 = LINE('',#166,#167);
#166 = CARTESIAN_POINT('',(0.,0.));
#167 = VECTOR('',#168,1.);
#168 = DIRECTION('',(1.,0.));
#169 = ( GEOMETRIC_REPRESENTATION_CONTEXT(2) 
PARAMETRIC_REPRESENTATION_CONTEXT() REPRESENTATION_CONTEXT('2D SPACE',''
  ) );
#170 = ADVANCED_FACE('',(#171),#159,.T.);
#171 = FACE_BOUND('',#172,.T.);
#172 = EDGE_LOOP('',(#173,#174,#197,#224));
#173 = ORIENTED_EDGE('',*,*,#142,.T.);
#174 = ORIENTED_EDGE('',*,*,#175,.T.);
#175 = EDGE_CURVE('',#143,#176,#178,.T.);
#176 = VERTEX_POINT('',#177);
#177 = CARTESIAN_POINT('',(37.65,0.,2.));
#178 = SEAM_CURVE('',#179,(#183,#190),.PCURVE_S1.);
#179 = LINE('',#180,#181);
#180 = CARTESIAN_POINT('',(35.65,0.,0.));
#181 = VECTOR('',#182,1.);
#182 = DIRECTION('',(0.707106781187,0.,0.707106781187));
#183 = PCURVE('',#159,#184);
#184 = DEFINITIONAL_REPRESENTATION('',(#185),#189);
#185 = LINE('',#186,#187);
#186 = CARTESIAN_POINT('',(6.28318530718,0.));
#187 = VECTOR('',#188,1.);
#188 = DIRECTION('',(0.,1.));
#189 = ( GEOMETRIC_REPRESENTATION_CONTEXT(2) 
PARAMETRIC_REPRESENTATION_CONTEXT() REPRESENTATION_CONTEXT('2D SPACE',''
  ) );
#190 = PCURVE('',#159,#191);
#191 = DEFINITIONAL_REPRESENTATION('',(#192),#196);
#192 = LINE('',#193,#194);
#193 = CARTESIAN_POINT('',(4.138911435803E-13,0.));
#194 = VECTOR('',#195,1.);
#195 = DIRECTION('',(0.,1.));
#196 = ( GEOMETRIC_REPRESENTATION_CONTEXT(2) 
PARAMETRIC_REPRESENTATION_CONTEXT() REPRESENTATION_CONTEXT('2D SPACE',''
  ) );
#197 = ORIENTED_EDGE('',*,*,#198,.F.);
#198 = EDGE_CURVE('',#176,#176,#199,.T.);
#199 = SURFACE_CURVE('',#200,(#205,#212),.PCURVE_S1.);
#200 = CIRCLE('',#201,37.65);
#201 = AXIS2_PLACEMENT_3D('',#202,#203,#204);
#202 = CARTESIAN_POINT('',(0.,0.,2.));
#203 = DIRECTION('',(0.,0.,1.));
#204 = DIRECTION('',(1.,0.,0.));
#205 = PCURVE('',#159,#206);
#206 = DEFINITIONAL_REPRESENTATION('',(#207),#211);
#207 = LINE('',#208,#209);
#208 = CARTESIAN_POINT('',(0.,2.));
#209 = VECTOR('',#210,1.);
#210 = DIRECTION('',(1.,0.));
#211 = ( GEOMETRIC_REPRESENTATION_CONTEXT(2) 
PARAMETRIC_REPRESENTATION_CONTEXT() REPRESENTATION_CONTEXT('2D SPACE',''
  ) );
#212 = PCURVE('',#213,#218);
#213 = CYLINDRICAL_SURFACE('',#214,37.65);
#214 = AXIS2_PLACEMENT_3D('',#215,#216,#217);
#215 = CARTESIAN_POINT('',(0.,0.,2.));
#216 = DIRECTION('',(0.,0.,1.));
#217 = DIRECTION('',(1.,0.,0.));
#218 = DEFINITIONAL_REPRESENTATION('',(#219),#223);
#219 = LINE('',#220,#221);
#220 = CARTESIAN_POINT('',(0.,0.));
#221 = VECTOR('',#222,1.);
#222 = DIRECTION('',(1.,0.));
#223 = ( GEOMETRIC_REPRESENTATION_CONTEXT(2) 
PARAMETRIC_REPRESENTATION_CONTEXT() REPRESENTATION_CONTEXT('2D SPACE',''
  ) );
#224 = ORIENTED_EDGE('',*,*,#175,.F.);
#225 = ADVANCED_FACE('',(#226),#213,.T.);
#226 = FACE_BOUND('',#227,.T.);
#227 = EDGE_LOOP('',(#228,#229,#252,#279));
#228 = ORIENTED_EDGE('',*,*,#198,.T.);
#229 = ORIENTED_EDGE('',*,*,#230,.T.);
#230 = EDGE_CURVE('',#176,#231,#233,.T.);
#231 = VERTEX_POINT('',#232);
#232 = CARTESIAN_POINT('',(37.65,0.,113.3));
#233 = SEAM_CURVE('',#234,(#238,#245),.PCURVE_S1.);
#234 = LINE('',#235,#236);
#235 = CARTESIAN_POINT('',(37.65,0.,2.));
#236 = VECTOR('',#237,1.);
#237 = DIRECTION('',(0.,0.,1.));
#238 = PCURVE('',#213,#239);
#239 = DEFINITIONAL_REPRESENTATION('',(#240),#244);
#240 = LINE('',#241,#242);
#241 = CARTESIAN_POINT('',(6.28318530718,0.));
#242 = VECTOR('',#243,1.);
#243 = DIRECTION('',(0.,1.));
#244 = ( GEOMETRIC_REPRESENTATION_CONTEXT(2) 
PARAMETRIC_REPRESENTATION_CONTEXT() REPRESENTATION_CONTEXT('2D SPACE',''
  ) );
#245 = PCURVE('',#213,#246);
#246 = DEFINITIONAL_REPRESENTATION('',(#247),#251);
#247 = LINE('',#248,#249);
#248 = CARTESIAN_POINT('',(4.138911435803E-13,0.));
#249 = VECTOR('',#250,1.);
#250 = DIRECTION('',(0.,1.));
#251 = ( GEOMETRIC_REPRESENTATION_CONTEXT(2) 
PARAMETRIC_REPRESENTATION_CONTEXT() REPRESENTATION_CONTEXT('2D SPACE',''
  ) );
#252 = ORIENTED_EDGE('',*,*,#253,.F.);
#253 = EDGE_CURVE('',#231,#231,#254,.T.);
#254 = SURFACE_CURVE('',#255,(#260,#267),.PCURVE_S1.);
#255 = CIRCLE('',#256,37.65);
#256 = AXIS2_PLACEMENT_3D('',#257,#258,#259);
#257 = CARTESIAN_POINT('',(0.,0.,113.3));
#258 = DIRECTION('',(0.,0.,1.));
#259 = DIRECTION('',(1.,0.,0.));
#260 = PCURVE('',#213,#261);
#261 = DEFINITIONAL_REPRESENTATION('',(#262),#266);
#262 = LINE('',#263,#264);
#263 = CARTESIAN_POINT('',(0.,111.3));
#264 = VECTOR('',#265,1.);
#265 = DIRECTION('',(1.,0.));
#266 = ( GEOMETRIC_REPRESENTATION_CONTEXT(2) 
PARAMETRIC_REPRESENTATION_CONTEXT() REPRESENTATION_CONTEXT('2D SPACE',''
  ) );
#267 = PCURVE('',#268,#273);
#268 = CONICAL_SURFACE('',#269,37.65,0.785398163397);
#269 = AXIS2_PLACEMENT_3D('',#270,#271,#272);
#270 = CARTESIAN_POINT('',(0.,0.,113.3));
#271 = DIRECTION('',(-0.,-0.,-1.));
#272 = DIRECTION('',(1.,0.,0.));
#273 = DEFINITIONAL_REPRESENTATION('',(#274),#278);
#274 = LINE('',#275,#276);
#275 = CARTESIAN_POINT('',(6.28318530718,0.));
#276 = VECTOR('',#277,1.);
#277 = DIRECTION('',(-1.,0.));
#278 = ( GEOMETRIC_REPRESENTATION_CONTEXT(2) 
PARAMETRIC_REPRESENTATION_CONTEXT() REPRESENTATION_CONTEXT('2D SPACE',''
  ) );
#279 = ORIENTED_EDGE('',*,*,#230,.F.);
#280 = ADVANCED_FACE('',(#281),#268,.T.);
#281 = FACE_BOUND('',#282,.T.);
#282 = EDGE_LOOP('',(#283,#284,#307,#334));
#283 = ORIENTED_EDGE('',*,*,#253,.T.);
#284 = ORIENTED_EDGE('',*,*,#285,.T.);
#285 = EDGE_CURVE('',#231,#286,#288,.T.);
#286 = VERTEX_POINT('',#287);
#287 = CARTESIAN_POINT('',(35.65,0.,115.3));
#288 = SEAM_CURVE('',#289,(#293,#300),.PCURVE_S1.);
#289 = LINE('',#290,#291);
#290 = CARTESIAN_POINT('',(37.65,0.,113.3));
#291 = VECTOR('',#292,1.);
#292 = DIRECTION('',(-0.707106781187,0.,0.707106781187));
#293 = PCURVE('',#268,#294);
#294 = DEFINITIONAL_REPRESENTATION('',(#295),#299);
#295 = LINE('',#296,#297);
#296 = CARTESIAN_POINT('',(0.,0.));
#297 = VECTOR('',#298,1.);
#298 = DIRECTION('',(-0.,-1.));
#299 = ( GEOMETRIC_REPRESENTATION_CONTEXT(2) 
PARAMETRIC_REPRESENTATION_CONTEXT() REPRESENTATION_CONTEXT('2D SPACE',''
  ) );
#300 = PCURVE('',#268,#301);
#301 = DEFINITIONAL_REPRESENTATION('',(#302),#306);
#302 = LINE('',#303,#304);
#303 = CARTESIAN_POINT('',(6.283185307179,0.));
#304 = VECTOR('',#305,1.);
#305 = DIRECTION('',(-0.,-1.));
#306 = ( GEOMETRIC_REPRESENTATION_CONTEXT(2) 
PARAMETRIC_REPRESENTATION_CONTEXT() REPRESENTATION_CONTEXT('2D SPACE',''
  ) );
#307 = ORIENTED_EDGE('',*,*,#308,.F.);
#308 = EDGE_CURVE('',#286,#286,#309,.T.);
#309 = SURFACE_CURVE('',#310,(#315,#322),.PCURVE_S1.);
#310 = CIRCLE('',#311,35.65);
#311 = AXIS2_PLACEMENT_3D('',#312,#313,#314);
#312 = CARTESIAN_POINT('',(0.,0.,115.3));
#313 = DIRECTION('',(0.,0.,1.));
#314 = DIRECTION('',(1.,0.,0.));
#315 = PCURVE('',#268,#316);
#316 = DEFINITIONAL_REPRESENTATION('',(#317),#321);
#317 = LINE('',#318,#319);
#318 = CARTESIAN_POINT('',(6.28318530718,-2.000000000001));
#319 = VECTOR('',#320,1.);
#320 = DIRECTION('',(-1.,0.));
#321 = ( GEOMETRIC_REPRESENTATION_CONTEXT(2) 
PARAMETRIC_REPRESENTATION_CONTEXT() REPRESENTATION_CONTEXT('2D SPACE',''
  ) );
#322 = PCURVE('',#323,#328);
#323 = PLANE('',#324);
#324 = AXIS2_PLACEMENT_3D('',#325,#326,#327);
#325 = CARTESIAN_POINT('',(0.,0.,115.3));
#326 = DIRECTION('',(0.,0.,1.));
#327 = DIRECTION('',(1.,0.,0.));
#328 = DEFINITIONAL_REPRESENTATION('',(#329),#333);
#329 = CIRCLE('',#330,35.65);
#330 = AXIS2_PLACEMENT_2D('',#331,#332);
#331 = CARTESIAN_POINT('',(0.,0.));
#332 = DIRECTION('',(1.,0.));
#333 = ( GEOMETRIC_REPRESENTATION_CONTEXT(2) 
PARAMETRIC_REPRESENTATION_CONTEXT() REPRESENTATION_CONTEXT('2D SPACE',''
  ) );
#334 = ORIENTED_EDGE('',*,*,#285,.F.);
#335 = ADVANCED_FACE('',(#336,#339),#323,.T.);
#336 = FACE_BOUND('',#337,.T.);
#337 = EDGE_LOOP('',(#338));
#338 = ORIENTED_EDGE('',*,*,#308,.T.);
#339 = FACE_BOUND('',#340,.T.);
#340 = EDGE_LOOP('',(#341));
#341 = ORIENTED_EDGE('',*,*,#342,.F.);
#342 = EDGE_CURVE('',#343,#343,#345,.T.);
#343 = VERTEX_POINT('',#344);
#344 = CARTESIAN_POINT('',(29.55,0.,115.3));
#345 = SURFACE_CURVE('',#346,(#351,#358),.PCURVE_S1.);
#346 = CIRCLE('',#347,29.55);
#347 = AXIS2_PLACEMENT_3D('',#348,#349,#350);
#348 = CARTESIAN_POINT('',(0.,0.,115.3));
#349 = DIRECTION('',(0.,0.,1.));
#350 = DIRECTION('',(1.,0.,0.));
#351 = PCURVE('',#323,#352);
#352 = DEFINITIONAL_REPRESENTATION('',(#353),#357);
#353 = CIRCLE('',#354,29.55);
#354 = AXIS2_PLACEMENT_2D('',#355,#356);
#355 = CARTESIAN_POINT('',(0.,0.));
#356 = DIRECTION('',(1.,0.));
#357 = ( GEOMETRIC_REPRESENTATION_CONTEXT(2) 
PARAMETRIC_REPRESENTATION_CONTEXT() REPRESENTATION_CONTEXT('2D SPACE',''
  ) );
#358 = PCURVE('',#359,#364);
#359 = CONICAL_SURFACE('',#360,29.55,0.785398163397);
#360 = AXIS2_PLACEMENT_3D('',#361,#362,#363);
#361 = CARTESIAN_POINT('',(0.,0.,115.3));
#362 = DIRECTION('',(0.,0.,1.));
#363 = DIRECTION('',(1.,0.,0.));
#364 = DEFINITIONAL_REPRESENTATION('',(#365),#369);
#365 = LINE('',#366,#367);
#366 = CARTESIAN_POINT('',(0.,-0.));
#367 = VECTOR('',#368,1.);
#368 = DIRECTION('',(1.,-0.));
#369 = ( GEOMETRIC_REPRESENTATION_CONTEXT(2) 
PARAMETRIC_REPRESENTATION_CONTEXT() REPRESENTATION_CONTEXT('2D SPACE',''
  ) );
#370 = ADVANCED_FACE('',(#371),#359,.F.);
#371 = FACE_BOUND('',#372,.T.);
#372 = EDGE_LOOP('',(#373,#374,#397,#424));
#373 = ORIENTED_EDGE('',*,*,#342,.T.);
#374 = ORIENTED_EDGE('',*,*,#375,.T.);
#375 = EDGE_CURVE('',#343,#376,#378,.T.);
#376 = VERTEX_POINT('',#377);
#377 = CARTESIAN_POINT('',(28.55,0.,114.3));
#378 = SEAM_CURVE('',#379,(#383,#390),.PCURVE_S1.);
#379 = LINE('',#380,#381);
#380 = CARTESIAN_POINT('',(29.55,0.,115.3));
#381 = VECTOR('',#382,1.);
#382 = DIRECTION('',(-0.707106781187,-0.,-0.707106781187));
#383 = PCURVE('',#359,#384);
#384 = DEFINITIONAL_REPRESENTATION('',(#385),#389);
#385 = LINE('',#386,#387);
#386 = CARTESIAN_POINT('',(6.28318530718,-0.));
#387 = VECTOR('',#388,1.);
#388 = DIRECTION('',(0.,-1.));
#389 = ( GEOMETRIC_REPRESENTATION_CONTEXT(2) 
PARAMETRIC_REPRESENTATION_CONTEXT() REPRESENTATION_CONTEXT('2D SPACE',''
  ) );
#390 = PCURVE('',#359,#391);
#391 = DEFINITIONAL_REPRESENTATION('',(#392),#396);
#392 = LINE('',#393,#394);
#393 = CARTESIAN_POINT('',(0.,-0.));
#394 = VECTOR('',#395,1.);
#395 = DIRECTION('',(0.,-1.));
#396 = ( GEOMETRIC_REPRESENTATION_CONTEXT(2) 
PARAMETRIC_REPRESENTATION_CONTEXT() REPRESENTATION_CONTEXT('2D SPACE',''
  ) );
#397 = ORIENTED_EDGE('',*,*,#398,.F.);
#398 = EDGE_CURVE('',#376,#376,#399,.T.);
#399 = SURFACE_CURVE('',#400,(#405,#412),.PCURVE_S1.);
#400 = CIRCLE('',#401,28.55);
#401 = AXIS2_PLACEMENT_3D('',#402,#403,#404);
#402 = CARTESIAN_POINT('',(0.,0.,114.3));
#403 = DIRECTION('',(0.,0.,1.));
#404 = DIRECTION('',(1.,0.,0.));
#405 = PCURVE('',#359,#406);
#406 = DEFINITIONAL_REPRESENTATION('',(#407),#411);
#407 = LINE('',#408,#409);
#408 = CARTESIAN_POINT('',(0.,-1.));
#409 = VECTOR('',#410,1.);
#410 = DIRECTION('',(1.,-0.));
#411 = ( GEOMETRIC_REPRESENTATION_CONTEXT(2) 
PARAMETRIC_REPRESENTATION_CONTEXT() REPRESENTATION_CONTEXT('2D SPACE',''
  ) );
#412 = PCURVE('',#413,#418);
#413 = CYLINDRICAL_SURFACE('',#414,28.55);
#414 = AXIS2_PLACEMENT_3D('',#415,#416,#417);
#415 = CARTESIAN_POINT('',(0.,0.,114.3));
#416 = DIRECTION('',(-0.,-0.,-1.));
#417 = DIRECTION('',(1.,0.,0.));
#418 = DEFINITIONAL_REPRESENTATION('',(#419),#423);
#419 = LINE('',#420,#421);
#420 = CARTESIAN_POINT('',(6.28318530718,0.));
#421 = VECTOR('',#422,1.);
#422 = DIRECTION('',(-1.,0.));
#423 = ( GEOMETRIC_REPRESENTATION_CONTEXT(2) 
PARAMETRIC_REPRESENTATION_CONTEXT() REPRESENTATION_CONTEXT('2D SPACE',''
  ) );
#424 = ORIENTED_EDGE('',*,*,#375,.F.);
#425 = ADVANCED_FACE('',(#426),#413,.F.);
#426 = FACE_BOUND('',#427,.F.);
#427 = EDGE_LOOP('',(#428,#451,#473,#474));
#428 = ORIENTED_EDGE('',*,*,#429,.T.);
#429 = EDGE_CURVE('',#376,#430,#432,.T.);
#430 = VERTEX_POINT('',#431);
#431 = CARTESIAN_POINT('',(28.55,0.,34.2));
#432 = SEAM_CURVE('',#433,(#437,#444),.PCURVE_S1.);
#433 = LINE('',#434,#435);
#434 = CARTESIAN_POINT('',(28.55,0.,114.3));
#435 = VECTOR('',#436,1.);
#436 = DIRECTION('',(0.,0.,-1.));
#437 = PCURVE('',#413,#438);
#438 = DEFINITIONAL_REPRESENTATION('',(#439),#443);
#439 = LINE('',#440,#441);
#440 = CARTESIAN_POINT('',(6.28318530718,0.));
#441 = VECTOR('',#442,1.);
#442 = DIRECTION('',(-0.,1.));
#443 = ( GEOMETRIC_REPRESENTATION_CONTEXT(2) 
PARAMETRIC_REPRESENTATION_CONTEXT() REPRESENTATION_CONTEXT('2D SPACE',''
  ) );
#444 = PCURVE('',#413,#445);
#445 = DEFINITIONAL_REPRESENTATION('',(#446),#450);
#446 = LINE('',#447,#448);
#447 = CARTESIAN_POINT('',(-4.138911435803E-13,0.));
#448 = VECTOR('',#449,1.);
#449 = DIRECTION('',(-0.,1.));
#450 = ( GEOMETRIC_REPRESENTATION_CONTEXT(2) 
PARAMETRIC_REPRESENTATION_CONTEXT() REPRESENTATION_CONTEXT('2D SPACE',''
  ) );
#451 = ORIENTED_EDGE('',*,*,#452,.T.);
#452 = EDGE_CURVE('',#430,#430,#453,.T.);
#453 = SURFACE_CURVE('',#454,(#459,#466),.PCURVE_S1.);
#454 = CIRCLE('',#455,28.55);
#455 = AXIS2_PLACEMENT_3D('',#456,#457,#458);
#456 = CARTESIAN_POINT('',(0.,0.,34.2));
#457 = DIRECTION('',(0.,0.,1.));
#458 = DIRECTION('',(1.,0.,0.));
#459 = PCURVE('',#413,#460);
#460 = DEFINITIONAL_REPRESENTATION('',(#461),#465);
#461 = LINE('',#462,#463);
#462 = CARTESIAN_POINT('',(6.28318530718,80.1));
#463 = VECTOR('',#464,1.);
#464 = DIRECTION('',(-1.,0.));
#465 = ( GEOMETRIC_REPRESENTATION_CONTEXT(2) 
PARAMETRIC_REPRESENTATION_CONTEXT() REPRESENTATION_CONTEXT('2D SPACE',''
  ) );
#466 = PCURVE('',#124,#467);
#467 = DEFINITIONAL_REPRESENTATION('',(#468),#472);
#468 = LINE('',#469,#470);
#469 = CARTESIAN_POINT('',(0.,-0.));
#470 = VECTOR('',#471,1.);
#471 = DIRECTION('',(1.,-0.));
#472 = ( GEOMETRIC_REPRESENTATION_CONTEXT(2) 
PARAMETRIC_REPRESENTATION_CONTEXT() REPRESENTATION_CONTEXT('2D SPACE',''
  ) );
#473 = ORIENTED_EDGE('',*,*,#429,.F.);
#474 = ORIENTED_EDGE('',*,*,#398,.F.);
#475 = ADVANCED_FACE('',(#476),#124,.F.);
#476 = FACE_BOUND('',#477,.T.);
#477 = EDGE_LOOP('',(#478,#479,#500,#501));
#478 = ORIENTED_EDGE('',*,*,#452,.T.);
#479 = ORIENTED_EDGE('',*,*,#480,.T.);
#480 = EDGE_CURVE('',#430,#52,#481,.T.);
#481 = SEAM_CURVE('',#482,(#486,#493),.PCURVE_S1.);
#482 = LINE('',#483,#484);
#483 = CARTESIAN_POINT('',(28.55,0.,34.2));
#484 = VECTOR('',#485,1.);
#485 = DIRECTION('',(-0.812289170739,-0.,-0.583254921196));
#486 = PCURVE('',#124,#487);
#487 = DEFINITIONAL_REPRESENTATION('',(#488),#492);
#488 = LINE('',#489,#490);
#489 = CARTESIAN_POINT('',(6.28318530718,-0.));
#490 = VECTOR('',#491,1.);
#491 = DIRECTION('',(0.,-1.));
#492 = ( GEOMETRIC_REPRESENTATION_CONTEXT(2) 
PARAMETRIC_REPRESENTATION_CONTEXT() REPRESENTATION_CONTEXT('2D SPACE',''
  ) );
#493 = PCURVE('',#124,#494);
#494 = DEFINITIONAL_REPRESENTATION('',(#495),#499);
#495 = LINE('',#496,#497);
#496 = CARTESIAN_POINT('',(0.,-0.));
#497 = VECTOR('',#498,1.);
#498 = DIRECTION('',(0.,-1.));
#499 = ( GEOMETRIC_REPRESENTATION_CONTEXT(2) 
PARAMETRIC_REPRESENTATION_CONTEXT() REPRESENTATION_CONTEXT('2D SPACE',''
  ) );
#500 = ORIENTED_EDGE('',*,*,#109,.F.);
#501 = ORIENTED_EDGE('',*,*,#480,.F.);
#502 = ( GEOMETRIC_REPRESENTATION_CONTEXT(3) 
GLOBAL_UNCERTAINTY_ASSIGNED_CONTEXT((#506)) GLOBAL_UNIT_ASSIGNED_CONTEXT
((#503,#504,#505)) REPRESENTATION_CONTEXT('Context #1',
  '3D Context with UNIT and UNCERTAINTY') );
#503 = ( LENGTH_UNIT() NAMED_UNIT(*) SI_UNIT(.MILLI.,.METRE.) );
#504 = ( NAMED_UNIT(*) PLANE_ANGLE_UNIT() SI_UNIT($,.RADIAN.) );
#505 = ( NAMED_UNIT(*) SI_UNIT($,.STERADIAN.) SOLID_ANGLE_UNIT() );
#506 = UNCERTAINTY_MEASURE_WITH_UNIT(LENGTH_MEASURE(1.E-07),#503,
  'distance_accuracy_value','confusion accuracy');
#507 = CONTEXT_DEPENDENT_SHAPE_REPRESENTATION(#508,#510);
#508 = ( REPRESENTATION_RELATIONSHIP('','',#44,#10) 
REPRESENTATION_RELATIONSHIP_WITH_TRANSFORMATION(#509) 
SHAPE_REPRESENTATION_RELATIONSHIP() );
#509 = ITEM_DEFINED_TRANSFORMATION('','',#11,#15);
#510 = PRODUCT_DEFINITION_SHAPE('Placement','Placement of an item',#511
  );
#511 = NEXT_ASSEMBLY_USAGE_OCCURRENCE('194','crucible','',#5,#39,$);
#512 = PRODUCT_RELATED_PRODUCT_CATEGORY('part',$,(#41));
#513 = SHAPE_DEFINITION_REPRESENTATION(#514,#520);
#514 = PRODUCT_DEFINITION_SHAPE('','',#515);
#515 = PRODUCT_DEFINITION('design','',#516,#519);
#516 = PRODUCT_DEFINITION_FORMATION('','',#517);
#517 = PRODUCT('filling cone','filling cone','',(#518));
#518 = PRODUCT_CONTEXT('',#2,'mechanical');
#519 = PRODUCT_DEFINITION_CONTEXT('part definition',#2,'design');
#520 = ADVANCED_BREP_SHAPE_REPRESENTATION('',(#11,#521),#758);
#521 = MANIFOLD_SOLID_BREP('',#522);
#522 = CLOSED_SHELL('',(#523,#591,#646,#681,#731));
#523 = ADVANCED_FACE('',(#524,#560),#537,.F.);
#524 = FACE_BOUND('',#525,.T.);
#525 = EDGE_LOOP('',(#526));
#526 = ORIENTED_EDGE('',*,*,#527,.T.);
#527 = EDGE_CURVE('',#528,#528,#530,.T.);
#528 = VERTEX_POINT('',#529);
#529 = CARTESIAN_POINT('',(28.55,0.,115.3));
#530 = SURFACE_CURVE('',#531,(#536,#548),.PCURVE_S1.);
#531 = CIRCLE('',#532,28.55);
#532 = AXIS2_PLACEMENT_3D('',#533,#534,#535);
#533 = CARTESIAN_POINT('',(0.,0.,115.3));
#534 = DIRECTION('',(0.,0.,1.));
#535 = DIRECTION('',(1.,0.,0.));
#536 = PCURVE('',#537,#542);
#537 = PLANE('',#538);
#538 = AXIS2_PLACEMENT_3D('',#539,#540,#541);
#539 = CARTESIAN_POINT('',(0.,0.,115.3));
#540 = DIRECTION('',(0.,0.,1.));
#541 = DIRECTION('',(1.,0.,0.));
#542 = DEFINITIONAL_REPRESENTATION('',(#543),#547);
#543 = CIRCLE('',#544,28.55);
#544 = AXIS2_PLACEMENT_2D('',#545,#546);
#545 = CARTESIAN_POINT('',(0.,0.));
#546 = DIRECTION('',(1.,0.));
#547 = ( GEOMETRIC_REPRESENTATION_CONTEXT(2) 
PARAMETRIC_REPRESENTATION_CONTEXT() REPRESENTATION_CONTEXT('2D SPACE',''
  ) );
#548 = PCURVE('',#549,#554);
#549 = CYLINDRICAL_SURFACE('',#550,28.55);
#550 = AXIS2_PLACEMENT_3D('',#551,#552,#553);
#551 = CARTESIAN_POINT('',(0.,0.,121.01));
#552 = DIRECTION('',(-0.,-0.,-1.));
#553 = DIRECTION('',(1.,0.,0.));
#554 = DEFINITIONAL_REPRESENTATION('',(#555),#559);
#555 = LINE('',#556,#557);
#556 = CARTESIAN_POINT('',(6.28318530718,5.71));
#557 = VECTOR('',#558,1.);
#558 = DIRECTION('',(-1.,0.));
#559 = ( GEOMETRIC_REPRESENTATION_CONTEXT(2) 
PARAMETRIC_REPRESENTATION_CONTEXT() REPRESENTATION_CONTEXT('2D SPACE',''
  ) );
#560 = FACE_BOUND('',#561,.T.);
#561 = EDGE_LOOP('',(#562));
#562 = ORIENTED_EDGE('',*,*,#563,.F.);
#563 = EDGE_CURVE('',#564,#564,#566,.T.);
#564 = VERTEX_POINT('',#565);
#565 = CARTESIAN_POINT('',(60.,0.,115.3));
#566 = SURFACE_CURVE('',#567,(#572,#579),.PCURVE_S1.);
#567 = CIRCLE('',#568,60.);
#568 = AXIS2_PLACEMENT_3D('',#569,#570,#571);
#569 = CARTESIAN_POINT('',(0.,0.,115.3));
#570 = DIRECTION('',(0.,0.,1.));
#571 = DIRECTION('',(1.,0.,0.));
#572 = PCURVE('',#537,#573);
#573 = DEFINITIONAL_REPRESENTATION('',(#574),#578);
#574 = CIRCLE('',#575,60.);
#575 = AXIS2_PLACEMENT_2D('',#576,#577);
#576 = CARTESIAN_POINT('',(0.,0.));
#577 = DIRECTION('',(1.,0.));
#578 = ( GEOMETRIC_REPRESENTATION_CONTEXT(2) 
PARAMETRIC_REPRESENTATION_CONTEXT() REPRESENTATION_CONTEXT('2D SPACE',''
  ) );
#579 = PCURVE('',#580,#585);
#580 = CYLINDRICAL_SURFACE('',#581,60.);
#581 = AXIS2_PLACEMENT_3D('',#582,#583,#584);
#582 = CARTESIAN_POINT('',(0.,0.,115.3));
#583 = DIRECTION('',(0.,0.,1.));
#584 = DIRECTION('',(1.,0.,0.));
#585 = DEFINITIONAL_REPRESENTATION('',(#586),#590);
#586 = LINE('',#587,#588);
#587 = CARTESIAN_POINT('',(0.,0.));
#588 = VECTOR('',#589,1.);
#589 = DIRECTION('',(1.,0.));
#590 = ( GEOMETRIC_REPRESENTATION_CONTEXT(2) 
PARAMETRIC_REPRESENTATION_CONTEXT() REPRESENTATION_CONTEXT('2D SPACE',''
  ) );
#591 = ADVANCED_FACE('',(#592),#580,.T.);
#592 = FACE_BOUND('',#593,.T.);
#593 = EDGE_LOOP('',(#594,#595,#618,#645));
#594 = ORIENTED_EDGE('',*,*,#563,.T.);
#595 = ORIENTED_EDGE('',*,*,#596,.T.);
#596 = EDGE_CURVE('',#564,#597,#599,.T.);
#597 = VERTEX_POINT('',#598);
#598 = CARTESIAN_POINT('',(60.,0.,134.1));
#599 = SEAM_CURVE('',#600,(#604,#611),.PCURVE_S1.);
#600 = LINE('',#601,#602);
#601 = CARTESIAN_POINT('',(60.,0.,115.3));
#602 = VECTOR('',#603,1.);
#603 = DIRECTION('',(0.,0.,1.));
#604 = PCURVE('',#580,#605);
#605 = DEFINITIONAL_REPRESENTATION('',(#606),#610);
#606 = LINE('',#607,#608);
#607 = CARTESIAN_POINT('',(6.28318530718,0.));
#608 = VECTOR('',#609,1.);
#609 = DIRECTION('',(0.,1.));
#610 = ( GEOMETRIC_REPRESENTATION_CONTEXT(2) 
PARAMETRIC_REPRESENTATION_CONTEXT() REPRESENTATION_CONTEXT('2D SPACE',''
  ) );
#611 = PCURVE('',#580,#612);
#612 = DEFINITIONAL_REPRESENTATION('',(#613),#617);
#613 = LINE('',#614,#615);
#614 = CARTESIAN_POINT('',(4.138911435803E-13,0.));
#615 = VECTOR('',#616,1.);
#616 = DIRECTION('',(0.,1.));
#617 = ( GEOMETRIC_REPRESENTATION_CONTEXT(2) 
PARAMETRIC_REPRESENTATION_CONTEXT() REPRESENTATION_CONTEXT('2D SPACE',''
  ) );
#618 = ORIENTED_EDGE('',*,*,#619,.F.);
#619 = EDGE_CURVE('',#597,#597,#620,.T.);
#620 = SURFACE_CURVE('',#621,(#626,#633),.PCURVE_S1.);
#621 = CIRCLE('',#622,60.);
#622 = AXIS2_PLACEMENT_3D('',#623,#624,#625);
#623 = CARTESIAN_POINT('',(0.,0.,134.1));
#624 = DIRECTION('',(0.,0.,1.));
#625 = DIRECTION('',(1.,0.,0.));
#626 = PCURVE('',#580,#627);
#627 = DEFINITIONAL_REPRESENTATION('',(#628),#632);
#628 = LINE('',#629,#630);
#629 = CARTESIAN_POINT('',(0.,18.8));
#630 = VECTOR('',#631,1.);
#631 = DIRECTION('',(1.,0.));
#632 = ( GEOMETRIC_REPRESENTATION_CONTEXT(2) 
PARAMETRIC_REPRESENTATION_CONTEXT() REPRESENTATION_CONTEXT('2D SPACE',''
  ) );
#633 = PCURVE('',#634,#639);
#634 = PLANE('',#635);
#635 = AXIS2_PLACEMENT_3D('',#636,#637,#638);
#636 = CARTESIAN_POINT('',(0.,0.,134.1));
#637 = DIRECTION('',(0.,0.,1.));
#638 = DIRECTION('',(1.,0.,0.));
#639 = DEFINITIONAL_REPRESENTATION('',(#640),#644);
#640 = CIRCLE('',#641,60.);
#641 = AXIS2_PLACEMENT_2D('',#642,#643);
#642 = CARTESIAN_POINT('',(0.,0.));
#643 = DIRECTION('',(1.,0.));
#644 = ( GEOMETRIC_REPRESENTATION_CONTEXT(2) 
PARAMETRIC_REPRESENTATION_CONTEXT() REPRESENTATION_CONTEXT('2D SPACE',''
  ) );
#645 = ORIENTED_EDGE('',*,*,#596,.F.);
#646 = ADVANCED_FACE('',(#647,#650),#634,.T.);
#647 = FACE_BOUND('',#648,.T.);
#648 = EDGE_LOOP('',(#649));
#649 = ORIENTED_EDGE('',*,*,#619,.T.);
#650 = FACE_BOUND('',#651,.T.);
#651 = EDGE_LOOP('',(#652));
#652 = ORIENTED_EDGE('',*,*,#653,.F.);
#653 = EDGE_CURVE('',#654,#654,#656,.T.);
#654 = VERTEX_POINT('',#655);
#655 = CARTESIAN_POINT('',(45.68,0.,134.1));
#656 = SURFACE_CURVE('',#657,(#662,#669),.PCURVE_S1.);
#657 = CIRCLE('',#658,45.68);
#658 = AXIS2_PLACEMENT_3D('',#659,#660,#661);
#659 = CARTESIAN_POINT('',(0.,0.,134.1));
#660 = DIRECTION('',(0.,0.,1.));
#661 = DIRECTION('',(1.,0.,0.));
#662 = PCURVE('',#634,#663);
#663 = DEFINITIONAL_REPRESENTATION('',(#664),#668);
#664 = CIRCLE('',#665,45.68);
#665 = AXIS2_PLACEMENT_2D('',#666,#667);
#666 = CARTESIAN_POINT('',(0.,0.));
#667 = DIRECTION('',(1.,0.));
#668 = ( GEOMETRIC_REPRESENTATION_CONTEXT(2) 
PARAMETRIC_REPRESENTATION_CONTEXT() REPRESENTATION_CONTEXT('2D SPACE',''
  ) );
#669 = PCURVE('',#670,#675);
#670 = CONICAL_SURFACE('',#671,45.68,0.91829648141);
#671 = AXIS2_PLACEMENT_3D('',#672,#673,#674);
#672 = CARTESIAN_POINT('',(0.,0.,134.1));
#673 = DIRECTION('',(0.,0.,1.));
#674 = DIRECTION('',(1.,0.,0.));
#675 = DEFINITIONAL_REPRESENTATION('',(#676),#680);
#676 = LINE('',#677,#678);
#677 = CARTESIAN_POINT('',(0.,-0.));
#678 = VECTOR('',#679,1.);
#679 = DIRECTION('',(1.,-0.));
#680 = ( GEOMETRIC_REPRESENTATION_CONTEXT(2) 
PARAMETRIC_REPRESENTATION_CONTEXT() REPRESENTATION_CONTEXT('2D SPACE',''
  ) );
#681 = ADVANCED_FACE('',(#682),#670,.F.);
#682 = FACE_BOUND('',#683,.T.);
#683 = EDGE_LOOP('',(#684,#685,#708,#730));
#684 = ORIENTED_EDGE('',*,*,#653,.T.);
#685 = ORIENTED_EDGE('',*,*,#686,.T.);
#686 = EDGE_CURVE('',#654,#687,#689,.T.);
#687 = VERTEX_POINT('',#688);
#688 = CARTESIAN_POINT('',(28.55,0.,121.01));
#689 = SEAM_CURVE('',#690,(#694,#701),.PCURVE_S1.);
#690 = LINE('',#691,#692);
#691 = CARTESIAN_POINT('',(45.68,0.,134.1));
#692 = VECTOR('',#693,1.);
#693 = DIRECTION('',(-0.794568440229,-0.,-0.6071745991));
#694 = PCURVE('',#670,#695);
#695 = DEFINITIONAL_REPRESENTATION('',(#696),#700);
#696 = LINE('',#697,#698);
#697 = CARTESIAN_POINT('',(6.28318530718,-0.));
#698 = VECTOR('',#699,1.);
#699 = DIRECTION('',(0.,-1.));
#700 = ( GEOMETRIC_REPRESENTATION_CONTEXT(2) 
PARAMETRIC_REPRESENTATION_CONTEXT() REPRESENTATION_CONTEXT('2D SPACE',''
  ) );
#701 = PCURVE('',#670,#702);
#702 = DEFINITIONAL_REPRESENTATION('',(#703),#707);
#703 = LINE('',#704,#705);
#704 = CARTESIAN_POINT('',(0.,-0.));
#705 = VECTOR('',#706,1.);
#706 = DIRECTION('',(0.,-1.));
#707 = ( GEOMETRIC_REPRESENTATION_CONTEXT(2) 
PARAMETRIC_REPRESENTATION_CONTEXT() REPRESENTATION_CONTEXT('2D SPACE',''
  ) );
#708 = ORIENTED_EDGE('',*,*,#709,.F.);
#709 = EDGE_CURVE('',#687,#687,#710,.T.);
#710 = SURFACE_CURVE('',#711,(#716,#723),.PCURVE_S1.);
#711 = CIRCLE('',#712,28.55);
#712 = AXIS2_PLACEMENT_3D('',#713,#714,#715);
#713 = CARTESIAN_POINT('',(0.,0.,121.01));
#714 = DIRECTION('',(0.,0.,1.));
#715 = DIRECTION('',(1.,0.,0.));
#716 = PCURVE('',#670,#717);
#717 = DEFINITIONAL_REPRESENTATION('',(#718),#722);
#718 = LINE('',#719,#720);
#719 = CARTESIAN_POINT('',(0.,-13.09));
#720 = VECTOR('',#721,1.);
#721 = DIRECTION('',(1.,-0.));
#722 = ( GEOMETRIC_REPRESENTATION_CONTEXT(2) 
PARAMETRIC_REPRESENTATION_CONTEXT() REPRESENTATION_CONTEXT('2D SPACE',''
  ) );
#723 = PCURVE('',#549,#724);
#724 = DEFINITIONAL_REPRESENTATION('',(#725),#729);
#725 = LINE('',#726,#727);
#726 = CARTESIAN_POINT('',(6.28318530718,0.));
#727 = VECTOR('',#728,1.);
#728 = DIRECTION('',(-1.,0.));
#729 = ( GEOMETRIC_REPRESENTATION_CONTEXT(2) 
PARAMETRIC_REPRESENTATION_CONTEXT() REPRESENTATION_CONTEXT('2D SPACE',''
  ) );
#730 = ORIENTED_EDGE('',*,*,#686,.F.);
#731 = ADVANCED_FACE('',(#732),#549,.F.);
#732 = FACE_BOUND('',#733,.F.);
#733 = EDGE_LOOP('',(#734,#755,#756,#757));
#734 = ORIENTED_EDGE('',*,*,#735,.T.);
#735 = EDGE_CURVE('',#687,#528,#736,.T.);
#736 = SEAM_CURVE('',#737,(#741,#748),.PCURVE_S1.);
#737 = LINE('',#738,#739);
#738 = CARTESIAN_POINT('',(28.55,0.,121.01));
#739 = VECTOR('',#740,1.);
#740 = DIRECTION('',(0.,0.,-1.));
#741 = PCURVE('',#549,#742);
#742 = DEFINITIONAL_REPRESENTATION('',(#743),#747);
#743 = LINE('',#744,#745);
#744 = CARTESIAN_POINT('',(6.28318530718,0.));
#745 = VECTOR('',#746,1.);
#746 = DIRECTION('',(-0.,1.));
#747 = ( GEOMETRIC_REPRESENTATION_CONTEXT(2) 
PARAMETRIC_REPRESENTATION_CONTEXT() REPRESENTATION_CONTEXT('2D SPACE',''
  ) );
#748 = PCURVE('',#549,#749);
#749 = DEFINITIONAL_REPRESENTATION('',(#750),#754);
#750 = LINE('',#751,#752);
#751 = CARTESIAN_POINT('',(-4.138911435803E-13,0.));
#752 = VECTOR('',#753,1.);
#753 = DIRECTION('',(-0.,1.));
#754 = ( GEOMETRIC_REPRESENTATION_CONTEXT(2) 
PARAMETRIC_REPRESENTATION_CONTEXT() REPRESENTATION_CONTEXT('2D SPACE',''
  ) );
#755 = ORIENTED_EDGE('',*,*,#527,.T.);
#756 = ORIENTED_EDGE('',*,*,#735,.F.);
#757 = ORIENTED_EDGE('',*,*,#709,.F.);
#758 = ( GEOMETRIC_REPRESENTATION_CONTEXT(3) 
GLOBAL_UNCERTAINTY_ASSIGNED_CONTEXT((#762)) GLOBAL_UNIT_ASSIGNED_CONTEXT
((#759,#760,#761)) REPRESENTATION_CONTEXT('Context #1',
  '3D Context with UNIT and UNCERTAINTY') );
#759 = ( LENGTH_UNIT() NAMED_UNIT(*) SI_UNIT(.MILLI.,.METRE.) );
#760 = ( NAMED_UNIT(*) PLANE_ANGLE_UNIT() SI_UNIT($,.RADIAN.) );
#761 = ( NAMED_UNIT(*) SI_UNIT($,.STERADIAN.) SOLID_ANGLE_UNIT() );
#762 = UNCERTAINTY_MEASURE_WITH_UNIT(LENGTH_MEASURE(1.E-07),#759,
  'distance_accuracy_value','confusion accuracy');
#763 = CONTEXT_DEPENDENT_SHAPE_REPRESENTATION(#764,#766);
#764 = ( REPRESENTATION_RELATIONSHIP('','',#520,#10) 
REPRESENTATION_RELATIONSHIP_WITH_TRANSFORMATION(#765) 
SHAPE_REPRESENTATION_RELATIONSHIP() );
#765 = ITEM_DEFINED_TRANSFORMATION('','',#11,#19);
#766 = PRODUCT_DEFINITION_SHAPE('Placement','Placement of an item',#767
  );
#767 = NEXT_ASSEMBLY_USAGE_OCCURRENCE('195','filling cone','',#5,#515,$
  );
#768 = PRODUCT_RELATED_PRODUCT_CATEGORY('part',$,(#517));
#769 = SHAPE_DEFINITION_REPRESENTATION(#770,#776);
#770 = PRODUCT_DEFINITION_SHAPE('','',#771);
#771 = PRODUCT_DEFINITION('design','',#772,#775);
#772 = PRODUCT_DEFINITION_FORMATION('','',#773);
#773 = PRODUCT('sealing rod','sealing rod','',(#774));
#774 = PRODUCT_CONTEXT('',#2,'mechanical');
#775 = PRODUCT_DEFINITION_CONTEXT('part definition',#2,'design');
#776 = ADVANCED_BREP_SHAPE_REPRESENTATION('',(#11,#777),#944);
#777 = MANIFOLD_SOLID_BREP('',#778);
#778 = CLOSED_SHELL('',(#779,#885,#940));
#779 = ADVANCED_FACE('',(#780),#793,.T.);
#780 = FACE_BOUND('',#781,.T.);
#781 = EDGE_LOOP('',(#782,#816,#884));
#782 = ORIENTED_EDGE('',*,*,#783,.F.);
#783 = EDGE_CURVE('',#784,#784,#786,.T.);
#784 = VERTEX_POINT('',#785);
#785 = CARTESIAN_POINT('',(6.3,-1.543054966926E-15,21.50585866086));
#786 = SURFACE_CURVE('',#787,(#792,#804),.PCURVE_S1.);
#787 = CIRCLE('',#788,6.3);
#788 = AXIS2_PLACEMENT_3D('',#789,#790,#791);
#789 = CARTESIAN_POINT('',(0.,0.,21.50585866086));
#790 = DIRECTION('',(0.,0.,1.));
#791 = DIRECTION('',(1.,0.,0.));
#792 = PCURVE('',#793,#798);
#793 = SPHERICAL_SURFACE('',#794,6.3);
#794 = AXIS2_PLACEMENT_3D('',#795,#796,#797);
#795 = CARTESIAN_POINT('',(0.,0.,21.50585866086));
#796 = DIRECTION('',(0.,0.,1.));
#797 = DIRECTION('',(1.,0.,0.));
#798 = DEFINITIONAL_REPRESENTATION('',(#799),#803);
#799 = LINE('',#800,#801);
#800 = CARTESIAN_POINT('',(0.,0.));
#801 = VECTOR('',#802,1.);
#802 = DIRECTION('',(1.,0.));
#803 = ( GEOMETRIC_REPRESENTATION_CONTEXT(2) 
PARAMETRIC_REPRESENTATION_CONTEXT() REPRESENTATION_CONTEXT('2D SPACE',''
  ) );
#804 = PCURVE('',#805,#810);
#805 = CYLINDRICAL_SURFACE('',#806,6.3);
#806 = AXIS2_PLACEMENT_3D('',#807,#808,#809);
#807 = CARTESIAN_POINT('',(0.,0.,21.50585866086));
#808 = DIRECTION('',(0.,0.,1.));
#809 = DIRECTION('',(1.,0.,0.));
#810 = DEFINITIONAL_REPRESENTATION('',(#811),#815);
#811 = LINE('',#812,#813);
#812 = CARTESIAN_POINT('',(0.,0.));
#813 = VECTOR('',#814,1.);
#814 = DIRECTION('',(1.,0.));
#815 = ( GEOMETRIC_REPRESENTATION_CONTEXT(2) 
PARAMETRIC_REPRESENTATION_CONTEXT() REPRESENTATION_CONTEXT('2D SPACE',''
  ) );
#816 = ORIENTED_EDGE('',*,*,#817,.F.);
#817 = EDGE_CURVE('',#818,#784,#820,.T.);
#818 = VERTEX_POINT('',#819);
#819 = CARTESIAN_POINT('',(3.857637417314E-16,-9.44848663077E-32,
    15.20585866086));
#820 = SEAM_CURVE('',#821,(#826,#855),.PCURVE_S1.);
#821 = CIRCLE('',#822,6.3);
#822 = AXIS2_PLACEMENT_3D('',#823,#824,#825);
#823 = CARTESIAN_POINT('',(0.,0.,21.50585866086));
#824 = DIRECTION('',(-2.449293598295E-16,-1.,0.));
#825 = DIRECTION('',(1.,-2.449293598295E-16,0.));
#826 = PCURVE('',#793,#827);
#827 = DEFINITIONAL_REPRESENTATION('',(#828),#854);
#828 = B_SPLINE_CURVE_WITH_KNOTS('',3,(#829,#830,#831,#832,#833,#834,
    #835,#836,#837,#838,#839,#840,#841,#842,#843,#844,#845,#846,#847,
    #848,#849,#850,#851,#852,#853),.UNSPECIFIED.,.F.,.F.,(4,1,1,1,1,1,1,
    1,1,1,1,1,1,1,1,1,1,1,1,1,1,1,4),(4.712388980385,4.783788813421,
    4.855188646457,4.926588479493,4.997988312529,5.069388145565,
    5.140787978601,5.212187811638,5.283587644674,5.35498747771,
    5.426387310746,5.497787143782,5.569186976818,5.640586809854,
    5.711986642891,5.783386475927,5.854786308963,5.926186141999,
    5.997585975035,6.068985808071,6.140385641107,6.211785474143,
    6.28318530718),.QUASI_UNIFORM_KNOTS.);
#829 = CARTESIAN_POINT('',(0.,-1.570796326795));
#830 = CARTESIAN_POINT('',(0.,-1.54699638245));
#831 = CARTESIAN_POINT('',(0.,-1.499396493759));
#832 = CARTESIAN_POINT('',(0.,-1.427996660723));
#833 = CARTESIAN_POINT('',(0.,-1.356596827687));
#834 = CARTESIAN_POINT('',(0.,-1.28519699465));
#835 = CARTESIAN_POINT('',(0.,-1.213797161614));
#836 = CARTESIAN_POINT('',(0.,-1.142397328578));
#837 = CARTESIAN_POINT('',(-1.7763568394E-15,-1.070997495542));
#838 = CARTESIAN_POINT('',(0.,-0.999597662506));
#839 = CARTESIAN_POINT('',(0.,-0.92819782947));
#840 = CARTESIAN_POINT('',(0.,-0.856797996434));
#841 = CARTESIAN_POINT('',(0.,-0.785398163397));
#842 = CARTESIAN_POINT('',(0.,-0.713998330361));
#843 = CARTESIAN_POINT('',(0.,-0.642598497325));
#844 = CARTESIAN_POINT('',(0.,-0.571198664289));
#845 = CARTESIAN_POINT('',(0.,-0.499798831253));
#846 = CARTESIAN_POINT('',(0.,-0.428398998217));
#847 = CARTESIAN_POINT('',(-1.7763568394E-15,-0.356999165181));
#848 = CARTESIAN_POINT('',(0.,-0.285599332145));
#849 = CARTESIAN_POINT('',(0.,-0.214199499108));
#850 = CARTESIAN_POINT('',(-3.552713678801E-15,-0.142799666072));
#851 = CARTESIAN_POINT('',(1.7763568394E-15,-7.139983303613E-02));
#852 = CARTESIAN_POINT('',(0.,-2.379994434538E-02));
#853 = CARTESIAN_POINT('',(0.,8.881784197001E-16));
#854 = ( GEOMETRIC_REPRESENTATION_CONTEXT(2) 
PARAMETRIC_REPRESENTATION_CONTEXT() REPRESENTATION_CONTEXT('2D SPACE',''
  ) );
#855 = PCURVE('',#793,#856);
#856 = DEFINITIONAL_REPRESENTATION('',(#857),#883);
#857 = B_SPLINE_CURVE_WITH_KNOTS('',3,(#858,#859,#860,#861,#862,#863,
    #864,#865,#866,#867,#868,#869,#870,#871,#872,#873,#874,#875,#876,
    #877,#878,#879,#880,#881,#882),.UNSPECIFIED.,.F.,.F.,(4,1,1,1,1,1,1,
    1,1,1,1,1,1,1,1,1,1,1,1,1,1,1,4),(4.712388980385,4.783788813421,
    4.855188646457,4.926588479493,4.997988312529,5.069388145565,
    5.140787978601,5.212187811638,5.283587644674,5.35498747771,
    5.426387310746,5.497787143782,5.569186976818,5.640586809854,
    5.711986642891,5.783386475927,5.854786308963,5.926186141999,
    5.997585975035,6.068985808071,6.140385641107,6.211785474143,
    6.28318530718),.QUASI_UNIFORM_KNOTS.);
#858 = CARTESIAN_POINT('',(6.28318530718,-1.570796326795));
#859 = CARTESIAN_POINT('',(6.28318530718,-1.54699638245));
#860 = CARTESIAN_POINT('',(6.28318530718,-1.499396493759));
#861 = CARTESIAN_POINT('',(6.28318530718,-1.427996660723));
#862 = CARTESIAN_POINT('',(6.28318530718,-1.356596827687));
#863 = CARTESIAN_POINT('',(6.28318530718,-1.28519699465));
#864 = CARTESIAN_POINT('',(6.28318530718,-1.213797161614));
#865 = CARTESIAN_POINT('',(6.28318530718,-1.142397328578));
#866 = CARTESIAN_POINT('',(6.28318530718,-1.070997495542));
#867 = CARTESIAN_POINT('',(6.28318530718,-0.999597662506));
#868 = CARTESIAN_POINT('',(6.28318530718,-0.92819782947));
#869 = CARTESIAN_POINT('',(6.28318530718,-0.856797996434));
#870 = CARTESIAN_POINT('',(6.28318530718,-0.785398163397));
#871 = CARTESIAN_POINT('',(6.28318530718,-0.713998330361));
#872 = CARTESIAN_POINT('',(6.28318530718,-0.642598497325));
#873 = CARTESIAN_POINT('',(6.28318530718,-0.571198664289));
#874 = CARTESIAN_POINT('',(6.28318530718,-0.499798831253));
#875 = CARTESIAN_POINT('',(6.28318530718,-0.428398998217));
#876 = CARTESIAN_POINT('',(6.28318530718,-0.356999165181));
#877 = CARTESIAN_POINT('',(6.28318530718,-0.285599332145));
#878 = CARTESIAN_POINT('',(6.28318530718,-0.214199499108));
#879 = CARTESIAN_POINT('',(6.28318530718,-0.142799666072));
#880 = CARTESIAN_POINT('',(6.28318530718,-7.139983303613E-02));
#881 = CARTESIAN_POINT('',(6.28318530718,-2.379994434538E-02));
#882 = CARTESIAN_POINT('',(6.28318530718,8.881784197001E-16));
#883 = ( GEOMETRIC_REPRESENTATION_CONTEXT(2) 
PARAMETRIC_REPRESENTATION_CONTEXT() REPRESENTATION_CONTEXT('2D SPACE',''
  ) );
#884 = ORIENTED_EDGE('',*,*,#817,.T.);
#885 = ADVANCED_FACE('',(#886),#805,.T.);
#886 = FACE_BOUND('',#887,.T.);
#887 = EDGE_LOOP('',(#888,#917,#938,#939));
#888 = ORIENTED_EDGE('',*,*,#889,.F.);
#889 = EDGE_CURVE('',#890,#890,#892,.T.);
#890 = VERTEX_POINT('',#891);
#891 = CARTESIAN_POINT('',(6.3,-1.543054966926E-15,133.6));
#892 = SURFACE_CURVE('',#893,(#898,#905),.PCURVE_S1.);
#893 = CIRCLE('',#894,6.3);
#894 = AXIS2_PLACEMENT_3D('',#895,#896,#897);
#895 = CARTESIAN_POINT('',(0.,0.,133.6));
#896 = DIRECTION('',(0.,0.,1.));
#897 = DIRECTION('',(1.,0.,0.));
#898 = PCURVE('',#805,#899);
#899 = DEFINITIONAL_REPRESENTATION('',(#900),#904);
#900 = LINE('',#901,#902);
#901 = CARTESIAN_POINT('',(0.,112.09414133914));
#902 = VECTOR('',#903,1.);
#903 = DIRECTION('',(1.,0.));
#904 = ( GEOMETRIC_REPRESENTATION_CONTEXT(2) 
PARAMETRIC_REPRESENTATION_CONTEXT() REPRESENTATION_CONTEXT('2D SPACE',''
  ) );
#905 = PCURVE('',#906,#911);
#906 = PLANE('',#907);
#907 = AXIS2_PLACEMENT_3D('',#908,#909,#910);
#908 = CARTESIAN_POINT('',(0.,0.,133.6));
#909 = DIRECTION('',(0.,0.,1.));
#910 = DIRECTION('',(1.,0.,0.));
#911 = DEFINITIONAL_REPRESENTATION('',(#912),#916);
#912 = CIRCLE('',#913,6.3);
#913 = AXIS2_PLACEMENT_2D('',#914,#915);
#914 = CARTESIAN_POINT('',(0.,0.));
#915 = DIRECTION('',(1.,0.));
#916 = ( GEOMETRIC_REPRESENTATION_CONTEXT(2) 
PARAMETRIC_REPRESENTATION_CONTEXT() REPRESENTATION_CONTEXT('2D SPACE',''
  ) );
#917 = ORIENTED_EDGE('',*,*,#918,.F.);
#918 = EDGE_CURVE('',#784,#890,#919,.T.);
#919 = SEAM_CURVE('',#920,(#924,#931),.PCURVE_S1.);
#920 = LINE('',#921,#922);
#921 = CARTESIAN_POINT('',(6.3,-1.543054966926E-15,21.50585866086));
#922 = VECTOR('',#923,1.);
#923 = DIRECTION('',(0.,0.,1.));
#924 = PCURVE('',#805,#925);
#925 = DEFINITIONAL_REPRESENTATION('',(#926),#930);
#926 = LINE('',#927,#928);
#927 = CARTESIAN_POINT('',(0.,-0.));
#928 = VECTOR('',#929,1.);
#929 = DIRECTION('',(0.,1.));
#930 = ( GEOMETRIC_REPRESENTATION_CONTEXT(2) 
PARAMETRIC_REPRESENTATION_CONTEXT() REPRESENTATION_CONTEXT('2D SPACE',''
  ) );
#931 = PCURVE('',#805,#932);
#932 = DEFINITIONAL_REPRESENTATION('',(#933),#937);
#933 = LINE('',#934,#935);
#934 = CARTESIAN_POINT('',(6.28318530718,-0.));
#935 = VECTOR('',#936,1.);
#936 = DIRECTION('',(0.,1.));
#937 = ( GEOMETRIC_REPRESENTATION_CONTEXT(2) 
PARAMETRIC_REPRESENTATION_CONTEXT() REPRESENTATION_CONTEXT('2D SPACE',''
  ) );
#938 = ORIENTED_EDGE('',*,*,#783,.T.);
#939 = ORIENTED_EDGE('',*,*,#918,.T.);
#940 = ADVANCED_FACE('',(#941),#906,.T.);
#941 = FACE_BOUND('',#942,.T.);
#942 = EDGE_LOOP('',(#943));
#943 = ORIENTED_EDGE('',*,*,#889,.T.);
#944 = ( GEOMETRIC_REPRESENTATION_CONTEXT(3) 
GLOBAL_UNCERTAINTY_ASSIGNED_CONTEXT((#948)) GLOBAL_UNIT_ASSIGNED_CONTEXT
((#945,#946,#947)) REPRESENTATION_CONTEXT('Context #1',
  '3D Context with UNIT and UNCERTAINTY') );
#945 = ( LENGTH_UNIT() NAMED_UNIT(*) SI_UNIT(.MILLI.,.METRE.) );
#946 = ( NAMED_UNIT(*) PLANE_ANGLE_UNIT() SI_UNIT($,.RADIAN.) );
#947 = ( NAMED_UNIT(*) SI_UNIT($,.STERADIAN.) SOLID_ANGLE_UNIT() );
#948 = UNCERTAINTY_MEASURE_WITH_UNIT(LENGTH_MEASURE(1.E-07),#945,
  'distance_accuracy_value','confusion accuracy');
#949 = CONTEXT_DEPENDENT_SHAPE_REPRESENTATION(#950,#952);
#950 = ( REPRESENTATION_RELATIONSHIP('','',#776,#10) 
REPRESENTATION_RELATIONSHIP_WITH_TRANSFORMATION(#951) 
SHAPE_REPRESENTATION_RELATIONSHIP() );
#951 = ITEM_DEFINED_TRANSFORMATION('','',#11,#23);
#952 = PRODUCT_DEFINITION_SHAPE('Placement','Placement of an item',#953
  );
#953 = NEXT_ASSEMBLY_USAGE_OCCURRENCE('196','sealing rod','',#5,#771,$);
#954 = PRODUCT_RELATED_PRODUCT_CATEGORY('part',$,(#773));
#955 = SHAPE_DEFINITION_REPRESENTATION(#956,#962);
#956 = PRODUCT_DEFINITION_SHAPE('','',#957);
#957 = PRODUCT_DEFINITION('design','',#958,#961);
#958 = PRODUCT_DEFINITION_FORMATION('','',#959);
#959 = PRODUCT('rod adapter and arm','rod adapter and arm','',(#960));
#960 = PRODUCT_CONTEXT('',#2,'mechanical');
#961 = PRODUCT_DEFINITION_CONTEXT('part definition',#2,'design');
#962 = ADVANCED_BREP_SHAPE_REPRESENTATION('',(#11,#963),#1524);
#963 = MANIFOLD_SOLID_BREP('',#964);
#964 = CLOSED_SHELL('',(#965,#1455,#1512,#1516,#1520));
#965 = ADVANCED_FACE('',(#966),#980,.T.);
#966 = FACE_BOUND('',#967,.T.);
#967 = EDGE_LOOP('',(#968,#998,#1025,#1026,#1246,#1341,#1364,#1391,#1392
    ));
#968 = ORIENTED_EDGE('',*,*,#969,.T.);
#969 = EDGE_CURVE('',#970,#972,#974,.T.);
#970 = VERTEX_POINT('',#971);
#971 = CARTESIAN_POINT('',(10.85,-2.65748355415E-15,172.3668811173));
#972 = VERTEX_POINT('',#973);
#973 = CARTESIAN_POINT('',(10.85,-2.65748355415E-15,182.1));
#974 = SEAM_CURVE('',#975,(#979,#991),.PCURVE_S1.);
#975 = LINE('',#976,#977);
#976 = CARTESIAN_POINT('',(10.85,-2.65748355415E-15,133.6));
#977 = VECTOR('',#978,1.);
#978 = DIRECTION('',(0.,0.,1.));
#979 = PCURVE('',#980,#985);
#980 = CYLINDRICAL_SURFACE('',#981,10.85);
#981 = AXIS2_PLACEMENT_3D('',#982,#983,#984);
#982 = CARTESIAN_POINT('',(0.,0.,133.6));
#983 = DIRECTION('',(0.,0.,1.));
#984 = DIRECTION('',(1.,0.,0.));
#985 = DEFINITIONAL_REPRESENTATION('',(#986),#990);
#986 = LINE('',#987,#988);
#987 = CARTESIAN_POINT('',(6.28318530718,0.));
#988 = VECTOR('',#989,1.);
#989 = DIRECTION('',(0.,1.));
#990 = ( GEOMETRIC_REPRESENTATION_CONTEXT(2) 
PARAMETRIC_REPRESENTATION_CONTEXT() REPRESENTATION_CONTEXT('2D SPACE',''
  ) );
#991 = PCURVE('',#980,#992);
#992 = DEFINITIONAL_REPRESENTATION('',(#993),#997);
#993 = LINE('',#994,#995);
#994 = CARTESIAN_POINT('',(4.138911435803E-13,0.));
#995 = VECTOR('',#996,1.);
#996 = DIRECTION('',(0.,1.));
#997 = ( GEOMETRIC_REPRESENTATION_CONTEXT(2) 
PARAMETRIC_REPRESENTATION_CONTEXT() REPRESENTATION_CONTEXT('2D SPACE',''
  ) );
#998 = ORIENTED_EDGE('',*,*,#999,.F.);
#999 = EDGE_CURVE('',#972,#972,#1000,.T.);
#1000 = SURFACE_CURVE('',#1001,(#1006,#1013),.PCURVE_S1.);
#1001 = CIRCLE('',#1002,10.85);
#1002 = AXIS2_PLACEMENT_3D('',#1003,#1004,#1005);
#1003 = CARTESIAN_POINT('',(0.,0.,182.1));
#1004 = DIRECTION('',(0.,0.,1.));
#1005 = DIRECTION('',(1.,0.,0.));
#1006 = PCURVE('',#980,#1007);
#1007 = DEFINITIONAL_REPRESENTATION('',(#1008),#1012);
#1008 = LINE('',#1009,#1010);
#1009 = CARTESIAN_POINT('',(0.,48.5));
#1010 = VECTOR('',#1011,1.);
#1011 = DIRECTION('',(1.,0.));
#1012 = ( GEOMETRIC_REPRESENTATION_CONTEXT(2) 
PARAMETRIC_REPRESENTATION_CONTEXT() REPRESENTATION_CONTEXT('2D SPACE',''
  ) );
#1013 = PCURVE('',#1014,#1019);
#1014 = PLANE('',#1015);
#1015 = AXIS2_PLACEMENT_3D('',#1016,#1017,#1018);
#1016 = CARTESIAN_POINT('',(0.,0.,182.1));
#1017 = DIRECTION('',(0.,0.,1.));
#1018 = DIRECTION('',(1.,0.,0.));
#1019 = DEFINITIONAL_REPRESENTATION('',(#1020),#1024);
#1020 = CIRCLE('',#1021,10.85);
#1021 = AXIS2_PLACEMENT_2D('',#1022,#1023);
#1022 = CARTESIAN_POINT('',(0.,0.));
#1023 = DIRECTION('',(1.,0.));
#1024 = ( GEOMETRIC_REPRESENTATION_CONTEXT(2) 
PARAMETRIC_REPRESENTATION_CONTEXT() REPRESENTATION_CONTEXT('2D SPACE',''
  ) );
#1025 = ORIENTED_EDGE('',*,*,#969,.F.);
#1026 = ORIENTED_EDGE('',*,*,#1027,.F.);
#1027 = EDGE_CURVE('',#1028,#970,#1030,.T.);
#1028 = VERTEX_POINT('',#1029);
#1029 = CARTESIAN_POINT('',(7.672108575874,7.672108575874,162.1));
#1030 = SURFACE_CURVE('',#1031,(#1099,#1170),.PCURVE_S1.);
#1031 = B_SPLINE_CURVE_WITH_KNOTS('',6,(#1032,#1033,#1034,#1035,#1036,
    #1037,#1038,#1039,#1040,#1041,#1042,#1043,#1044,#1045,#1046,#1047,
    #1048,#1049,#1050,#1051,#1052,#1053,#1054,#1055,#1056,#1057,#1058,
    #1059,#1060,#1061,#1062,#1063,#1064,#1065,#1066,#1067,#1068,#1069,
    #1070,#1071,#1072,#1073,#1074,#1075,#1076,#1077,#1078,#1079,#1080,
    #1081,#1082,#1083,#1084,#1085,#1086,#1087,#1088,#1089,#1090,#1091,
    #1092,#1093,#1094,#1095,#1096,#1097,#1098),.UNSPECIFIED.,.F.,.F.,(7,
    5,5,5,5,5,5,5,5,5,5,5,5,7),(0.,7.219216257533E-02,0.108271226485,
    0.203444047892,0.287233459349,0.357240449759,0.428110368257,
    0.510025679738,0.607514970804,0.683728219748,0.759762416821,
    0.822835833113,0.919557028062,1.),.UNSPECIFIED.);
#1032 = CARTESIAN_POINT('',(7.672108575874,7.672108575874,162.1));
#1033 = CARTESIAN_POINT('',(7.28462682856,8.059590323188,162.1));
#1034 = CARTESIAN_POINT('',(6.877756204204,8.41949295224,162.14504223225
    ));
#1035 = CARTESIAN_POINT('',(6.4581225009,8.74705395074,162.23334466134)
  );
#1036 = CARTESIAN_POINT('',(6.033972537741,9.03937446544,162.36062990082
    ));
#1037 = CARTESIAN_POINT('',(5.614668260788,9.295726815351,
    162.52016637751));
#1038 = CARTESIAN_POINT('',(5.008189742103,9.627752572388,
    162.79335856133));
#1039 = CARTESIAN_POINT('',(4.808563578872,9.730347674383,162.890609802)
  );
#1040 = CARTESIAN_POINT('',(4.611739128889,9.825372261706,
    162.99346339464));
#1041 = CARTESIAN_POINT('',(4.417997466709,9.913286462015,
    163.10137260048));
#1042 = CARTESIAN_POINT('',(4.227569001152,9.994535105276,
    163.21385700965));
#1043 = CARTESIAN_POINT('',(3.547517632056,10.267421105897,
    163.63819992958));
#1044 = CARTESIAN_POINT('',(3.077869847683,10.422233798076,
    163.97537458366));
#1045 = CARTESIAN_POINT('',(2.634507047944,10.541834155365,
    164.33501697013));
#1046 = CARTESIAN_POINT('',(2.218529263487,10.632841354343,
    164.71324923261));
#1047 = CARTESIAN_POINT('',(1.830555383162,10.70057678819,
    165.10854323825));
#1048 = CARTESIAN_POINT('',(1.156837662225,10.792849036591,
    165.88455723911));
#1049 = CARTESIAN_POINT('',(0.86450298712,10.821571639122,
    166.26126521801));
#1050 = CARTESIAN_POINT('',(0.597407144198,10.838834422712,
    166.65040613255));
#1051 = CARTESIAN_POINT('',(0.358273627324,10.847461818172,
    167.05133569948));
#1052 = CARTESIAN_POINT('',(0.150352956627,10.850335688257,
    167.46375146692));
#1053 = CARTESIAN_POINT('',(-0.166985803072,10.84967657175,
    168.24192673194));
#1054 = CARTESIAN_POINT('',(-0.287265838106,10.847119132052,
    168.60490147275));
#1055 = CARTESIAN_POINT('',(-0.379874334,10.843758286316,168.97402528637
    ));
#1056 = CARTESIAN_POINT('',(-0.442561545595,10.841016171322,
    169.34730166492));
#1057 = CARTESIAN_POINT('',(-0.474070248591,10.839638250394,
    169.72311815728));
#1058 = CARTESIAN_POINT('',(-0.474070248591,10.839638250394,
    170.48152740633));
#1059 = CARTESIAN_POINT('',(-0.441780025022,10.841050341437,
    170.8619297157));
#1060 = CARTESIAN_POINT('',(-0.3775524943,10.843859866672,
    171.23969845962));
#1061 = CARTESIAN_POINT('',(-0.282702641935,10.847284068614,
    171.61317817863));
#1062 = CARTESIAN_POINT('',(-0.159577385802,10.849832454213,
    171.98030868867));
#1063 = CARTESIAN_POINT('',(0.158943822678,10.850179754169,
    172.75228060406));
#1064 = CARTESIAN_POINT('',(0.363047108865,10.847176936425,
    173.15513540807));
#1065 = CARTESIAN_POINT('',(0.596923870616,10.838619839529,
    173.54699374178));
#1066 = CARTESIAN_POINT('',(0.857538578963,10.821821762015,
    173.92757262591));
#1067 = CARTESIAN_POINT('',(1.142340891299,10.794141950338,
    174.29627784942));
#1068 = CARTESIAN_POINT('',(1.814645338762,10.703525375833,
    175.07587268397));
#1069 = CARTESIAN_POINT('',(2.211177978843,10.634913379926,
    175.48122189969));
#1070 = CARTESIAN_POINT('',(2.637066402256,10.542008166001,
    175.86872096644));
#1071 = CARTESIAN_POINT('',(3.091690787982,10.41911276324,176.2367755073
    ));
#1072 = CARTESIAN_POINT('',(3.573901472844,10.259083543309,
    176.58120142299));
#1073 = CARTESIAN_POINT('',(4.476754442845,9.89262068898,177.13911923282
    ));
#1074 = CARTESIAN_POINT('',(4.890811875638,9.702740919632,
    177.36660110592));
#1075 = CARTESIAN_POINT('',(5.318864735718,9.480091048704,
    177.57080341362));
#1076 = CARTESIAN_POINT('',(5.756320165953,9.221164580784,
    177.74562391172));
#1077 = CARTESIAN_POINT('',(6.197903266323,8.922864407962,
    177.88463890901));
#1078 = CARTESIAN_POINT('',(7.076333977183,8.24351632033,178.07688421777
    ));
#1079 = CARTESIAN_POINT('',(7.509644702468,7.865407427348,178.1295392909
    ));
#1080 = CARTESIAN_POINT('',(7.922972655247,7.454076261645,
    178.13128693433));
#1081 = CARTESIAN_POINT('',(8.304825492688,7.019175722904,
    178.08089581518));
#1082 = CARTESIAN_POINT('',(8.647912687498,6.574138967919,
    177.98298471833));
#1083 = CARTESIAN_POINT('',(9.198450220377,5.771125698969,
    177.73724193471));
#1084 = CARTESIAN_POINT('',(9.420124258046,5.409675648448,
    177.60028571499));
#1085 = CARTESIAN_POINT('',(9.615884580392,5.053730734774,
    177.44174465548));
#1086 = CARTESIAN_POINT('',(9.787910017855,4.705668194959,
    177.26509185318));
#1087 = CARTESIAN_POINT('',(9.938409717198,4.367437469731,
    177.07341903604));
#1088 = CARTESIAN_POINT('',(10.270642459754,3.539489788576,
    176.55679080391));
#1089 = CARTESIAN_POINT('',(10.427253613848,3.062607966496,
    176.21365402256));
#1090 = CARTESIAN_POINT('',(10.547633576779,2.612924049709,
    175.84743923417));
#1091 = CARTESIAN_POINT('',(10.638707703924,2.191552007143,
    175.4621530384));
#1092 = CARTESIAN_POINT('',(10.706014542563,1.799129946199,
    175.05931638575));
#1093 = CARTESIAN_POINT('',(10.794555881443,1.136724607112,
    174.28852808346));
#1094 = CARTESIAN_POINT('',(10.821619010585,0.857389709653,
    173.92627844715));
#1095 = CARTESIAN_POINT('',(10.838205628378,0.601405964026,
    173.55257745008));
#1096 = CARTESIAN_POINT('',(10.84681880439,0.371187225027,
    173.16798237567));
#1097 = CARTESIAN_POINT('',(10.85,0.1696004623,172.77276147025));
#1098 = CARTESIAN_POINT('',(10.85,4.440892098501E-16,172.3668811173));
#1099 = PCURVE('',#980,#1100);
#1100 = DEFINITIONAL_REPRESENTATION('',(#1101),#1169);
#1101 = B_SPLINE_CURVE_WITH_KNOTS('',6,(#1102,#1103,#1104,#1105,#1106,
    #1107,#1108,#1109,#1110,#1111,#1112,#1113,#1114,#1115,#1116,#1117,
    #1118,#1119,#1120,#1121,#1122,#1123,#1124,#1125,#1126,#1127,#1128,
    #1129,#1130,#1131,#1132,#1133,#1134,#1135,#1136,#1137,#1138,#1139,
    #1140,#1141,#1142,#1143,#1144,#1145,#1146,#1147,#1148,#1149,#1150,
    #1151,#1152,#1153,#1154,#1155,#1156,#1157,#1158,#1159,#1160,#1161,
    #1162,#1163,#1164,#1165,#1166,#1167,#1168),.UNSPECIFIED.,.F.,.F.,(7,
    5,5,5,5,5,5,5,5,5,5,5,5,7),(0.,7.219216257533E-02,0.108271226485,
    0.203444047892,0.287233459349,0.357240449759,0.428110368257,
    0.510025679738,0.607514970804,0.683728219748,0.759762416821,
    0.822835833113,0.919557028062,1.),.UNSPECIFIED.);
#1102 = CARTESIAN_POINT('',(0.785398163397,28.5));
#1103 = CARTESIAN_POINT('',(0.835903411529,28.5));
#1104 = CARTESIAN_POINT('',(0.885874970696,28.545042232251));
#1105 = CARTESIAN_POINT('',(0.934802007579,28.63334466134));
#1106 = CARTESIAN_POINT('',(0.982167354927,28.760629900824));
#1107 = CARTESIAN_POINT('',(1.02741141369,28.920166377511));
#1108 = CARTESIAN_POINT('',(1.091136471423,29.193358561336));
#1109 = CARTESIAN_POINT('',(1.111815736582,29.290609802007));
#1110 = CARTESIAN_POINT('',(1.131950658956,29.393463394647));
#1111 = CARTESIAN_POINT('',(1.151551642457,29.501372600486));
#1112 = CARTESIAN_POINT('',(1.170628913039,29.61385700965));
#1113 = CARTESIAN_POINT('',(1.238164360204,30.038199929585));
#1114 = CARTESIAN_POINT('',(1.283650021178,30.375374583661));
#1115 = CARTESIAN_POINT('',(1.325889957789,30.735016970131));
#1116 = CARTESIAN_POINT('',(1.365078996124,31.113249232615));
#1117 = CARTESIAN_POINT('',(1.401353374297,31.508543238259));
#1118 = CARTESIAN_POINT('',(1.464026845108,32.284557239115));
#1119 = CARTESIAN_POINT('',(1.4910801782,32.661265218019));
#1120 = CARTESIAN_POINT('',(1.515730826994,33.050406132557));
#1121 = CARTESIAN_POINT('',(1.53777624954,33.451335699484));
#1122 = CARTESIAN_POINT('',(1.556938878561,33.863751466929));
#1123 = CARTESIAN_POINT('',(1.586186753602,34.641926731946));
#1124 = CARTESIAN_POINT('',(1.597272902509,35.004901472758));
#1125 = CARTESIAN_POINT('',(1.605813292014,35.374025286378));
#1126 = CARTESIAN_POINT('',(1.611596577156,35.747301664922));
#1127 = CARTESIAN_POINT('',(1.614503351552,36.123118157287));
#1128 = CARTESIAN_POINT('',(1.614503351552,36.88152740633));
#1129 = CARTESIAN_POINT('',(1.611524481439,37.261929715703));
#1130 = CARTESIAN_POINT('',(1.605599083016,37.639698459627));
#1131 = CARTESIAN_POINT('',(1.596852090169,38.013178178634));
#1132 = CARTESIAN_POINT('',(1.585503928267,38.380308688673));
#1133 = CARTESIAN_POINT('',(1.556147117408,39.152280604063));
#1134 = CARTESIAN_POINT('',(1.537336046083,39.555135408079));
#1135 = CARTESIAN_POINT('',(1.515774538367,39.946993741786));
#1136 = CARTESIAN_POINT('',(1.491721460768,40.327572625914));
#1137 = CARTESIAN_POINT('',(1.465366831504,40.696277849423));
#1138 = CARTESIAN_POINT('',(1.402842975332,41.475872683977));
#1139 = CARTESIAN_POINT('',(1.36577896804,41.881221899699));
#1140 = CARTESIAN_POINT('',(1.325664144019,42.268720966447));
#1141 = CARTESIAN_POINT('',(1.282349348367,42.636775507302));
#1142 = CARTESIAN_POINT('',(1.235621798368,42.981201422994));
#1143 = CARTESIAN_POINT('',(1.145816143702,43.539119232829));
#1144 = CARTESIAN_POINT('',(1.103874152269,43.766601105923));
#1145 = CARTESIAN_POINT('',(1.05949093398,43.970803413624));
#1146 = CARTESIAN_POINT('',(1.012756081373,44.145623911724));
#1147 = CARTESIAN_POINT('',(0.963742310942,44.284638909012));
#1148 = CARTESIAN_POINT('',(0.861394400762,44.476884217774));
#1149 = CARTESIAN_POINT('',(0.808483512989,44.5295392909));
#1150 = CARTESIAN_POINT('',(0.754917829097,44.531286934336));
#1151 = CARTESIAN_POINT('',(0.70174686826,44.480895815184));
#1152 = CARTESIAN_POINT('',(0.650036173271,44.382984718332));
#1153 = CARTESIAN_POINT('',(0.560302274611,44.137241934713));
#1154 = CARTESIAN_POINT('',(0.521273420351,44.000285714992));
#1155 = CARTESIAN_POINT('',(0.483892329933,43.84174465548));
#1156 = CARTESIAN_POINT('',(0.44815432053,43.66509185318));
#1157 = CARTESIAN_POINT('',(0.414057657933,43.473419036044));
#1158 = CARTESIAN_POINT('',(0.331834726818,42.956790803912));
#1159 = CARTESIAN_POINT('',(0.285668561552,42.613654022563));
#1160 = CARTESIAN_POINT('',(0.242850705548,42.247439234177));
#1161 = CARTESIAN_POINT('',(0.203176560074,41.862153038406));
#1162 = CARTESIAN_POINT('',(0.166505551645,41.459316385755));
#1163 = CARTESIAN_POINT('',(0.104911391076,40.688528083469));
#1164 = CARTESIAN_POINT('',(7.906270347795E-02,40.326278447151));
#1165 = CARTESIAN_POINT('',(5.54359254226E-02,39.952577450083));
#1166 = CARTESIAN_POINT('',(3.421082339134E-02,39.567982375678));
#1167 = CARTESIAN_POINT('',(1.56313790138E-02,39.172761470251));
#1168 = CARTESIAN_POINT('',(0.,38.766881117306));
#1169 = ( GEOMETRIC_REPRESENTATION_CONTEXT(2) 
PARAMETRIC_REPRESENTATION_CONTEXT() REPRESENTATION_CONTEXT('2D SPACE',''
  ) );
#1170 = PCURVE('',#1171,#1176);
#1171 = CYLINDRICAL_SURFACE('',#1172,8.);
#1172 = AXIS2_PLACEMENT_3D('',#1173,#1174,#1175);
#1173 = CARTESIAN_POINT('',(0.,0.,170.1));
#1174 = DIRECTION('',(0.707106781187,0.707106781187,2.220446049249E-16)
  );
#1175 = DIRECTION('',(1.570092458683E-16,1.570092458683E-16,-1.));
#1176 = DEFINITIONAL_REPRESENTATION('',(#1177),#1245);
#1177 = B_SPLINE_CURVE_WITH_KNOTS('',6,(#1178,#1179,#1180,#1181,#1182,
    #1183,#1184,#1185,#1186,#1187,#1188,#1189,#1190,#1191,#1192,#1193,
    #1194,#1195,#1196,#1197,#1198,#1199,#1200,#1201,#1202,#1203,#1204,
    #1205,#1206,#1207,#1208,#1209,#1210,#1211,#1212,#1213,#1214,#1215,
    #1216,#1217,#1218,#1219,#1220,#1221,#1222,#1223,#1224,#1225,#1226,
    #1227,#1228,#1229,#1230,#1231,#1232,#1233,#1234,#1235,#1236,#1237,
    #1238,#1239,#1240,#1241,#1242,#1243,#1244),.UNSPECIFIED.,.F.,.F.,(7,
    5,5,5,5,5,5,5,5,5,5,5,5,7),(0.,7.219216257533E-02,0.108271226485,
    0.203444047892,0.287233459349,0.357240449759,0.428110368257,
    0.510025679738,0.607514970804,0.683728219748,0.759762416821,
    0.822835833113,0.919557028062,1.),.UNSPECIFIED.);
#1178 = CARTESIAN_POINT('',(0.,10.85));
#1179 = CARTESIAN_POINT('',(6.849774277791E-02,10.85));
#1180 = CARTESIAN_POINT('',(0.136271541828,10.816788612022));
#1181 = CARTESIAN_POINT('',(0.202893471524,10.751683378093));
#1182 = CARTESIAN_POINT('',(0.267895032693,10.658465881127));
#1183 = CARTESIAN_POINT('',(0.330710268788,10.543241468508));
#1184 = CARTESIAN_POINT('',(0.420417179325,10.349174059632));
#1185 = CARTESIAN_POINT('',(0.449746426445,10.280562738246));
#1186 = CARTESIAN_POINT('',(0.478542537091,10.208579365035));
#1187 = CARTESIAN_POINT('',(0.506833260571,10.13374804911));
#1188 = CARTESIAN_POINT('',(0.5346454868,10.056546256396));
#1189 = CARTESIAN_POINT('',(0.634184402635,9.768636863284));
#1190 = CARTESIAN_POINT('',(0.703349400042,9.546014834637));
#1191 = CARTESIAN_POINT('',(0.770086916242,9.317080216088));
#1192 = CARTESIAN_POINT('',(0.834951271726,9.087291311409));
#1193 = CARTESIAN_POINT('',(0.898523441755,8.860848534308));
#1194 = CARTESIAN_POINT('',(1.016816513065,8.449704497787));
#1195 = CARTESIAN_POINT('',(1.071671616124,8.263302613668));
#1196 = CARTESIAN_POINT('',(1.126249869201,8.08664396325));
#1197 = CARTESIAN_POINT('',(1.18076902408,7.923651521693));
#1198 = CARTESIAN_POINT('',(1.235463105124,7.778661538519));
#1199 = CARTESIAN_POINT('',(1.336682216253,7.553803083851));
#1200 = CARTESIAN_POINT('',(1.383162100575,7.466943872484));
#1201 = CARTESIAN_POINT('',(1.429861042307,7.399083300231));
#1202 = CARTESIAN_POINT('',(1.476709099221,7.352817779712));
#1203 = CARTESIAN_POINT('',(1.523686096456,7.329563424925));
#1204 = CARTESIAN_POINT('',(1.618487252586,7.329563424925));
#1205 = CARTESIAN_POINT('',(1.666037472119,7.353394560129));
#1206 = CARTESIAN_POINT('',(1.713454143306,7.400796916987));
#1207 = CARTESIAN_POINT('',(1.760718212983,7.470287167202));
#1208 = CARTESIAN_POINT('',(1.807758485203,7.559151851487));
#1209 = CARTESIAN_POINT('',(1.908269519748,7.784625936109));
#1210 = CARTESIAN_POINT('',(1.961737060582,7.926825441045));
#1211 = CARTESIAN_POINT('',(2.015039856311,8.086150503999));
#1212 = CARTESIAN_POINT('',(2.068396859152,8.258554897027));
#1213 = CARTESIAN_POINT('',(2.122012475668,8.440367960838));
#1214 = CARTESIAN_POINT('',(2.240518300218,8.851683400341));
#1215 = CARTESIAN_POINT('',(2.30557895991,9.083558311527));
#1216 = CARTESIAN_POINT('',(2.37198242764,9.319012996978));
#1217 = CARTESIAN_POINT('',(2.440355857111,9.553580810348));
#1218 = CARTESIAN_POINT('',(2.511296273915,9.781397508974));
#1219 = CARTESIAN_POINT('',(2.643397892794,10.160682597127));
#1220 = CARTESIAN_POINT('',(2.70374564924,10.319200143139));
#1221 = CARTESIAN_POINT('',(2.766417813267,10.464441989645));
#1222 = CARTESIAN_POINT('',(2.831426564431,10.590681029535));
#1223 = CARTESIAN_POINT('',(2.898837480841,10.691997359234));
#1224 = CARTESIAN_POINT('',(3.038608255865,10.832770032135));
#1225 = CARTESIAN_POINT('',(3.110391936007,10.87180362209));
#1226 = CARTESIAN_POINT('',(3.182846659136,10.873215563772));
#1227 = CARTESIAN_POINT('',(3.254890407939,10.835705174456));
#1228 = CARTESIAN_POINT('',(3.32540654993,10.763615949117));
#1229 = CARTESIAN_POINT('',(3.448925235401,10.585088644056));
#1230 = CARTESIAN_POINT('',(3.503104820297,10.486252077522));
#1231 = CARTESIAN_POINT('',(3.555581631814,10.372984466752));
#1232 = CARTESIAN_POINT('',(3.606444489493,10.248507437939));
#1233 = CARTESIAN_POINT('',(3.655765634408,10.115761556496));
#1234 = CARTESIAN_POINT('',(3.776952089278,9.765238161878));
#1235 = CARTESIAN_POINT('',(3.847189798358,9.538772600729));
#1236 = CARTESIAN_POINT('',(3.914929734014,9.305919541886));
#1237 = CARTESIAN_POINT('',(3.980754314696,9.07236364608));
#1238 = CARTESIAN_POINT('',(4.04527423528,8.842472467722));
#1239 = CARTESIAN_POINT('',(4.162272837269,8.436689341696));
#1240 = CARTESIAN_POINT('',(4.214926050831,8.258306263617));
#1241 = CARTESIAN_POINT('',(4.267331274124,8.089026931129));
#1242 = CARTESIAN_POINT('',(4.31968315525,7.932328134792));
#1243 = CARTESIAN_POINT('',(4.372189566057,7.792034212859));
#1244 = CARTESIAN_POINT('',(4.425092930097,7.672108575874));
#1245 = ( GEOMETRIC_REPRESENTATION_CONTEXT(2) 
PARAMETRIC_REPRESENTATION_CONTEXT() REPRESENTATION_CONTEXT('2D SPACE',''
  ) );
#1246 = ORIENTED_EDGE('',*,*,#1247,.F.);
#1247 = EDGE_CURVE('',#1248,#1028,#1250,.T.);
#1248 = VERTEX_POINT('',#1249);
#1249 = CARTESIAN_POINT('',(10.85,-2.65748355415E-15,167.83311888269));
#1250 = SURFACE_CURVE('',#1251,(#1279,#1310),.PCURVE_S1.);
#1251 = B_SPLINE_CURVE_WITH_KNOTS('',6,(#1252,#1253,#1254,#1255,#1256,
    #1257,#1258,#1259,#1260,#1261,#1262,#1263,#1264,#1265,#1266,#1267,
    #1268,#1269,#1270,#1271,#1272,#1273,#1274,#1275,#1276,#1277,#1278),
  .UNSPECIFIED.,.F.,.F.,(7,5,5,5,5,7),(0.,0.287160433771,0.620804087486,
    0.743460738297,0.84390803333,1.),.UNSPECIFIED.);
#1252 = CARTESIAN_POINT('',(10.85,-4.440892098501E-16,167.83311888269));
#1253 = CARTESIAN_POINT('',(10.85,0.17302930862,167.41903276582));
#1254 = CARTESIAN_POINT('',(10.846688808356,0.379305478126,
    167.01615068684));
#1255 = CARTESIAN_POINT('',(10.837680075859,0.615291000565,
    166.62429268773));
#1256 = CARTESIAN_POINT('',(10.820269764564,0.878004314507,
    166.24373725918));
#1257 = CARTESIAN_POINT('',(10.791794203029,1.164888052602,
    165.87511585846));
#1258 = CARTESIAN_POINT('',(10.700194231443,1.832941542204,
    165.10599166321));
#1259 = CARTESIAN_POINT('',(10.632222180804,2.221748955346,
    164.71011117935));
#1260 = CARTESIAN_POINT('',(10.540878399757,2.638624378293,
    164.33137992712));
#1261 = CARTESIAN_POINT('',(10.42081461743,3.082958179263,
    163.97131885487));
#1262 = CARTESIAN_POINT('',(10.265366131745,3.553672901897,
    163.63381533744));
#1263 = CARTESIAN_POINT('',(9.993530500109,4.229681808165,
    163.21274411516));
#1264 = CARTESIAN_POINT('',(9.914562988154,4.414689027528,
    163.10349492601));
#1265 = CARTESIAN_POINT('',(9.829305488492,4.602822423029,
    162.99856404571));
#1266 = CARTESIAN_POINT('',(9.737350004664,4.793871811106,
    162.89839105461));
#1267 = CARTESIAN_POINT('',(9.638274741663,4.98758194206,162.80347472053
    ));
#1268 = CARTESIAN_POINT('',(9.444321807351,5.344220521299,
    162.64140536184));
#1269 = CARTESIAN_POINT('',(9.351908666302,5.506415133302,
    162.57231749167));
#1270 = CARTESIAN_POINT('',(9.254249653263,5.66990939017,162.50749490242
    ));
#1271 = CARTESIAN_POINT('',(9.151204592686,5.834367408083,
    162.44731461392));
#1272 = CARTESIAN_POINT('',(9.042650255583,5.999445922008,
    162.39214699602));
#1273 = CARTESIAN_POINT('',(8.751068118237,6.421744712455,
    162.26498576519));
#1274 = CARTESIAN_POINT('',(8.55971882878,6.679897840362,162.20043572008
    ));
#1275 = CARTESIAN_POINT('',(8.354990697462,6.936417891554,
    162.15064417978));
#1276 = CARTESIAN_POINT('',(8.137838387304,7.188730817668,
    162.11692460682));
#1277 = CARTESIAN_POINT('',(7.909627350003,7.434589801746,162.1));
#1278 = CARTESIAN_POINT('',(7.672108575874,7.672108575874,162.1));
#1279 = PCURVE('',#980,#1280);
#1280 = DEFINITIONAL_REPRESENTATION('',(#1281),#1309);
#1281 = B_SPLINE_CURVE_WITH_KNOTS('',6,(#1282,#1283,#1284,#1285,#1286,
    #1287,#1288,#1289,#1290,#1291,#1292,#1293,#1294,#1295,#1296,#1297,
    #1298,#1299,#1300,#1301,#1302,#1303,#1304,#1305,#1306,#1307,#1308),
  .UNSPECIFIED.,.F.,.F.,(7,5,5,5,5,7),(0.,0.287160433771,0.620804087486,
    0.743460738297,0.84390803333,1.),.UNSPECIFIED.);
#1282 = CARTESIAN_POINT('',(0.,34.233118882694));
#1283 = CARTESIAN_POINT('',(1.594740171614E-02,33.819032765827));
#1284 = CARTESIAN_POINT('',(3.495905115877E-02,33.416150686846));
#1285 = CARTESIAN_POINT('',(5.671607214014E-02,33.02429268773));
#1286 = CARTESIAN_POINT('',(8.09654396055E-02,32.64373725918));
#1287 = CARTESIAN_POINT('',(0.107517782305,32.275115858464));
#1288 = CARTESIAN_POINT('',(0.169665625656,31.505991663216));
#1289 = CARTESIAN_POINT('',(0.206019285597,31.110111179354));
#1290 = CARTESIAN_POINT('',(0.245295378779,30.731379927124));
#1291 = CARTESIAN_POINT('',(0.287632335186,30.371318854875));
#1292 = CARTESIAN_POINT('',(0.333228986296,30.033815337445));
#1293 = CARTESIAN_POINT('',(0.400382621744,29.612744115167));
#1294 = CARTESIAN_POINT('',(0.418918173084,29.503494926016));
#1295 = CARTESIAN_POINT('',(0.437947932296,29.398564045717));
#1296 = CARTESIAN_POINT('',(0.457481356406,29.29839105461));
#1297 = CARTESIAN_POINT('',(0.477528061125,29.203474720533));
#1298 = CARTESIAN_POINT('',(0.514944330427,29.041405361844));
#1299 = CARTESIAN_POINT('',(0.532145962468,28.972317491676));
#1300 = CARTESIAN_POINT('',(0.549692413983,28.907494902426));
#1301 = CARTESIAN_POINT('',(0.567573095128,28.847314613921));
#1302 = CARTESIAN_POINT('',(0.585777905161,28.792146996024));
#1303 = CARTESIAN_POINT('',(0.633075843365,28.664985765197));
#1304 = CARTESIAN_POINT('',(0.662675499396,28.600435720089));
#1305 = CARTESIAN_POINT('',(0.692894779891,28.550644179786));
#1306 = CARTESIAN_POINT('',(0.723543743064,28.516924606828));
#1307 = CARTESIAN_POINT('',(0.754439428679,28.5));
#1308 = CARTESIAN_POINT('',(0.785398163397,28.5));
#1309 = ( GEOMETRIC_REPRESENTATION_CONTEXT(2) 
PARAMETRIC_REPRESENTATION_CONTEXT() REPRESENTATION_CONTEXT('2D SPACE',''
  ) );
#1310 = PCURVE('',#1171,#1311);
#1311 = DEFINITIONAL_REPRESENTATION('',(#1312),#1340);
#1312 = B_SPLINE_CURVE_WITH_KNOTS('',6,(#1313,#1314,#1315,#1316,#1317,
    #1318,#1319,#1320,#1321,#1322,#1323,#1324,#1325,#1326,#1327,#1328,
    #1329,#1330,#1331,#1332,#1333,#1334,#1335,#1336,#1337,#1338,#1339),
  .UNSPECIFIED.,.F.,.F.,(7,5,5,5,5,7),(0.,0.287160433771,0.620804087486,
    0.743460738297,0.84390803333,1.),.UNSPECIFIED.);
#1313 = CARTESIAN_POINT('',(4.999685030672,7.672108575874));
#1314 = CARTESIAN_POINT('',(5.053657952558,7.794458773343));
#1315 = CARTESIAN_POINT('',(5.107203486657,7.937976685533));
#1316 = CARTESIAN_POINT('',(5.160596748352,8.098473512873));
#1317 = CARTESIAN_POINT('',(5.214060214455,8.27192892949));
#1318 = CARTESIAN_POINT('',(5.26779716943,8.45465110345));
#1319 = CARTESIAN_POINT('',(5.38506347415,8.862265295077));
#1320 = CARTESIAN_POINT('',(5.448751292247,9.089130155548));
#1321 = CARTESIAN_POINT('',(5.513734406478,9.319315787026));
#1322 = CARTESIAN_POINT('',(5.580599448673,9.548609316144));
#1323 = CARTESIAN_POINT('',(5.649906993424,9.77153621017));
#1324 = CARTESIAN_POINT('',(5.748847127489,10.057329873437));
#1325 = CARTESIAN_POINT('',(5.775868697021,10.13231126962));
#1326 = CARTESIAN_POINT('',(5.803341746891,10.205055513189));
#1327 = CARTESIAN_POINT('',(5.831291057905,10.275125484857));
#1328 = CARTESIAN_POINT('',(5.859742160992,10.342042441723));
#1329 = CARTESIAN_POINT('',(5.912456305266,10.457078564453));
#1330 = CARTESIAN_POINT('',(5.93655131241,10.506421515765));
#1331 = CARTESIAN_POINT('',(5.960999609258,10.552974063118));
#1332 = CARTESIAN_POINT('',(5.985794821959,10.596399581703));
#1333 = CARTESIAN_POINT('',(6.010932601491,10.636368210435));
#1334 = CARTESIAN_POINT('',(6.076002632054,10.728798842257));
#1335 = CARTESIAN_POINT('',(6.116500793543,10.776036289434));
#1336 = CARTESIAN_POINT('',(6.157666757088,10.812658707187));
#1337 = CARTESIAN_POINT('',(6.19929525735,10.837521017161));
#1338 = CARTESIAN_POINT('',(6.241197523218,10.85));
#1339 = CARTESIAN_POINT('',(6.28318530718,10.85));
#1340 = ( GEOMETRIC_REPRESENTATION_CONTEXT(2) 
PARAMETRIC_REPRESENTATION_CONTEXT() REPRESENTATION_CONTEXT('2D SPACE',''
  ) );
#1341 = ORIENTED_EDGE('',*,*,#1342,.F.);
#1342 = EDGE_CURVE('',#1343,#1248,#1345,.T.);
#1343 = VERTEX_POINT('',#1344);
#1344 = CARTESIAN_POINT('',(10.85,-2.65748355415E-15,133.6));
#1345 = SEAM_CURVE('',#1346,(#1350,#1357),.PCURVE_S1.);
#1346 = LINE('',#1347,#1348);
#1347 = CARTESIAN_POINT('',(10.85,-2.65748355415E-15,133.6));
#1348 = VECTOR('',#1349,1.);
#1349 = DIRECTION('',(0.,0.,1.));
#1350 = PCURVE('',#980,#1351);
#1351 = DEFINITIONAL_REPRESENTATION('',(#1352),#1356);
#1352 = LINE('',#1353,#1354);
#1353 = CARTESIAN_POINT('',(0.,-0.));
#1354 = VECTOR('',#1355,1.);
#1355 = DIRECTION('',(0.,1.));
#1356 = ( GEOMETRIC_REPRESENTATION_CONTEXT(2) 
PARAMETRIC_REPRESENTATION_CONTEXT() REPRESENTATION_CONTEXT('2D SPACE',''
  ) );
#1357 = PCURVE('',#980,#1358);
#1358 = DEFINITIONAL_REPRESENTATION('',(#1359),#1363);
#1359 = LINE('',#1360,#1361);
#1360 = CARTESIAN_POINT('',(6.28318530718,-0.));
#1361 = VECTOR('',#1362,1.);
#1362 = DIRECTION('',(0.,1.));
#1363 = ( GEOMETRIC_REPRESENTATION_CONTEXT(2) 
PARAMETRIC_REPRESENTATION_CONTEXT() REPRESENTATION_CONTEXT('2D SPACE',''
  ) );
#1364 = ORIENTED_EDGE('',*,*,#1365,.T.);
#1365 = EDGE_CURVE('',#1343,#1343,#1366,.T.);
#1366 = SURFACE_CURVE('',#1367,(#1372,#1379),.PCURVE_S1.);
#1367 = CIRCLE('',#1368,10.85);
#1368 = AXIS2_PLACEMENT_3D('',#1369,#1370,#1371);
#1369 = CARTESIAN_POINT('',(0.,0.,133.6));
#1370 = DIRECTION('',(0.,0.,1.));
#1371 = DIRECTION('',(1.,0.,0.));
#1372 = PCURVE('',#980,#1373);
#1373 = DEFINITIONAL_REPRESENTATION('',(#1374),#1378);
#1374 = LINE('',#1375,#1376);
#1375 = CARTESIAN_POINT('',(0.,0.));
#1376 = VECTOR('',#1377,1.);
#1377 = DIRECTION('',(1.,0.));
#1378 = ( GEOMETRIC_REPRESENTATION_CONTEXT(2) 
PARAMETRIC_REPRESENTATION_CONTEXT() REPRESENTATION_CONTEXT('2D SPACE',''
  ) );
#1379 = PCURVE('',#1380,#1385);
#1380 = PLANE('',#1381);
#1381 = AXIS2_PLACEMENT_3D('',#1382,#1383,#1384);
#1382 = CARTESIAN_POINT('',(0.,0.,133.6));
#1383 = DIRECTION('',(0.,0.,1.));
#1384 = DIRECTION('',(1.,0.,0.));
#1385 = DEFINITIONAL_REPRESENTATION('',(#1386),#1390);
#1386 = CIRCLE('',#1387,10.85);
#1387 = AXIS2_PLACEMENT_2D('',#1388,#1389);
#1388 = CARTESIAN_POINT('',(0.,0.));
#1389 = DIRECTION('',(1.,0.));
#1390 = ( GEOMETRIC_REPRESENTATION_CONTEXT(2) 
PARAMETRIC_REPRESENTATION_CONTEXT() REPRESENTATION_CONTEXT('2D SPACE',''
  ) );
#1391 = ORIENTED_EDGE('',*,*,#1342,.T.);
#1392 = ORIENTED_EDGE('',*,*,#1393,.F.);
#1393 = EDGE_CURVE('',#970,#1248,#1394,.T.);
#1394 = SURFACE_CURVE('',#1395,(#1413,#1434),.PCURVE_S1.);
#1395 = B_SPLINE_CURVE_WITH_KNOTS('',6,(#1396,#1397,#1398,#1399,#1400,
    #1401,#1402,#1403,#1404,#1405,#1406,#1407,#1408,#1409,#1410,#1411,
    #1412),.UNSPECIFIED.,.F.,.F.,(7,5,5,7),(0.,0.500251099719,
    0.822407239164,1.),.UNSPECIFIED.);
#1396 = CARTESIAN_POINT('',(10.85,-2.22044604925E-15,172.3668811173));
#1397 = CARTESIAN_POINT('',(10.85,-0.151384677105,172.00459397881));
#1398 = CARTESIAN_POINT('',(10.847465538129,-0.277653765492,
    171.63293068273));
#1399 = CARTESIAN_POINT('',(10.84397230717,-0.374982474075,
    171.25469559301));
#1400 = CARTESIAN_POINT('',(10.841088176459,-0.440914670079,
    170.87201979917));
#1401 = CARTESIAN_POINT('',(10.839638250394,-0.474070248591,
    170.48660620451));
#1402 = CARTESIAN_POINT('',(10.839638250394,-0.474070248591,
    169.85102990797));
#1403 = CARTESIAN_POINT('',(10.840239625629,-0.46031965321,
    169.60221747455));
#1404 = CARTESIAN_POINT('',(10.841440990128,-0.432850947825,
    169.35414404039));
#1405 = CARTESIAN_POINT('',(10.84309959924,-0.391928548334,
    169.10740596796));
#1406 = CARTESIAN_POINT('',(10.844933562162,-0.338055597531,
    168.8626594215));
#1407 = CARTESIAN_POINT('',(10.847503074666,-0.235592227068,
    168.48726143317));
#1408 = CARTESIAN_POINT('',(10.848362536097,-0.195466803883,
    168.35464824878));
#1409 = CARTESIAN_POINT('',(10.849109737451,-0.151729841421,
    168.22287104337));
#1410 = CARTESIAN_POINT('',(10.849679012873,-0.104491781968,
    168.0919827895));
#1411 = CARTESIAN_POINT('',(10.85,-5.387210261217E-02,167.96204322479));
#1412 = CARTESIAN_POINT('',(10.85,-3.10862446895E-15,167.83311888269));
#1413 = PCURVE('',#980,#1414);
#1414 = DEFINITIONAL_REPRESENTATION('',(#1415),#1433);
#1415 = B_SPLINE_CURVE_WITH_KNOTS('',6,(#1416,#1417,#1418,#1419,#1420,
    #1421,#1422,#1423,#1424,#1425,#1426,#1427,#1428,#1429,#1430,#1431,
    #1432),.UNSPECIFIED.,.F.,.F.,(7,5,5,7),(0.,0.500251099719,
    0.822407239164,1.),.UNSPECIFIED.);
#1416 = CARTESIAN_POINT('',(6.28318530718,38.766881117306));
#1417 = CARTESIAN_POINT('',(6.269232802377,38.404593978813));
#1418 = CARTESIAN_POINT('',(6.257595139319,38.032930682734));
#1419 = CARTESIAN_POINT('',(6.248619657347,37.654695593017));
#1420 = CARTESIAN_POINT('',(6.242536981854,37.272019799176));
#1421 = CARTESIAN_POINT('',(6.239478282422,36.886606204513));
#1422 = CARTESIAN_POINT('',(6.239478282422,36.251029907977));
#1423 = CARTESIAN_POINT('',(6.24074682847,36.002217474558));
#1424 = CARTESIAN_POINT('',(6.243280932955,35.754144040396));
#1425 = CARTESIAN_POINT('',(6.247055644449,35.507405967969));
#1426 = CARTESIAN_POINT('',(6.252023568663,35.262659421506));
#1427 = CARTESIAN_POINT('',(6.26147016624,34.887261433179));
#1428 = CARTESIAN_POINT('',(6.265169185596,34.75464824878));
#1429 = CARTESIAN_POINT('',(6.269200769314,34.622871043373));
#1430 = CARTESIAN_POINT('',(6.273554728368,34.491982789502));
#1431 = CARTESIAN_POINT('',(6.278220136432,34.362043224795));
#1432 = CARTESIAN_POINT('',(6.28318530718,34.233118882694));
#1433 = ( GEOMETRIC_REPRESENTATION_CONTEXT(2) 
PARAMETRIC_REPRESENTATION_CONTEXT() REPRESENTATION_CONTEXT('2D SPACE',''
  ) );
#1434 = PCURVE('',#1171,#1435);
#1435 = DEFINITIONAL_REPRESENTATION('',(#1436),#1454);
#1436 = B_SPLINE_CURVE_WITH_KNOTS('',6,(#1437,#1438,#1439,#1440,#1441,
    #1442,#1443,#1444,#1445,#1446,#1447,#1448,#1449,#1450,#1451,#1452,
    #1453),.UNSPECIFIED.,.F.,.F.,(7,5,5,7),(0.,0.500251099719,
    0.822407239164,1.),.UNSPECIFIED.);
#1437 = CARTESIAN_POINT('',(4.425092930097,7.672108575874));
#1438 = CARTESIAN_POINT('',(4.472314255879,7.565063444125));
#1439 = CARTESIAN_POINT('',(4.519966981834,7.473985580297));
#1440 = CARTESIAN_POINT('',(4.567848599768,7.402693703155));
#1441 = CARTESIAN_POINT('',(4.61588658018,7.354033211878));
#1442 = CARTESIAN_POINT('',(4.664063204821,7.329563424925));
#1443 = CARTESIAN_POINT('',(4.743510241888,7.329563424925));
#1444 = CARTESIAN_POINT('',(4.77461179126,7.339711800671));
#1445 = CARTESIAN_POINT('',(4.805675249493,7.359984601504));
#1446 = CARTESIAN_POINT('',(4.836679868716,7.390093921436));
#1447 = CARTESIAN_POINT('',(4.867596126099,7.42948465789));
#1448 = CARTESIAN_POINT('',(4.915344333047,7.503754121684));
#1449 = CARTESIAN_POINT('',(4.932276886641,7.532734811522));
#1450 = CARTESIAN_POINT('',(4.949176397453,7.564189865411));
#1451 = CARTESIAN_POINT('',(4.966044247832,7.597994756092));
#1452 = CARTESIAN_POINT('',(4.982880740062,7.6340152468));
#1453 = CARTESIAN_POINT('',(4.999685030672,7.672108575874));
#1454 = ( GEOMETRIC_REPRESENTATION_CONTEXT(2) 
PARAMETRIC_REPRESENTATION_CONTEXT() REPRESENTATION_CONTEXT('2D SPACE',''
  ) );
#1455 = ADVANCED_FACE('',(#1456),#1171,.T.);
#1456 = FACE_BOUND('',#1457,.T.);
#1457 = EDGE_LOOP('',(#1458,#1481,#1508,#1509,#1510,#1511));
#1458 = ORIENTED_EDGE('',*,*,#1459,.T.);
#1459 = EDGE_CURVE('',#1028,#1460,#1462,.T.);
#1460 = VERTEX_POINT('',#1461);
#1461 = CARTESIAN_POINT('',(53.033008588991,53.033008588991,162.1));
#1462 = SEAM_CURVE('',#1463,(#1467,#1474),.PCURVE_S1.);
#1463 = LINE('',#1464,#1465);
#1464 = CARTESIAN_POINT('',(2.641603656924E-15,-1.294557230298E-16,162.1
    ));
#1465 = VECTOR('',#1466,1.);
#1466 = DIRECTION('',(0.707106781187,0.707106781187,2.220446049249E-16)
  );
#1467 = PCURVE('',#1171,#1468);
#1468 = DEFINITIONAL_REPRESENTATION('',(#1469),#1473);
#1469 = LINE('',#1470,#1471);
#1470 = CARTESIAN_POINT('',(6.28318530718,0.));
#1471 = VECTOR('',#1472,1.);
#1472 = DIRECTION('',(0.,1.));
#1473 = ( GEOMETRIC_REPRESENTATION_CONTEXT(2) 
PARAMETRIC_REPRESENTATION_CONTEXT() REPRESENTATION_CONTEXT('2D SPACE',''
  ) );
#1474 = PCURVE('',#1171,#1475);
#1475 = DEFINITIONAL_REPRESENTATION('',(#1476),#1480);
#1476 = LINE('',#1477,#1478);
#1477 = CARTESIAN_POINT('',(4.138911435803E-13,0.));
#1478 = VECTOR('',#1479,1.);
#1479 = DIRECTION('',(0.,1.));
#1480 = ( GEOMETRIC_REPRESENTATION_CONTEXT(2) 
PARAMETRIC_REPRESENTATION_CONTEXT() REPRESENTATION_CONTEXT('2D SPACE',''
  ) );
#1481 = ORIENTED_EDGE('',*,*,#1482,.F.);
#1482 = EDGE_CURVE('',#1460,#1460,#1483,.T.);
#1483 = SURFACE_CURVE('',#1484,(#1489,#1496),.PCURVE_S1.);
#1484 = CIRCLE('',#1485,8.);
#1485 = AXIS2_PLACEMENT_3D('',#1486,#1487,#1488);
#1486 = CARTESIAN_POINT('',(53.033008588991,53.033008588991,170.1));
#1487 = DIRECTION('',(0.707106781187,0.707106781187,2.220446049249E-16)
  );
#1488 = DIRECTION('',(1.570092458683E-16,1.570092458683E-16,-1.));
#1489 = PCURVE('',#1171,#1490);
#1490 = DEFINITIONAL_REPRESENTATION('',(#1491),#1495);
#1491 = LINE('',#1492,#1493);
#1492 = CARTESIAN_POINT('',(0.,75.));
#1493 = VECTOR('',#1494,1.);
#1494 = DIRECTION('',(1.,0.));
#1495 = ( GEOMETRIC_REPRESENTATION_CONTEXT(2) 
PARAMETRIC_REPRESENTATION_CONTEXT() REPRESENTATION_CONTEXT('2D SPACE',''
  ) );
#1496 = PCURVE('',#1497,#1502);
#1497 = PLANE('',#1498);
#1498 = AXIS2_PLACEMENT_3D('',#1499,#1500,#1501);
#1499 = CARTESIAN_POINT('',(53.033008588991,53.033008588991,170.1));
#1500 = DIRECTION('',(0.707106781187,0.707106781187,2.220446049249E-16)
  );
#1501 = DIRECTION('',(1.570092458683E-16,1.570092458683E-16,-1.));
#1502 = DEFINITIONAL_REPRESENTATION('',(#1503),#1507);
#1503 = CIRCLE('',#1504,8.);
#1504 = AXIS2_PLACEMENT_2D('',#1505,#1506);
#1505 = CARTESIAN_POINT('',(0.,0.));
#1506 = DIRECTION('',(1.,0.));
#1507 = ( GEOMETRIC_REPRESENTATION_CONTEXT(2) 
PARAMETRIC_REPRESENTATION_CONTEXT() REPRESENTATION_CONTEXT('2D SPACE',''
  ) );
#1508 = ORIENTED_EDGE('',*,*,#1459,.F.);
#1509 = ORIENTED_EDGE('',*,*,#1027,.T.);
#1510 = ORIENTED_EDGE('',*,*,#1393,.T.);
#1511 = ORIENTED_EDGE('',*,*,#1247,.T.);
#1512 = ADVANCED_FACE('',(#1513),#1380,.F.);
#1513 = FACE_BOUND('',#1514,.T.);
#1514 = EDGE_LOOP('',(#1515));
#1515 = ORIENTED_EDGE('',*,*,#1365,.F.);
#1516 = ADVANCED_FACE('',(#1517),#1014,.T.);
#1517 = FACE_BOUND('',#1518,.T.);
#1518 = EDGE_LOOP('',(#1519));
#1519 = ORIENTED_EDGE('',*,*,#999,.T.);
#1520 = ADVANCED_FACE('',(#1521),#1497,.T.);
#1521 = FACE_BOUND('',#1522,.T.);
#1522 = EDGE_LOOP('',(#1523));
#1523 = ORIENTED_EDGE('',*,*,#1482,.T.);
#1524 = ( GEOMETRIC_REPRESENTATION_CONTEXT(3) 
GLOBAL_UNCERTAINTY_ASSIGNED_CONTEXT((#1528)) 
GLOBAL_UNIT_ASSIGNED_CONTEXT((#1525,#1526,#1527)) REPRESENTATION_CONTEXT
('Context #1','3D Context with UNIT and UNCERTAINTY') );
#1525 = ( LENGTH_UNIT() NAMED_UNIT(*) SI_UNIT(.MILLI.,.METRE.) );
#1526 = ( NAMED_UNIT(*) PLANE_ANGLE_UNIT() SI_UNIT($,.RADIAN.) );
#1527 = ( NAMED_UNIT(*) SI_UNIT($,.STERADIAN.) SOLID_ANGLE_UNIT() );
#1528 = UNCERTAINTY_MEASURE_WITH_UNIT(LENGTH_MEASURE(1.E-07),#1525,
  'distance_accuracy_value','confusion accuracy');
#1529 = CONTEXT_DEPENDENT_SHAPE_REPRESENTATION(#1530,#1532);
#1530 = ( REPRESENTATION_RELATIONSHIP('','',#962,#10) 
REPRESENTATION_RELATIONSHIP_WITH_TRANSFORMATION(#1531) 
SHAPE_REPRESENTATION_RELATIONSHIP() );
#1531 = ITEM_DEFINED_TRANSFORMATION('','',#11,#27);
#1532 = PRODUCT_DEFINITION_SHAPE('Placement','Placement of an item',
  #1533);
#1533 = NEXT_ASSEMBLY_USAGE_OCCURRENCE('197','rod adapter and arm','',#5
  ,#957,$);
#1534 = PRODUCT_RELATED_PRODUCT_CATEGORY('part',$,(#959));
#1535 = MECHANICAL_DESIGN_GEOMETRIC_PRESENTATION_REPRESENTATION('',(
    #1536),#758);
#1536 = STYLED_ITEM('color',(#1537),#521);
#1537 = PRESENTATION_STYLE_ASSIGNMENT((#1538));
#1538 = SURFACE_STYLE_USAGE(.BOTH.,#1539);
#1539 = SURFACE_SIDE_STYLE('',(#1540));
#1540 = SURFACE_STYLE_FILL_AREA(#1541);
#1541 = FILL_AREA_STYLE('',(#1542));
#1542 = FILL_AREA_STYLE_COLOUR('',#1543);
#1543 = COLOUR_RGB('',0.950000001282,0.950000001282,0.930000003373);
#1544 = MECHANICAL_DESIGN_GEOMETRIC_PRESENTATION_REPRESENTATION('',(
    #1545),#502);
#1545 = STYLED_ITEM('color',(#1546),#45);
#1546 = PRESENTATION_STYLE_ASSIGNMENT((#1547));
#1547 = SURFACE_STYLE_USAGE(.BOTH.,#1548);
#1548 = SURFACE_SIDE_STYLE('',(#1549));
#1549 = SURFACE_STYLE_FILL_AREA(#1550);
#1550 = FILL_AREA_STYLE('',(#1551));
#1551 = FILL_AREA_STYLE_COLOUR('',#1552);
#1552 = COLOUR_RGB('',0.199999998682,0.199999998682,0.210000004305);
#1553 = MECHANICAL_DESIGN_GEOMETRIC_PRESENTATION_REPRESENTATION('',(
    #1554),#944);
#1554 = STYLED_ITEM('color',(#1555),#777);
#1555 = PRESENTATION_STYLE_ASSIGNMENT((#1556));
#1556 = SURFACE_STYLE_USAGE(.BOTH.,#1557);
#1557 = SURFACE_SIDE_STYLE('',(#1558));
#1558 = SURFACE_STYLE_FILL_AREA(#1559);
#1559 = FILL_AREA_STYLE('',(#1560));
#1560 = FILL_AREA_STYLE_COLOUR('',#1552);
#1561 = MECHANICAL_DESIGN_GEOMETRIC_PRESENTATION_REPRESENTATION('',(
    #1562),#1524);
#1562 = STYLED_ITEM('color',(#1563),#963);
#1563 = PRESENTATION_STYLE_ASSIGNMENT((#1564));
#1564 = SURFACE_STYLE_USAGE(.BOTH.,#1565);
#1565 = SURFACE_SIDE_STYLE('',(#1566));
#1566 = SURFACE_STYLE_FILL_AREA(#1567);
#1567 = FILL_AREA_STYLE('',(#1568));
#1568 = FILL_AREA_STYLE_COLOUR('',#1569);
#1569 = COLOUR_RGB('',0.620000000292,0.630000008194,0.659999992303);
ENDSEC;
END-ISO-10303-21;
